<svg xmlns="http://www.w3.org/2000/svg" xmlns:xlink="http://www.w3.org/1999/xlink" width="1023.5" height="837.8" data-name="Layer 1">
  <defs>
    <linearGradient id="a" x1="352.4" x2="352.4" y1="317.1" y2="135.7" gradientUnits="userSpaceOnUse">
      <stop offset="0" stop-color="gray" stop-opacity=".3"/>
      <stop offset=".5" stop-color="gray" stop-opacity=".1"/>
      <stop offset="1" stop-color="gray" stop-opacity=".1"/>
    </linearGradient>
    <linearGradient id="b" x1="569.8" x2="569.8" y1="551.5" y2="380.8" xlink:href="#a"/>
    <linearGradient id="c" x1="171.5" x2="171.5" y1="319.2" y2="319" xlink:href="#a"/>
    <linearGradient id="d" x1="228" x2="228" y1="853.8" y2="250.3" xlink:href="#a"/>
    <linearGradient id="e" x1="944" x2="944" y1="849.9" y2="268.4" xlink:href="#a"/>
  </defs>
  <ellipse cx="176" cy="807.9" fill="#6c63ff" opacity=".1" rx="176" ry="30"/>
  <ellipse cx="847.5" cy="800.8" fill="#6c63ff" opacity=".1" rx="176" ry="30"/>
  <path fill="#6c63ff" d="M274.4.5C228.4 2.9 182 16.4 146 45.3c-31.4 25.3-54.2 65.2-48.6 105.2 6.5 47.3 48.7 81.7 64.4 126.8 10 29 8.5 61 1.9 91-4.3 19.4-10.8 38.7-23.3 54C117.8 450 77 463.2 66 497.1c-12 36.8 18.3 72.9 46.9 99 22.8 21 46.6 41.7 75.4 53.2 21 8.4 43.7 11.4 66.3 12.6a442.7 442.7 0 0 0 183-29.3c28-10.8 55-24.5 84.1-31 62.3-14 126.3 6 189.4 15.5a566.4 566.4 0 0 0 163.2.5c34-4.9 69.3-13.7 95-36.6 26-23.3 39-59.3 37.5-94.2s-16.2-68.5-37.9-95.9c-28-35.4-66.6-60.6-100.2-90.7a433.3 433.3 0 0 1-86.2-106.6c-13.2-23-24.4-47.4-41.5-67.7-26.7-31.5-65.4-50.3-104-64.8-89.2-33.4-181.7-40.2-274.6-55a420 420 0 0 0-88-5.6z" opacity=".1"/>
  <g opacity=".7">
    <path fill="#f6f7f9" d="M258.5 367.1h191v106.7h-191z"/>
    <circle cx="294.5" cy="414.5" r="19.9" fill="#6c63ff" opacity=".2"/>
    <path fill="#6c63ff" d="M338.6 390.9h86.6v5.5h-86.6zM338.6 404.8h44.1v5.5h-44.1zM338.6 418.7H410v5.5h-71.4zM338.6 432.6h86.6v5.5h-86.6zM401.3 452.6h24v10.5h-24z" opacity=".2"/>
    <path fill="#f6f7f9" d="M419.3 72.2h191v106.7h-191z"/>
    <circle cx="455.3" cy="119.6" r="19.9" fill="#6c63ff" opacity=".2"/>
    <path fill="#6c63ff" d="M499.4 96H586v5.5h-86.6zM499.4 109.9h44.1v5.5h-44.1zM499.4 123.8h71.4v5.5h-71.4zM499.4 137.7H586v5.5h-86.6zM562 157.7h24v10.5h-24z" opacity=".2"/>
    <path fill="#f6f7f9" d="M482.9 251.4h191v106.7h-191z"/>
    <circle cx="518.8" cy="298.7" r="19.9" fill="#6c63ff" opacity=".2"/>
    <path fill="#6c63ff" d="M563 275.2h86.6v5.5H563zM563 289.1h44.1v5.5H563zM563 303h71.4v5.5H563zM563 316.9h86.6v5.5H563zM625.6 336.9h24v10.5h-24z" opacity=".2"/>
  </g>
  <path fill="url(#a)" d="M191.9 135.7H513v181.4H191.9z"/>
  <path fill="#f6f7f9" d="M194.2 138h316.6v176.9H194.2z"/>
  <circle cx="253.8" cy="216.5" r="33" fill="#6c63ff" opacity=".2"/>
  <path fill="#6c63ff" d="M326.9 177.4h143.6v9H326.9zM326.9 200.5h73.2v9h-73.2zM326.9 223.5h118.3v9H326.9zM326.9 246.5h143.6v9H326.9z" opacity=".2"/>
  <path fill="#6c63ff" d="M430.8 279.8h39.7v17.5h-39.7z"/>
  <path fill="url(#b)" d="M417.1 380.8h305.4v170.7H417.1z"/>
  <path fill="#f6f7f9" d="M419.2 382h301.2v168.3H419.2z"/>
  <circle cx="475.9" cy="456.7" r="31.4" fill="#6c63ff" opacity=".2"/>
  <path fill="#6c63ff" d="M545.5 419.6h136.6v8.6H545.5zM545.5 441.5h69.6v8.6h-69.6zM545.5 463.4h112.6v8.6H545.5zM545.5 485.3h136.6v8.6H545.5z" opacity=".2"/>
  <path fill="#6c63ff" d="M644.4 516.9h37.8v16.6h-37.8z" opacity=".5"/>
  <path fill="url(#c)" d="M171.1 319l.8.2a1 1 0 0 0-.8-.2z" opacity=".1" transform="translate(-88.3 -31)"/>
  <path fill="url(#d)" d="M325.9 435.2c-2.3-14.9-15.7-49.5-15.7-49.5l-.8-3c-9.6-33-22.8-35.9-22.8-35.9l-47.5-10a3.5 3.5 0 0 1 1 .9h-.7a18.6 18.6 0 0 1-4.2-9l-.2-1.4a33.4 33.4 0 0 0-2.7-50.2l-1.6-1.1c2.3-2.4 2.4-5.7.7-9-3.8-7.8-11.9-12.7-20.2-15.1a34.3 34.3 0 0 0-19.7-.4c-3.6 1.1-6.9 3-10.2 4.7-6.3 3.2-13.3 5.7-18 10.9-1.1 1.2-2.2 2.7-1.8 4.3.2 1.2 1.1 2 1.8 3.2 1.3 2.3 1 5.3 0 7.9s-2.2 5-2.9 7.6-.4 5.7 1.6 7.6a34.4 34.4 0 0 0 3 2 15.3 15.3 0 0 1 2.8 3.2l5.6 7.6a77.6 77.6 0 0 1 7 10.7c1.4 2.8 2.5 5.7 4.4 8.2a12.8 12.8 0 0 0 1.9 2l-.6-.2a8.5 8.5 0 0 0 6.3 2.4h.3a1.7 1.7 0 0 0 1.1-.5v1c.1 3.7.1 7.5-.1 11.2l-.5-.2a3.8 3.8 0 0 0-4 .4l-43.8 35s-9.5 13-8.1 35.4l-7.7 33.6s-9.5 28.5-2.2 49 11.6 32 11.6 32 3 23 7.4 25l6.3 2.8 1 5.6.7 1.4c3.2 5.6 15.2 25.3 22 23.2a89.8 89.8 0 0 1 1.2 16.3l6.9 46s4.7 12.5 4.4 19 5.6 15.9 5.6 15.9a30.3 30.3 0 0 0-3 21.4c2.9 12.2 6.4 68.7 6.4 68.7l5.2 13.6-.2 16a15.3 15.3 0 0 1-3.1 7.1c-3.4 3.6-3.1 7.8-11 12.7s-13 6.8-13 13.3a17.3 17.3 0 0 1-.3 2.7c-.7 4.8-2.1 7.4 12.5 8.8 17.2 1.6 28.7-9.6 28.7-9.6s2.6-4.6 14.5-6.5c0 0 4-.2 4.3-3.8V824c-.3-5-.7-10.9-1.4-11.1-.8-.4-2.2-5.4-2.6-7.2h3.3s3-23.2 0-38.2-.3-25.6-.3-25.6l-.6-39.6s-4.2-4.2-.9-11.9 0-45.8 0-45.8 1.2-13.7 4.6-17 .1-20 0-20.9l6 20.2s2.6 40.2 8.2 47.5l1.6 18.2s11.5 16.7 9.3 25.8 2.4 41.6 2.4 41.6v33.3s-5.2 13.4 2 18.2l3.1-.1c-1 1-1.8 2.4-3 3.6-1.3 1.4-2.1 6.8-2.6 11.5l-.5 7.3s3.1 4.9 8.9 5.2 24.7 14.9 24.7 14.9 18.8 0 23.6-1l.3-.1a6.4 6.4 0 0 0 3.7-3 7.6 7.6 0 0 0 .9-5.5c-.6-2.9-2.9-6-8-8.7-12.5-6.7-14.4-12.9-14.4-12.9l-8.3-12.3h1.2s-.7-13.1 8.3-27.8l-.6-64.8s3.7-22.3-2.7-34.4c0 0-.5-12.8 3.7-16.7s-5.6-43.7-5.6-43.7-2-21.3-4.4-40.7c9.9 9.4 20.2-24.5 22-30.6h.2v-.4-.4s-2.2-7.9-.6-6.3 5.6-4.4 5.6-4.4-.5-32.4 6.4-48.8-3.1-56.1-3.1-56.1zm-29.6 20.6c1 19.8-.2 62-.2 62l-2.8 11.8-1-40.1-1-37.9zm-126.8-13.6s5 62.5 0 71.6A46.7 46.7 0 0 0 166 526c-1.6-4.3-5.1-14.5-3.9-19.9 1.6-7-3.2-25.3-3.2-25.8s-.5-10.1 3-17.6S163 452 163 452s3-12.2 6.5-9.8z" transform="translate(-88.3 -31)"/>
  <path fill="#efb7b9" d="M93.4 552c-4.3 19.2-21.6-9.8-25.6-16.8l-.8-1.4 1.9-8.8 10-4a27.4 27.4 0 0 1 4.4 2.9A26.7 26.7 0 0 1 93.4 552zM228 520.7l-.2.4-.1.5c-1.7 6-11.8 39.6-21.6 30.3-10.7-10.3-5.5-33.9-5.5-33.9h.1l22.5-2.3 4.5 4.6z"/>
  <path fill="#444053" d="M215 686.4l.5 64.3c-8.8 14.5-8 27.5-8 27.5l-29 1.2c-7.2-4.8-2-18-2-18v-33.1s-4.6-32.4-2.5-41.4-9-25.6-9-25.6l-1.6-18c-5.5-7.2-8.1-47.1-8.1-47.1l-6-20c.2.9 3.3 17.7 0 20.8s-4.4 16.7-4.4 16.7 3.2 37.9 0 45.5.8 12 .8 12l.6 39.3s-2.7 10.6.3 25.4 0 37.9 0 37.9h-31.2l.2-16-5.1-13.6s-3.5-56-6.2-68.2a30.4 30.4 0 0 1 2.9-21.2s-5.8-9.3-5.5-15.8-4.4-18.9-4.4-18.9l-6.7-45.6a88.5 88.5 0 0 0-3.4-26c-3.9-13-9.6-30-9.6-30l6.5.5 32.9 3s80-5.4 83.6-1a15 15 0 0 1 1.5 4.7c3.6 16.1 8.4 66.7 8.4 66.7s9.7 39.4 5.5 43.3-3.6 16.6-3.6 16.6c6.2 12 2.5 34 2.5 34z"/>
  <path fill="#b07473" d="M147.3 798.1c-.2 3.6-4.2 3.8-4.2 3.8-11.7 1.9-14.2 6.4-14.2 6.4s-11.3 11.2-28.2 9.6c-14.4-1.4-13-4-12.2-8.7a17 17 0 0 0 .2-2.7c0-6.5 5-8.3 12.8-13.2s7.6-9 10.8-12.6 3.6-10.5 3.6-10.5c3.7-6.4 13 1 13 1 .4 2.3 14.3 2 14.3 2s1.8 7.4 2.8 7.8a78.5 78.5 0 0 1 1.3 17z"/>
  <path d="M147.3 798.1c-.2 3.6-4.2 3.8-4.2 3.8-11.7 1.9-14.2 6.4-14.2 6.4s-11.3 11.2-28.2 9.6c-14.4-1.4-13-4-12.2-8.7 6.4 1.6 18.7 3.8 25.9 0l17.1-9.3 15.7-8c.2 2.6.2 5 0 6.2z" opacity=".1"/>
  <path fill="#b07473" d="M235.5 817.4a6.3 6.3 0 0 1-3.6 3 1.4 1.4 0 0 1-.3.1c-4.8 1-23.2 1-23.2 1s-18.7-14.5-24.3-14.8-8.6-5.2-8.6-5.2 0-3.4.4-7.3c.5-4.6 1.2-10 2.6-11.3 2.5-2.6 3-6.2 8.7-4 0 0 8-14 17.4-3.1l9.8 14.8s1.8 6.1 14.2 12.7c5 2.7 7.1 5.8 7.7 8.7a7.6 7.6 0 0 1-.8 5.4z"/>
  <path d="M235.5 817.4l-3.6 3a1.4 1.4 0 0 1-.3.1c-4.8 1-23.2 1-23.2 1s-18.7-14.5-24.3-14.8-8.6-5.2-8.6-5.2 0-3.4.4-7.3c5.8 1.8 14.5 4.8 16.8 8 3.6 5 14.4 12 14.4 12s20.2-2 29.2-2.3a7.6 7.6 0 0 1-.8 5.5z" opacity=".1"/>
  <path fill="#efb7b9" d="M156.7 313.3l-26.6 28.2s-32.3-2.4-26.7-12c2.9-4.8 3.3-15 3-23.8-.1-8.6-1-15.8-1-15.8s45.3-22.6 41.8-1.5a34.9 34.9 0 0 0-.1 12c2 10.6 9.6 12.9 9.6 12.9z"/>
  <path d="M147.2 288.4a34.9 34.9 0 0 0-.1 12 33.2 33.2 0 0 1-23.7 9.9c-6.2 0-12.8-5-17.7-8l-.3-12.4s45.2-22.6 41.8-1.5z" opacity=".1"/>
  <path fill="#efb7b9" d="M156.7 275.1a33.4 33.4 0 1 1-12.5-26 33.4 33.4 0 0 1 12.5 26z"/>
  <path d="M202.1 525.6c-8.3 19.8-61.7 20.2-61.7 20.2v-21.6l-3.3-.2c1.4 6.2-2 21.3-2 21.3-42.2 6-52.5-18.1-52.5-18.1l1.4-8.3 33 3s80-5.4 83.6-1a15 15 0 0 1 1.5 4.7z" opacity=".1"/>
  <path fill="#e1e7ef" d="M140.4 543.2v-21.6l-3.3-.2c1.4 6.2-2 21.3-2 21.3-31.8 4.4-45.5-8-50.3-14.5a19.6 19.6 0 0 1-2.2-3.6L95.5 452l3-106.9 4.6-18.7 1-9v-.1h.2l3.3 1.5 19.7 8.5 22.4-17 .4-.2 1-.8 2 1.5 4.5 3.7 14.7 95.1S198 483 202.7 512.4l.5 3.4c3.1 26.9-62.8 27.4-62.8 27.4z"/>
  <circle cx="129.7" cy="329.3" r="1.9" fill="#67647e"/>
  <circle cx="130.6" cy="346.6" r="1.9" fill="#67647e"/>
  <circle cx="132.5" cy="374.7" r="1.9" fill="#67647e"/>
  <circle cx="135.7" cy="404.9" r="1.9" fill="#67647e"/>
  <circle cx="137.5" cy="433.3" r="1.9" fill="#67647e"/>
  <circle cx="139.4" cy="463.6" r="1.9" fill="#67647e"/>
  <circle cx="138.7" cy="493.5" r="1.9" fill="#67647e"/>
  <path d="M105.5 462.5s-2 27.8-6 36-5.6 30.7-5.6 30.7l-9-1a19.6 19.6 0 0 1-2.2-3.6L95.6 452l3-106.8 4.6-18.8 1.1-9a.3.3 0 0 1 .1 0 3.6 3.6 0 0 1 3.2 0l.5.2-.4 1.2c-3.5 11-4.8 31.4-4.8 31.4s5 37.3 5.6 54.6-3 57.7-3 57.7z" opacity=".1"/>
  <path d="M83.3 523.8a6 6 0 0 1-.4.7c-3.5 6-12.4 9.7-15.1 10.7l-.8-1.4 1.9-8.8 10-4a27.4 27.4 0 0 1 4.4 2.8z" opacity=".1"/>
  <path fill="#67647e" d="M59.2 382l-8.2 5-7.5 33.3s-9.4 28.3-2.2 48.5l11.4 31.8s3 23 7.3 24.8 6.2 3 6.2 3l.8 5.4s11.8-4 16-11-3.1-24.5-3.1-24.5-6.2-14.9-4.6-21.8-3.2-25.2-3.2-25.6-.4-10.1 3-17.5 1.2-10.7 1.2-10.7L74 401.5z"/>
  <path d="M202.8 519.4s-21.8 8.2-28.8 1-6.2-41-6.2-41-6.6-62.4-10.8-72.7-2-84.2-2-84.2-2.8-9.6-5.3-12.1a2.5 2.5 0 0 0-.5-.4l.9.1 3 .7 4.5 3.7 14.8 95.1s25.5 73.3 30.3 102.8z" opacity=".1"/>
  <path d="M228 521.5h-.3c-2.7.4-27 3.3-27.1-1.7a15.6 15.6 0 0 1 .1-1.8l22.5-2.3 4.4 4.6.2.8z" opacity=".1"/>
  <path fill="#67647e" d="M204.7 348.6l16 8.3s13.2 34.3 15.4 49c0 0 9.8 39.5 3 55.8s-6.2 48.4-6.2 48.4-4 6-5.5 4.3.6 6.3.6 6.3-27.3 3.6-27.4-1.8 6.3-30.9 6.3-30.9 1.7-60.8-.8-70.4-1.4-69-1.4-69z"/>
  <path d="M157.1 413.3s-9 22-11.8 23.4.6 7.3.6 7.3 16.3-22.9 11.2-30.7zM151.8 336.3c.1-.4-10.7 10.6-13.6 12.2s10.5 0 13.6-12.2zM121.7 411.6s-16.4 10.7-14.3 14.9 14.3-15 14.3-15zM151.7 567s14 9 35.8 11.3zM118 588.7s13 16.3 19 16.8-19-16.8-19-16.8zM136.2 652.7c-.6.3-7.4 14.7-14.3 15.2s14.3-15.2 14.3-15.2zM196.5 684.3s12.8-2.8 15.7 6.4c0 0-.9-2.9-15.7-6.4zM187.8 737.2s15.6-3.2 18.9 1.2-19-1.2-19-1.2zM143.6 744.6c0 .1-15.9 3.2-15.2 5.2s16.9 1.7 17.5-1.5a3 3 0 0 0-2.3-3.7zM182.6 758.3s26-3.2 24.4 2.3-24.4-2.3-24.4-2.3zM46 436.7c0 .5 17.1 2.8 19.4 8.3 0 0-16.7-7.8-19.3-7.8M69.9 481.4s-14.2 4.4-13.2 11.2-1.4-3.1 13.2-11.2zM63.3 515.8s5.2-7.1 10-5.8-10 5.8-10 5.8zM144.2 249a8.3 8.3 0 0 1-1.7 1.3c-4.1 2.4-5.2 6-7.2 10.3-1.8 3.8-3.8 8-7.4 10.1-4.7 2.9-11 1.8-15.8 4.3a12.3 12.3 0 0 0-6.5 12 35.6 35.6 0 0 0 1.4 5.6 40 40 0 0 1 1.4 12 1.6 1.6 0 0 1 0 .4 33.4 33.4 0 1 1 35.8-56z" opacity=".1"/>
  <path fill="#585268" d="M143.3 239c-3.7-7.7-11.6-12.6-19.8-15-6.3-1.8-13.1-2.4-19.3-.4-3.5 1.1-6.8 3-10 4.7-6.3 3.2-13 5.6-17.7 10.8-1.1 1.2-2.1 2.7-1.8 4.3.2 1.2 1.2 2 1.8 3.1 1.3 2.4 1 5.3 0 7.9s-2.2 4.9-2.8 7.5-.4 5.7 1.5 7.6a35.1 35.1 0 0 0 3 2 15.7 15.7 0 0 1 2.7 3.2l5.5 7.5a76 76 0 0 1 7 10.6c1.3 2.8 2.4 5.7 4.2 8.1s4.7 4.4 7.7 4.2a1.5 1.5 0 0 0 1.2-.6 1.5 1.5 0 0 0 .2-.8 39.4 39.4 0 0 0-1.5-12 35.6 35.6 0 0 1-1.4-5.5 12.3 12.3 0 0 1 6.6-12.1c4.9-2.5 11-1.4 15.8-4.3 3.6-2.2 5.6-6.3 7.4-10.1 2-4.3 3-8 7.2-10.3s4.5-6.3 2.5-10.4z"/>
  <path d="M128.3 784.5s5.1 6.5 3.8 10.2-3.8-10.2-3.8-10.2zM197.4 800.8s1.1-8.8 5.7-8.8 4.8-.5 8.2.8 6.8 3.4 5.7 3.7-6-5-11-2.2a36.4 36.4 0 0 0-8.6 6.5zM113.1 338.2l14.3-10s-21-12.4-23.5-10.7-4.2 17.4-4.2 17.4z" opacity=".1"/>
  <path fill="#e1e7ef" d="M113 337.5l14.3-10.2s-20.9-12.4-23.4-10.7-4.2 18.2-4.2 18.2z"/>
  <path fill="#67647e" d="M106.3 316.8l-.4-.3a3.7 3.7 0 0 0-4 .5L59 351.7s-9.3 13-8 35.2l25.3 35.8s2.9-12.1 6.3-9.8c0 0 5 62.1 0 71s-7 42.5-7 42.5l16.6 2s1.7-22.8 5.6-30.9 6-35.8 6-35.8 3.5-40.4 3-57.8-5.7-54.6-5.7-54.6 1.4-21.8 5.2-32.5z"/>
  <path d="M149 331.8l-17.8-6.6s22.7-24.8 25.5-11z" opacity=".1"/>
  <path fill="#e1e7ef" d="M149 331l-17.8-6.7s22.7-24.8 25.5-11z"/>
  <path d="M148.4 309.8a1 1 0 0 1 .8.2z" opacity=".1"/>
  <path fill="#67647e" d="M150.2 308l47.3 10.3s13 2.9 22.4 35.5-13 72.6-13 72.6l-4.8-4.1 2.4 95.3s-21.8 8.3-28.7 1-6.2-41-6.2-41-6.7-62.4-10.9-72.7-2-84.2-2-84.2-3.9-13.2-6.5-12.6z"/>
  <path d="M193.4 368.8a270 270 0 0 0 1.5 51.5 280.1 280.1 0 0 0 8.2 39.5l-4.3-88s-3.4-4.9-5.4-3zM187.6 344c1.2.7 6.3 12.7 4 17.6s-4-17.6-4-17.6zM143 239a26 26 0 0 0-10.4-10.9 24.7 24.7 0 0 1 7.8 9.2c2 4 1.4 8.1-2.5 10.4s-5.2 6-7.2 10.3c-1.8 3.8-3.8 8-7.4 10.1-4.7 2.9-11 1.8-15.8 4.3a12.3 12.3 0 0 0-6.6 12 34.5 34.5 0 0 0 1.4 5.6 39.3 39.3 0 0 1 1.5 12 1.5 1.5 0 0 1-.1.8 1.5 1.5 0 0 1-1.3.6 7 7 0 0 1-3.5-.7 8.3 8.3 0 0 0 6.1 2.4 1.5 1.5 0 0 0 1.3-.6 1.6 1.6 0 0 0 .1-.8 39.7 39.7 0 0 0-1.5-12 34.5 34.5 0 0 1-1.4-5.5 12.3 12.3 0 0 1 6.6-12c4.9-2.5 11-1.5 15.8-4.3 3.6-2.2 5.6-6.3 7.4-10.2 2-4.2 3-7.9 7.2-10.3s4.5-6.3 2.5-10.4z" opacity=".1"/>
  <ellipse cx="968.2" cy="761.7" fill="#6c63ff" opacity=".1" rx="41" ry="5.6"/>
  <ellipse cx="646.8" cy="814.6" fill="#6c63ff" opacity=".1" rx="29.1" ry="4"/>
  <ellipse cx="386.1" cy="784.9" fill="#6c63ff" opacity=".1" rx="29.1" ry="4"/>
  <path fill="#6c63ff" d="M402.1 775.8a11.6 11.6 0 0 0 3.9-5.8c.5-2.3-.5-5-2.7-5.9-2.5-1-5.1.8-7.1 2.5s-4.3 3.7-6.9 3.3a10.5 10.5 0 0 0 3.3-9.8 4.2 4.2 0 0 0-1-2c-1.3-1.4-3.8-.8-5.4.4-5.2 3.6-6.7 10.7-6.7 17-.5-2.3 0-4.7-.1-7s-.7-5-2.6-6.2a8 8 0 0 0-4-1c-2.4 0-5 .2-6.6 1.9-2 2-1.4 5.6.3 8s4.3 3.8 6.8 5.4a15 15 0 0 1 4.8 4.6 4.2 4.2 0 0 1 .3.8h14.7a41.2 41.2 0 0 0 9-6.2zM984.9 754.7a11.7 11.7 0 0 0 3.8-5.8c.5-2.3-.5-5-2.7-5.9-2.4-1-5 .8-7 2.5s-4.3 3.7-7 3.3a10.4 10.4 0 0 0 3.3-9.8 4 4 0 0 0-.9-2c-1.3-1.4-3.8-.8-5.4.4-5.2 3.6-6.7 10.7-6.7 17-.6-2.3-.1-4.7-.1-7s-.7-5-2.7-6.2a8 8 0 0 0-4-1c-2.3 0-5 .2-6.5 1.9-2 2-1.5 5.6.3 8s4.3 3.8 6.7 5.4a15 15 0 0 1 4.9 4.6 4.8 4.8 0 0 1 .3.8H976a41 41 0 0 0 9-6.2zM654.7 801.5a11.7 11.7 0 0 0 3.9-5.8c.5-2.3-.5-5-2.7-6-2.5-.9-5.1.8-7 2.6s-4.4 3.7-7 3.3a10.5 10.5 0 0 0 3.3-9.8 4.1 4.1 0 0 0-1-2c-1.3-1.5-3.8-.8-5.4.3-5.2 3.7-6.7 10.7-6.7 17-.5-2.2 0-4.6 0-7s-.7-5-2.7-6.1a8 8 0 0 0-4-1c-2.4-.1-5 .1-6.6 1.8-2 2.2-1.4 5.7.3 8s4.3 3.8 6.8 5.4a15 15 0 0 1 4.8 4.7 5 5 0 0 1 .4.8h14.6a40.7 40.7 0 0 0 9-6.2z"/>
  <path fill="url(#e)" d="M1036.9 376.2c-13.2-.2-24.7-9.5-31.3-20.8a21 21 0 0 1-3.2-9 10.5 10.5 0 0 1 .4-2 21 21 0 0 0 1-3.3 5.5 5.5 0 0 0 0-1.4c.3-2.4-1.1-4.8-2.9-6.4s-4-3-5.8-4.5c-5.6-5-7.3-13-7.4-20.5v-.4l.3-9.7a40.6 40.6 0 0 0-.3-5.5c-.5-4.6-2.3-9.2-5.9-12.2-9.3-7.6-25.1.3-34.8-6.9-2.4-1.7-4.3-4.3-7.2-5-2.2-.5-4.4.2-6.5 1-7.2 2.3-15.1 5.4-18 12.4-1.6 4-1.1 8.4-2.6 12.5-1 2.7-2.7 5-4 7.5a11.8 11.8 0 0 0-1.6 6.3 7.3 7.3 0 0 0 .5 3.4 8.5 8.5 0 0 0 2.3 3.3 11 11 0 0 1-1.4 2.2c-1.8 2.3-4.6 3.9-6.5 6-3.6 4.1-3.4 9.7-1.7 14.5s4.9 9.1 7 13.8c1 2 1.7 4.3.7 6.3-.6 1.4-2 2.5-3.1 3.7a11.6 11.6 0 0 0-2.9 6.4c-21.4 4.9-21.4 22.1-21.4 22.1L869 419.1s-1.9 5-4 11.4l-13.7-2.4 9.5 15.9a50 50 0 0 0-2.7 15.5s-4.3 20 3.3 23.5l16.7 7.5a9.2 9.2 0 0 0 2.3 1l.7.3a1.8 1.8 0 0 0 1.6 0h.2a2.1 2.1 0 0 0 1-.1 1.8 1.8 0 0 0 .9-1l5-1.5 4.2 5c2 1.4 3.8 2.6 5.6 3.6l-6.5 65.2s-1 86.7-4.3 106.4a54.8 54.8 0 0 0-.7 15.7l-.1.2c.8 5.6 2.8 6.7 2.8 6.7v-.1h.1a56.5 56.5 0 0 1 3.5-7.3v1.4c-.1 7.4-.3 17.7-1 24.4-1.3 11.3 3.3 49 3.3 49l1.6 34.3a31.7 31.7 0 0 1-4 16.7 79 79 0 0 0-9 20.8 5.6 5.6 0 0 0 0 .7l-8.3 9.7s-3.2 5 4 7c3.9 1 10.6 0 16-1.3a10.6 10.6 0 0 0 8.2-10.4A36.6 36.6 0 0 1 912 824l1.4 7.9 9 2.2 1.1-21.6a9.5 9.5 0 0 0 .6-3.8c1.8-15.4-4.2-14-4.2-14a1 1 0 0 1 .3.5 9 9 0 0 1-.3-.5c-3.6-7.2-1.8-19-1.8-19s4.7-34.3 6.4-43.4c1.2-6.3.7-27.3.3-39v-1.4c13.9-.2 31-.7 43-1.8v1.4l-2.3 81a44.5 44.5 0 0 1-3 15l-.2.3a65.7 65.7 0 0 0-4.5 21.2l-1 25.7v.7c-1.8.7-4.6 2.7-4.7 8.5 0 8.5 14.8 5.6 14.8 5.6 14.9 0 15-15.5 15-15.5s.5-14.2 1.2-23.7-2.3-7.4-2.3-7.4l-.2 27v.2-23.7l.3-3.4v-.9l1.9-27.9s13.7-46.5 15.8-55.4c1.5-6.3.9-25.4.4-36v-1.4c4.2-.4 8-.4 9.4-.4h.7s-.7-74.7-2.5-102.9-4.6-53.9-11.7-61.6c-4.3-4.7-10.2-19.2-14.3-29.9a150.2 150.2 0 0 0 26.3 8.6c22.4 4.7 19.4-14.8 19.4-14.8l-2.3-36.8h.1a187.3 187.3 0 0 0-2.4-28.9c-1.2-7.3-3-14.8-5.8-21l7.2-3c6-2.7 13-6.5 13.8-13h-.3a9.2 9.2 0 0 0 .3-1.5zm-139.3 53.4c.1 3.8 0 10.4-.3 17.7l-7.1-9.5 7.2-11.6zm95.6 19.3zm3 14.4l-11.9-3.8a53.6 53.6 0 0 1 7.4-9.1l1-1h-.4l.6-.5h.3l-.5.5.6-.1a20.3 20.3 0 0 0 4 8.1c4.3 4.7-1.1 5.9-1.1 5.9z" transform="translate(-88.3 -31)"/>
  <path fill="#a27772" d="M835.7 775l-1.4 26.3-8.8-2.2-1.9-11 12.1-13.1z"/>
  <path d="M835.7 775l-1.4 26.3-8.8-2.2-1.9-11 12.1-13.1z" opacity=".1"/>
  <path fill="#cc818c" d="M868.2 804.8l13.6 2.8 10-8.9v-25l.2-3.3V769.6l1.8-27.8s13.6-46.1 15.7-55c1.5-6.2.8-25.2.4-35.7l-.4-7.2-29.9-7.2-.6 23-2.2 80.4a44.4 44.4 0 0 1-3 15l-.1.2a65.3 65.3 0 0 0-4.4 21.1l-1 25.6v.7z"/>
  <path d="M892 769.6v.7-.7zM868.2 804.8l13.6 2.8 10-8.9v-2a2.8 2.8 0 0 1-1.5 2.2h-.1a26.9 26.9 0 0 1-15.2 3l-5.3-.4a5.5 5.5 0 0 0-1.4.4v.7z" opacity=".1"/>
  <path fill="#b07473" d="M890.2 799.7l.1-.1a2.8 2.8 0 0 0 1.5-2.5l.2-26.8s3-2.1 2.2 7.3-1.1 23.6-1.1 23.6-.1 15.4-14.8 15.4c0 0-14.7 2.8-14.6-5.6s6-8.8 6-8.8l5.3.5a27 27 0 0 0 15.2-3z"/>
  <path fill="#cc818c" d="M797.8 799c.4 6.1 18.2 2.6 18.2 2.6l12-23.3s10-7.7 5-14.4a10.3 10.3 0 0 1-.7-1.2l-.3-.6c-3.6-7.1-1.9-18.8-1.9-18.8s4.7-34 6.3-43c1.2-6.4.7-27.2.3-38.8l-.3-8.1-29.6-8v8.9c0 7.3-.3 17.5-1 24.2-1.3 11.3 3.3 48.7 3.3 48.7l1.6 34a31.6 31.6 0 0 1-4 16.6 79.6 79.6 0 0 0-8.9 20.6 4 4 0 0 0 0 .7z"/>
  <path d="M797.8 799c.4 6.1 18.2 2.6 18.2 2.6l12-23.3s10-7.7 5-14.4a10.3 10.3 0 0 1-.7-1.2c-.2 3.5-4 12.4-4 12.4s-10 19.8-13 24.3-16.9-.8-17.4-1a4 4 0 0 0 0 .7z" opacity=".1"/>
  <path fill="#b07473" d="M832 762s5.8-1.3 4 14a9.8 9.8 0 0 1-4.6 8.7 33.4 33.4 0 0 0-14 19.4 10.6 10.6 0 0 1-8 10.3 38.2 38.2 0 0 1-15.8 1.2c-7-2-4-6.9-4-6.9l8.2-9.6s14.2 5.6 17.4 1 13-24.4 13-24.4 5.5-12.3 3.8-13.6z"/>
  <path d="M879.7 639.5l-.7 23c8-.8 13.7-1.9 14.7-3.4 2-3.2 9.7-4.6 16.2-5.2l-.4-7.1zM806.8 657a11 11 0 0 1 3.3-3.9c3.1-1.7 2.8 11.2 2.8 11.2s10.4.1 23.8 0l-.3-8.2-29.6-7.9v8.9z" opacity=".1"/>
  <path fill="#444053" d="M803.4 660.1s3.5-9.4 6.7-11.2 2.8 11.2 2.8 11.2 77 .7 80.8-5.2 26.2-5.6 26.2-5.6-.7-74.2-2.5-102.1-4.5-53.6-11.5-61.3c-4.5-5-11-21-15-31.8l-3.5-10.1-73.5 4.2-.6 6-7.8 78s-1 86-4.2 105.5 2.1 22.4 2.1 22.4z"/>
  <g opacity=".1">
    <path d="M887.7 655c3.9-6 26.3-5.7 26.3-5.7s-.7-74.1-2.5-102.1S907 493.7 900 486c-4.6-5-11-21-15-31.8-1.8-5-3-8.8-3.5-9.9l5.7-.3 3.6 10.2c4 10.7 10.5 26.8 15 31.8 7 7.7 9.8 33.2 11.5 61.2s2.4 102 2.4 102-22.4-.3-26.2 5.7c-3.3 5.1-59.9 5.3-76.3 5.3 21-.1 67.5-.7 70.5-5.3zM804.1 649c1.4-.9 2.1 1.3 2.5 4a56.6 56.6 0 0 0-3.3 7s-2-1-2.8-6.5c1-2 2.4-3.9 3.6-4.6z"/>
  </g>
  <path fill="#585268" d="M826.1 264.6c-5 7 0 16.8-5.4 23.5-1.8 2.2-4.6 3.8-6.4 6-3.5 4-3.4 9.6-1.7 14.3s4.8 9.1 7 13.8c.9 2 1.6 4.3.7 6.3-.7 1.3-2 2.4-3.1 3.6-3.6 4-3.7 9.3-1.8 14s5.5 8.5 9 12.4c1.4 1.6 3.2 3.2 5.5 3.2a7.8 7.8 0 0 0 3.5-1.1 36.4 36.4 0 0 0 17.6-20.7 36.8 36.8 0 0 0-1.5-25.3c-3-7.1-8-13.9-8-21.4 0-5.9 3-11.6 3.6-17.5.7-7.1-3.6-18.5-12.2-21.7.6 4.7-4.2 7-6.8 10.6z"/>
  <path d="M826.1 264.6c-5 7 0 16.8-5.4 23.5-1.8 2.2-4.6 3.8-6.4 6-3.5 4-3.4 9.6-1.7 14.3s4.8 9.1 7 13.8c.9 2 1.6 4.3.7 6.3-.7 1.3-2 2.4-3.1 3.6-3.6 4-3.7 9.3-1.8 14s5.5 8.5 9 12.4c1.4 1.6 3.2 3.2 5.5 3.2a7.8 7.8 0 0 0 3.5-1.1 36.4 36.4 0 0 0 17.6-20.7 36.8 36.8 0 0 0-1.5-25.3c-3-7.1-8-13.9-8-21.4 0-5.9 3-11.6 3.6-17.5.7-7.1-3.6-18.5-12.2-21.7.6 4.7-4.2 7-6.8 10.6zM882.5 516.7c-10.2.5-19.8 5-28.7 9.9s-17.5 10.6-27 14M876.2 540.7a42 42 0 0 0-26.5 12.8c-2.4 2.6-4.6 5.6-7.2 8.1a32 32 0 0 1-14.1 8M878.3 559a46.2 46.2 0 0 0-21.3 12.7l-4.5 5.2c-8.5 9-20.4 13.8-31.8 18.4" opacity=".1"/>
  <path fill="#cc818c" d="M877.4 305.8a209.6 209.6 0 0 0 2 24.3c1 5.8 2.4 10.9 4.3 13.2 5.6 6.6-27.3 15.5-27.3 15.5l-19.4-15s15.4-14.1 8.2-28 32.2-10 32.2-10z"/>
  <path d="M813.3 454.1H891l-3.6-10.1-73.5 4.2z" opacity=".1"/>
  <path fill="#67647e" d="M808.3 452.7h83c-2.3-8.3 0-16 3.4-22a48.6 48.6 0 0 1 8.6-11.3l.6-.5 29-6.4 1.6-.3s.2-52.7-18.4-60-29.9-17-29.9-17l-25.6 8-19-9.6c-6 6.5-22 4-22 4-26.4 3-26.4 22.9-26.4 22.9s15.4 35.9 16.5 35.9-1.4 56.3-1.4 56.3z"/>
  <path d="M837 419.2s-17-3.7-22.7-10.3M922.3 399.6l-19.6 16a32.6 32.6 0 0 0 .7 3.8l.6-.5 29-6.4zM869.2 447.1s4.3 2.4 10.9 5.6h11.2c-2.3-8.3 0-16 3.4-22l-20-6.4c6.8 6.3-5.5 22.8-5.5 22.8z" opacity=".1"/>
  <path fill="#67647e" d="M804.8 354.1l-11.6 6.3-11.5 28.9S769.8 421 771 429.4c0 0-4.2 19.8 3.3 23.3l19.4 8.8a1.8 1.8 0 0 0 2.4-2.5c-2.8-5.2-5.8-13.4-1-18l-5.6-11.6 20.2-33.1 6.8-11.4z"/>
  <path d="M830.7 412.6c1 4.1 4.4 10.4 15.7 12.8l12.5 10.2 13.1 6 5.4 2.4 2.3-16.4-5.2-2.9-6-3.2s-13.6-24.7-35.1-14.3a4.8 4.8 0 0 0-2.7 5.4z" opacity=".1"/>
  <path fill="#cc818c" d="M831.4 411.2c1 4.1 4.5 10.4 15.7 12.8l12.5 10.2 13.1 6 5.4 2.4 2.3-16.4-5.2-2.8-6-3.3s-13.6-24.7-35.1-14.3a4.8 4.8 0 0 0-2.7 5.4z"/>
  <circle cx="855.7" cy="297.1" r="30.1" opacity=".1"/>
  <circle cx="855.7" cy="296.4" r="30.1" fill="#cc818c"/>
  <path d="M874.3 360.7l-9-17.6s13.3-5.4 14.2-11.6 12.7 7.3 10.2 11.8-15.4 17.4-15.4 17.4z" opacity=".1"/>
  <path fill="#67647e" d="M874.3 359.3l-9-17.6s13.3-5.4 14.2-11.6 12.7 7.3 10.2 11.7-15.4 17.4-15.4 17.4z"/>
  <path fill="#f6f8fb" d="M800.3 404.7l50 67.1s-18.4 10-43.8-7.9l-11-13-31.3-52.7z"/>
  <path fill="#cc818c" d="M790.5 441.2l4.5-.1s27.8-27 34.6-13.4-17.3 26.4-17.3 26.4l-7.3 4-9.6 2.8-6.1-8.2z"/>
  <path d="M797.2 455.8c.4 1.5.8 3.2.1 4.7a1.8 1.8 0 0 1-.8.9 2 2 0 0 1-1 .1 9.6 9.6 0 0 1-6.3-3.1 28.3 28.3 0 0 1-4-5.9c-1.3-2.1-2.6-4.5-2.1-7 .4-2.7 2.8-4.5 5.1-6 4.6-3 4.7.5 5.8 4.4z" opacity=".1"/>
  <path fill="#67647e" d="M796.5 455.8c.4 1.5.8 3.2.1 4.7a1.8 1.8 0 0 1-.8.9 2 2 0 0 1-1 .1 9.6 9.6 0 0 1-6.3-3.1 28.3 28.3 0 0 1-4-5.9c-1.3-2.1-2.6-4.5-2.1-7 .4-2.7 2.8-4.5 5.1-6 4.6-3 4.7.5 5.8 4.4z"/>
  <path d="M809.7 396.3l2.3-3.9-2 7.3-.3-3.4zM872.7 440.2l5.4 2.4 2.3-16.5-5.2-2.8c3.5 4 .4 11.6-2.5 16.9zM894.2 421s-17.3 1.1-24.6-3.6" opacity=".1"/>
  <g opacity=".1">
    <path d="M892 432.1a48.8 48.8 0 0 1 8.8-11.3 24 24 0 0 1 2.6-1.4l27-5.5 1.5-.3s.2-52.7-18.4-60a112.7 112.7 0 0 1-29.1-16.4l2-.6s11.2 9.8 29.9 17 18.4 60 18.4 60H932l-27.6 5.2-1.6 1.5A53.3 53.3 0 0 0 894 432a29.3 29.3 0 0 0-2.3 22.1h-2.9c-2.3-8.3.1-16 3.4-22zM818.4 339.1l1.3-.2a49.2 49.2 0 0 0 5.7.5 51.5 51.5 0 0 1-7-.3zM858 344.5l-17.1-8.6a9.6 9.6 0 0 0 1-.9l17.8 9z"/>
  </g>
  <path fill="#67647e" d="M923 398.2l11.5 14 2.3 38s3 19.3-19.1 14.7-47.8-19.2-47.8-19.2 12.3-16.5 5.6-22.8l31.7 10.2s5.3-1.1 1.1-5.8-4.9-13-4.9-13z"/>
  <path d="M928.2 438.3l6.3 7.2a9 9 0 0 1-6.3-7.2zM917.4 437.1l9.8 12.6-4.9 1.2-4.9-13.8zM819.8 282.6c-1-2.6-.3-5.7 1-8.2s3-4.8 4-7.5c1.4-4 1-8.5 2.6-12.4 2.7-7 10.6-10 17.7-12.4a12 12 0 0 1 6.4-.9c2.8.7 4.7 3.3 7 5 9.6 7.2 25.2-.7 34.4 6.9 3.6 2.9 5.3 7.5 5.8 12s0 9.2 0 13.8c-.2 8 1.3 16.8 7.3 22 1.8 1.7 4 2.9 5.7 4.5s3.2 4 2.9 6.4a21.7 21.7 0 0 1-1 3.2c-1.2 4.2.5 8.6 2.7 12.4 6.5 11.2 17.9 20.4 30.9 20.7-1 6.5-7.7 10.3-13.7 13-7.7 3.4-15.7 6.8-24.1 6.3s-17.1-5.8-18.6-14c-.5-2.8-.5-6.3-3-7.8-1.4-.9-3.3-.6-5-1.3-2.2-1-3.4-3.5-4.2-6a53.6 53.6 0 0 1-2.4-15.2c-.1-6.1.7-12.8-2.8-17.9-3.2-4.6-9-7-12.7-11.3-3.4-4-7.1-8.8-12.7-9.5-7.6-1.1-23.6 9.4-28.2-1.8z" opacity=".1"/>
  <path fill="#585268" d="M819.8 281.2c-1-2.6-.3-5.7 1-8.2s3-4.8 4-7.5c1.4-4 1-8.5 2.6-12.4 2.7-7 10.6-10 17.7-12.4a12 12 0 0 1 6.4-.9c2.8.7 4.7 3.3 7 5 9.6 7.2 25.2-.7 34.4 6.9 3.6 2.9 5.3 7.5 5.8 12s0 9.2 0 13.8c-.2 8 1.3 16.8 7.3 22 1.8 1.7 4 2.9 5.7 4.5s3.2 4 2.9 6.4a22.2 22.2 0 0 1-1 3.2c-1.2 4.2.5 8.7 2.7 12.4 6.5 11.2 17.9 20.4 30.9 20.7-1 6.5-7.7 10.3-13.7 13-7.7 3.4-15.7 6.8-24.1 6.3s-17.1-5.8-18.6-14c-.5-2.8-.5-6.3-3-7.8-1.4-1-3.3-.7-5-1.4-2.2-1-3.4-3.5-4.2-5.9a53.6 53.6 0 0 1-2.4-15.2c-.1-6.2.7-12.9-2.8-18-3.2-4.6-9-7-12.7-11.3-3.4-4-7.1-8.7-12.7-9.5-7.6-1-23.6 9.5-28.2-1.7z"/>
  <path d="M841.1 358.5l17.2-14s-11.7-6.4-13.2-11.9-10.8 2.6-9.9 7.5 6 18.4 6 18.4z" opacity=".1"/>
  <path fill="#67647e" d="M841.8 356.4l17.3-14s-11.8-6.4-13.3-11.9-10.8 2.6-9.8 7.5 5.8 18.4 5.8 18.4z"/>
  <circle cx="859.7" cy="354.1" r="1.4" opacity=".1"/>
  <circle cx="859.7" cy="361.7" r="1.4" opacity=".1"/>
  <circle cx="859.7" cy="369.3" r="1.4" opacity=".1"/>
  <g opacity=".1">
    <path d="M826.7 261.8c1.4-3.8 1.1-8 2.4-11.8a13.6 13.6 0 0 0-1.5 2.7c-1.6 4-1.1 8.5-2.6 12.4v.3a22.1 22.1 0 0 0 1.7-3.6zM935.5 356c-7.7 3.4-15.7 6.7-24.1 6.3s-17.1-5.8-18.6-14c-.5-2.9-.4-6.3-2.9-7.8-1.5-1-3.4-.7-5-1.4-2.3-1-3.5-3.5-4.2-6a53.6 53.6 0 0 1-2.5-15.2c-.1-6.1.7-12.8-2.8-17.8-3.2-4.7-9-7-12.6-11.4-3.4-4-7.2-8.8-12.8-9.5-7.7-1-23.8 9.5-28.3-1.8a8.8 8.8 0 0 1 .3-6.5l-1 1.7c-1.3 2.5-2.1 5.6-1 8.2 4.6 11.3 20.7.7 28.4 1.8 5.6.7 9.3 5.5 12.7 9.5 3.7 4.3 9.5 6.7 12.7 11.3 3.5 5 2.7 11.8 2.8 18a53.4 53.4 0 0 0 2.4 15.2c.8 2.4 2 5 4.2 5.9 1.6.7 3.6.5 5 1.4 2.5 1.4 2.4 5 3 7.7 1.4 8.3 10.2 13.7 18.5 14s16.5-2.8 24.2-6.2c5.5-2.5 11.6-6 13.3-11.5a28.7 28.7 0 0 1-11.7 8z"/>
  </g>
</svg>
