<svg xmlns="http://www.w3.org/2000/svg" xmlns:xlink="http://www.w3.org/1999/xlink" version="1.1" x="0px" y="0px" viewBox="0 0 128 160" style="enable-background:new 0 0 128 128;" xml:space="preserve"><g><path d="M82.7,72.9c-2.9-2.9-6.8-4.5-11-4.5c-4.1,0-8,1.6-11,4.5c-6,6-6,15.9,0,21.9c2.9,2.9,6.8,4.5,10.9,4.5c3.5,0,7-1.2,9.7-3.4   c0.4-0.4,0.9-0.7,1.3-1.1s0.8-0.8,1.1-1.2C88.7,87.4,88.3,78.5,82.7,72.9z M82.6,92.7c-0.3,0.4-0.6,0.8-1,1.1   c-0.4,0.4-0.7,0.7-1.1,1c-2.5,2-5.6,3.1-8.8,3.1c-3.7,0-7.3-1.5-9.9-4.1c-5.5-5.5-5.5-14.4,0-19.8c2.6-2.6,6.2-4.1,9.9-4.1   c3.7,0,7.3,1.5,9.9,4.1C86.7,79,87.1,87.1,82.6,92.7z"/><path d="M87.8,95.8c0.2-0.2,0.4-0.5,0.5-0.7c0,0,0,0,0.1,0H105c12.4,0,22.5-10.1,22.5-22.5S117.4,50.1,105,50.1   c-3.1,0-6,0.6-8.8,1.8c-0.6-11.8-10.4-21.3-22.4-21.3c-10.6,0-19.7,7.3-21.9,17.6c-3-2.5-6.9-4-10.9-4c-9.2,0-16.7,7.2-17.1,16.3   H21c-8.1,0-15.2,5.8-16.9,13.8L4,75c-0.2,0.9-0.2,1.9-0.2,2.9c0,9.5,7.7,17.2,17.2,17.2h34.1c0.7,1,1.5,2,2.4,2.9   c3.9,3.9,9,5.9,14.2,5.9c4.2,0,8.4-1.3,12-4l16.7,19.8c0.5,0.6,1.2,1,2,1h0.1c0.7,0,1.5-0.3,2-0.8l3.2-3.2c0.6-0.6,0.8-1.3,0.8-2.1   c0-0.8-0.4-1.5-1-2L87.8,95.8z M21,93.6c-8.7,0-15.8-7.1-15.8-15.8c0-0.9,0.1-1.8,0.2-2.6l0.1-0.5c1.5-7.3,8-12.6,15.4-12.6h3.4   c0.1,0,0.2,0,0.3,0c0.4,0,0.7-0.3,0.7-0.7c0-8.6,7-15.6,15.6-15.6c6.2,0,11.8,3.6,14.3,9.3c0.2,0.4,0.6,0.5,1,0.4   c0.4-0.2,0.5-0.6,0.4-1c-0.9-1.9-2-3.6-3.5-5.1c1.8-10,10.4-17.3,20.7-17.3c11.6,0,21,9.4,21,21c0,2.2-0.4,4.5-1,6.6   c-0.1,0.4,0.1,0.8,0.5,0.9c0.1,0,0.2,0,0.2,0c0.3,0,0.6-0.2,0.7-0.5c0.7-2.1,1.1-4.4,1.1-6.6c2.8-1.3,5.7-1.9,8.8-1.9   c11.6,0,21,9.4,21,21s-9.4,21-21,21H89.2c0.4-0.8,0.8-1.6,1.2-2.5c0.9-2.3,1.4-4.8,1.4-7.4c0-1-0.1-1.9-0.2-2.8   c-0.2-1.4-0.5-2.8-1-4.1c-1-2.7-2.6-5.2-4.6-7.2c-3.8-3.8-8.8-5.9-14.2-5.9c-5.4,0-10.4,2.1-14.2,5.9c-2.1,2.1-3.6,4.5-4.6,7.2   c-0.5,1.3-0.8,2.7-1,4.1c-0.1,0.9-0.2,1.8-0.2,2.7l0,0c0,2.5,0.4,5,1.4,7.4c0.3,0.9,0.7,1.7,1.2,2.5H21V93.6z M58.6,97   c-1.8-1.8-3.2-4-4.2-6.4c-0.9-2.2-1.3-4.5-1.3-6.8c0-0.9,0.1-1.7,0.2-2.5c0.2-1.3,0.5-2.6,1-3.8c0.9-2.5,2.4-4.8,4.3-6.7   c3.5-3.5,8.2-5.4,13.1-5.4c5,0,9.6,1.9,13.1,5.4c1.9,1.9,3.4,4.2,4.3,6.7c0.5,1.2,0.8,2.5,1,3.8c0.1,0.8,0.2,1.7,0.2,2.5   c0,2.4-0.4,4.7-1.3,6.8c-0.7,1.8-1.6,3.4-2.8,4.9c-0.3,0.4-0.6,0.7-1,1.1c-0.1,0.1-0.2,0.3-0.4,0.4c-0.2,0.2-0.4,0.3-0.6,0.5   c-0.3,0.3-0.6,0.6-1,0.9C75.9,104.3,65.3,103.7,58.6,97z M106.6,115.6l-3.2,3.2c-0.3,0.3-0.6,0.4-1,0.4s-0.7-0.2-1-0.5L84.8,99   l0.1-0.1c0.3-0.3,0.6-0.6,1-0.9c0.3-0.3,0.6-0.6,0.9-1l0.1-0.1l19.7,16.7c0.3,0.2,0.5,0.6,0.5,1C107.1,115,106.9,115.3,106.6,115.6   z"/><path d="M24.2,41.1L24.2,41.1c0.1,0,0.1,0,0.1,0c4.5,0,8.7-1.7,11.9-4.9c1.8-1.8,3.1-3.9,4-6.2c0,0,0-0.1,0.1-0.1   c0.6-1.8,1-3.7,1-5.6c0.1-9.3-7.5-17-16.8-17l0,0h-0.1c-4.5,0-8.7,1.7-11.9,4.9s-5,7.4-5,11.9s1.7,8.8,4.9,12   C15.4,39.3,19.7,41.1,24.2,41.1z M10.1,30.3h6.8c0.7,3.8,1.9,6.9,3.6,8.8C15.8,38,12,34.7,10.1,30.3z M39.7,24.3   c0,1.6-0.3,3.2-0.8,4.7h-7.2c0.2-1.5,0.3-3.1,0.3-4.7s-0.1-3.2-0.3-4.7h7.2C39.5,21.1,39.7,22.7,39.7,24.3z M30.7,24.3   c0,1.6-0.1,3.2-0.3,4.7l-12.1-0.1c-0.2-1.5-0.3-3-0.3-4.7c0-1.6,0.1-3.2,0.3-4.7l12.1,0.1C30.6,21.1,30.7,22.7,30.7,24.3z    M16.7,28.9H9.5c-0.5-1.5-0.7-3.1-0.7-4.7c0-1.6,0.3-3.2,0.8-4.7h7.2c-0.2,1.5-0.3,3.1-0.3,4.7C16.4,25.8,16.5,27.4,16.7,28.9z    M24.2,39.7c-2.3,0-4.8-3.6-5.8-9.3l11.7,0.1c-0.4,1.8-0.9,3.5-1.5,5C27.4,38.1,25.8,39.7,24.2,39.7L24.2,39.7z M27.9,39.2   c0.7-0.8,1.4-1.9,2-3.2c0.7-1.6,1.3-3.5,1.7-5.6h6.8C36.5,34.8,32.6,38.1,27.9,39.2z M38.5,18.2h-6.8c-0.4-2.1-0.9-3.9-1.6-5.6   c-0.6-1.3-1.2-2.4-2-3.2C32.8,10.5,36.6,13.8,38.5,18.2z M24.4,8.8c1.6,0,3.1,1.6,4.3,4.3c0.6,1.5,1.1,3.1,1.4,5L18.5,18   c0.4-1.8,0.9-3.5,1.5-5C21.2,10.4,22.8,8.8,24.4,8.8L24.4,8.8z M20.7,9.2c-0.7,0.8-1.4,1.9-2,3.2C17.9,14.1,17.4,16,17,18h-6.8   C12.1,13.6,16,10.4,20.7,9.2z"/><path d="M55,20.5c0.4,0,0.7-0.3,0.7-0.7v-9.6c0-0.4-0.3-0.7-0.7-0.7s-0.7,0.3-0.7,0.7v9.6C54.2,20.1,54.6,20.5,55,20.5z"/><path d="M55,28.4c0.4,0,0.7-0.3,0.7-0.7v-3.4c0-0.4-0.3-0.7-0.7-0.7s-0.7,0.3-0.7,0.7v3.4C54.2,28,54.6,28.4,55,28.4z"/><path d="M111.5,34.4c0,2,1.6,3.7,3.7,3.7s3.7-1.6,3.7-3.7s-1.6-3.7-3.7-3.7S111.5,32.3,111.5,34.4z M117.3,34.4   c0,1.2-1,2.2-2.2,2.2s-2.2-1-2.2-2.2s1-2.2,2.2-2.2S117.3,33.1,117.3,34.4z"/><path d="M71.7,109.2c-2,0-3.7,1.6-3.7,3.7c0,2,1.6,3.7,3.7,3.7s3.7-1.6,3.7-3.7C75.4,110.9,73.7,109.2,71.7,109.2z M71.7,115.1   c-1.2,0-2.2-1-2.2-2.2s1-2.2,2.2-2.2s2.2,1,2.2,2.2C73.9,114.1,72.9,115.1,71.7,115.1z"/><path d="M36.8,109.2H24.9c-0.4,0-0.7,0.3-0.7,0.7c0,0.4,0.3,0.7,0.7,0.7h11.9c0.4,0,0.7-0.3,0.7-0.7   C37.6,109.6,37.2,109.2,36.8,109.2z"/><path d="M21,109.2h-3.9c-0.4,0-0.7,0.3-0.7,0.7c0,0.4,0.3,0.7,0.7,0.7H21c0.4,0,0.7-0.3,0.7-0.7C21.8,109.6,21.4,109.2,21,109.2z"/><path d="M17.2,106.6h8.3c0.4,0,0.7-0.3,0.7-0.7c0-0.4-0.3-0.7-0.7-0.7h-8.3c-0.4,0-0.7,0.3-0.7,0.7   C16.4,106.3,16.8,106.6,17.2,106.6z"/><path d="M31.7,106.6c0.4,0,0.7-0.3,0.7-0.7c0-0.4-0.3-0.7-0.7-0.7H29c-0.4,0-0.7,0.3-0.7,0.7c0,0.4,0.3,0.7,0.7,0.7H31.7z"/><path d="M99.6,12.9h11.9c0.4,0,0.7-0.3,0.7-0.7s-0.3-0.7-0.7-0.7H99.6c-0.4,0-0.7,0.3-0.7,0.7C98.9,12.6,99.2,12.9,99.6,12.9z"/><path d="M115.4,12.9h3.9c0.4,0,0.7-0.3,0.7-0.7s-0.3-0.7-0.7-0.7h-3.9c-0.4,0-0.7,0.3-0.7,0.7C114.7,12.6,115,12.9,115.4,12.9z"/><path d="M120,16.2c0-0.4-0.3-0.7-0.7-0.7H111c-0.4,0-0.7,0.3-0.7,0.7s0.3,0.7,0.7,0.7h8.3C119.7,17,120,16.6,120,16.2z"/><path d="M104.7,15.5c-0.4,0-0.7,0.3-0.7,0.7c0,0.4,0.3,0.7,0.7,0.7h2.7c0.4,0,0.7-0.3,0.7-0.7c0-0.4-0.3-0.7-0.7-0.7   C107.4,15.5,104.7,15.5,104.7,15.5z"/><path d="M1.8,46.2c-0.3-0.3-0.8-0.3-1,0c-0.3,0.3-0.3,0.8,0,1l1.5,1.5C2.4,48.9,2.6,49,2.8,49s0.4-0.1,0.5-0.2c0.3-0.3,0.3-0.8,0-1   L1.8,46.2z"/><path d="M7.2,53.8C7.4,53.9,7.6,54,7.7,54s0.4-0.1,0.5-0.2c0.3-0.3,0.3-0.8,0-1l-1.5-1.5c-0.3-0.3-0.8-0.3-1,0   c-0.3,0.3-0.3,0.8,0,1L7.2,53.8z"/><path d="M2.3,51.2l-1.5,1.5c-0.3,0.3-0.3,0.8,0,1C0.9,53.9,1,54,1.2,54s0.4-0.1,0.5-0.2l1.5-1.5c0.3-0.3,0.3-0.8,0-1   C3,50.9,2.5,50.9,2.3,51.2z"/><path d="M6.2,49c0.2,0,0.4-0.1,0.5-0.2l1.5-1.5c0.3-0.3,0.3-0.8,0-1c-0.3-0.3-0.8-0.3-1,0l-1.5,1.5c-0.3,0.3-0.3,0.8,0,1   C5.8,48.9,6,49,6.2,49z"/><path d="M116.5,99.4c-0.3-0.3-0.8-0.3-1,0c-0.3,0.3-0.3,0.8,0,1l1.5,1.5c0.1,0.1,0.3,0.2,0.5,0.2s0.4-0.1,0.5-0.2   c0.3-0.3,0.3-0.8,0-1L116.5,99.4z"/><path d="M121.5,104.4c-0.3-0.3-0.8-0.3-1,0c-0.3,0.3-0.3,0.8,0,1l1.5,1.5c0.1,0.1,0.3,0.2,0.5,0.2s0.4-0.1,0.5-0.2   c0.3-0.3,0.3-0.8,0-1L121.5,104.4z"/><path d="M117,104.4l-1.5,1.5c-0.3,0.3-0.3,0.8,0,1c0.1,0.1,0.3,0.2,0.5,0.2s0.4-0.1,0.5-0.2l1.5-1.5c0.3-0.3,0.3-0.8,0-1   C117.8,104.1,117.3,104.1,117,104.4z"/><path d="M122,99.4l-1.5,1.5c-0.3,0.3-0.3,0.8,0,1c0.1,0.1,0.3,0.2,0.5,0.2s0.4-0.1,0.5-0.2l1.5-1.5c0.3-0.3,0.3-0.8,0-1   C122.8,99.1,122.3,99.1,122,99.4z"/></g></svg>