<svg xmlns="http://www.w3.org/2000/svg" width="1076.1" height="755.2" data-name="Layer 1">
  <path fill="#3f3d56" d="M864.1 702.4c-7 26.6-31.4 43.2-31.4 43.2s-13.2-26.5-6.2-53 31.5-43.3 31.5-43.3 13.1 26.5 6.1 53.1z"/>
  <path fill="#6c63ff" d="M853.6 696.8c-19.6 19.3-21.8 48.8-21.8 48.8s29.5-1.8 49-21.1 21.8-48.9 21.8-48.9-29.5 1.9-49 21.2z"/>
  <path fill="#2f2e41" d="M144.7 601.8h36.9l90.8-35.5s64.4-26.3 59.2 23.7S317 707 317 707s-29-13-44.7-9.1-5.3-80.3-5.3-80.3-129 61.8-140.8 54-14.5-63.2-14.5-63.2z"/>
  <path d="M144.7 601.8h36.9l90.8-35.5s64.4-26.3 59.2 23.7S317 707 317 707s-29-13-44.7-9.1-5.3-80.3-5.3-80.3-129 61.8-140.8 54-14.5-63.2-14.5-63.2z" opacity=".1"/>
  <path fill="#a0616a" d="M202.8 486.4l44.6 64 104 87s96 22.3 82.8 38-93.4-15.7-93.4-15.7S221 572.9 217 566.3s-47.4-68.4-47.4-68.4z"/>
  <path d="M202.8 486.4l44.6 64 104 87s96 22.3 82.8 38-93.4-15.7-93.4-15.7S221 572.9 217 566.3s-47.4-68.4-47.4-68.4z" opacity=".1"/>
  <path fill="#d0cde1" d="M176.3 434.7l29 56.6s-6.6 27.6-17.1 30.2-55.3-34.2-55.3-34.2z"/>
  <path d="M176.3 434.7l29 56.6s-6.6 27.6-17.1 30.2-55.3-34.2-55.3-34.2z" opacity=".1"/>
  <path fill="#2f2e41" d="M529.5 572.5l8.5 35.3a2.2 2.2 0 0 1 0 1.2l-38.8 121.2a2.2 2.2 0 0 1-4.3-.4l-5.4-47.3a2.2 2.2 0 0 1 .1-.9l35.6-109.2a2.2 2.2 0 0 1 4.3.1z"/>
  <path fill="#f2f2f2" d="M526.3 575.5l7.9 30.3L500 716.3l-7.9-34.2 34.2-106.6z"/>
  <path fill="#2f2e41" d="M354 740c1.3 4 136.8-1.4 138.1-2.7a28.6 28.6 0 0 0 2.9-5.2l2.4-5.3-5.3-42.6-134.2-4.8s-3.4 36.1-4 52.7c-.2 4.1-.2 7 0 7.9z"/>
  <path d="M475 690l2.6 36.8h-59.2V690H475zM398.7 701.8l.3-.1-1.6 15.9h-32.9v-15.8h34.2zM354 740c1.3 4 136.8-1.4 138.1-2.7a28.6 28.6 0 0 0 2.9-5.2H353.8c-.1 4.1-.1 7 .1 7.9z" opacity=".1"/>
  <circle cx="196" cy="357.1" r="59.2" fill="#a0616a"/>
  <path fill="#a0616a" d="M192.1 409.7s-19.7 34.2-23.7 52.6-59.2-36.8-59.2-36.8l-7.2-19s52-24.4 48-44.2 42.1 47.4 42.1 47.4zM202.6 512.3l54 71 129 96.1s93.3 19.8 72.3 34.2-81.6-13.1-81.6-13.1-130.3-69.7-157.9-98.7-79-77.6-79-77.6z"/>
  <path fill="#2f2e41" d="M130.3 622.9l15.7 25 94.3-29.7a74 74 0 0 1 61.7 7.5c16.4 10.3 27 26.8 3.3 51.1-47.4 48.7-79 22.4-79 22.4s-159.2 75-185.5 38.1-27.6-55.2-27.6-55.2 101.3-63.2 117-59.2z"/>
  <path fill="#d0cde1" d="M327.6 709.7s42.1 27.6-7.9 40.8-86.8-5.3-86.8-5.3-43.4 0-43.4-22.3 14.4-25 14.4-25l44.8 6.5s54-14.4 79 5.3z"/>
  <path fill="#2f2e41" d="M244.6 342.2c4 1.8 8 3.9 12.4 4.4s9.4-1 11.5-4.9c1-2 1.2-4.6 1.3-7 .1-7.2-.4-15-5-20.6-2.9-3.5-7.1-5.8-10.2-9.2-2.1-2.5-3.6-5.5-5.1-8.5-5.9-11-14.6-21.6-26.6-24.7-5-1.4-10.4-1.3-15.6-1.2l-30.4.4c-4.9 0-9.9.2-14.6 1.6-9.8 3-16.9 11.2-23.4 19-4.9 6-9.8 11.9-13.5 18.6a65 65 0 0 0-7.7 31.9 29.8 29.8 0 0 0 1.1 8.4 46.8 46.8 0 0 0 3.3 7.3c5.7 11.2 9.1 25.2 2.7 36a69.1 69.1 0 0 0 29.5-20c3.3-4.4 6-9.4 10.3-12.5s11.5-3.4 14.4 1.2a12.9 12.9 0 0 1 1.4 6c.2 3.5.2 7 1.7 10.2s5 5.6 8.2 4.7c5.8-1.6 5.2-10.4 9.6-14.4 3.4-3 8.6-2.4 12.9-3.8 5-1.6 8.7-6 10.9-10.8 1.6-3.6 1.6-13.2 4.7-15.2 3.8-2.5 12.6 1.5 16.2 3z"/>
  <path fill="#d0cde1" d="M97.3 400.2a15.6 15.6 0 0 1 8.1 0c8.4 2.3 27.4 8.3 31.4 17.4 5.3 11.8 23.7 30.3 23.7 30.3s25 25 19.8 42-25 37-25 37 5.2 81.5-21 102.5-37 6.6-37 26.4S15.9 737.3 0 699.2c0 0 7.9-71 5.3-96-2.6-24.7 1.2-178.4 92-203z"/>
  <path fill="#d0cde1" d="M139.5 433.4s80.2 59.2 65.8 84.2c0 0-48.7 23.7-59.3 22.4s-51.3-47.4-61.8-51.3-15.8-75 55.3-55.3z"/>
  <circle cx="498.1" cy="237.5" r="65" fill="#f2f2f2"/>
  <path fill="#3f3d56" d="M1035 153H670.6V76.8h364.2zm-362.7-1.6h361v-73h-361z"/>
  <path fill="#6c63ff" d="M645.8 92.1h362.6v74.6H645.8z"/>
  <circle cx="416.6" cy="15.2" r="5.6" fill="#6c63ff"/>
  <circle cx="435.8" cy="15.2" r="5.6" fill="#6c63ff"/>
  <circle cx="455.1" cy="15.2" r="5.6" fill="#6c63ff"/>
  <path fill="#3f3d56" d="M1076 439.7H400.6V0h675.6zM402.2 438h672.4V1.6H402z"/>
  <path fill="#3f3d56" d="M401.3 24.3h673.9v1.6H401.3zM418.2 19.3a6.4 6.4 0 1 1 6.4-6.5 6.4 6.4 0 0 1-6.4 6.5zm0-11.3a4.8 4.8 0 1 0 4.8 4.8 4.8 4.8 0 0 0-4.8-4.8zM437.4 19.3a6.4 6.4 0 1 1 6.4-6.5 6.4 6.4 0 0 1-6.4 6.5zm0-11.3a4.8 4.8 0 1 0 4.8 4.8 4.8 4.8 0 0 0-4.8-4.8zM456.7 19.3a6.4 6.4 0 1 1 6.4-6.5 6.4 6.4 0 0 1-6.4 6.5zm0-11.3a4.8 4.8 0 1 0 4.8 4.8 4.8 4.8 0 0 0-4.8-4.8z"/>
  <path fill="#3f3d56" d="M612.1 25.1h1.6v414.3h-1.6z"/>
  <path fill="#f2f2f2" d="M688.7 228.9h117.9v16H688.7zM874.1 228.9H992v16H874.1z"/>
  <path fill="#3f3d56" d="M813.9 237.7H694.3V220H814zm-118-1.6h116.4v-14.5H696z"/>
  <path fill="#f2f2f2" d="M688.7 353.2h117.9v16H688.7z"/>
  <path fill="#3f3d56" d="M813.9 362H694.3v-17.6H814zm-118-1.6h116.4V346H696z"/>
  <path fill="#f2f2f2" d="M689.1 289.4h303.3v16H689.1z"/>
  <path fill="#3f3d56" d="M999.6 299.9H694.8v-17.7h304.8zm-303.2-1.6H998v-14.5H696.4zM999.2 237.7H879.7V220h119.5zm-118-1.6h116.4v-14.5H881.3zM509 285.5a66 66 0 1 1 66-66 66 66 0 0 1-66 66zm0-130a64 64 0 1 0 64 64 64 64 0 0 0-64-64zM748.1 744.5h283v2h-283z"/>
</svg>