<svg xmlns="http://www.w3.org/2000/svg" viewBox="0 0 500 500">
  <defs>
    <linearGradient id="a" x1="134.213" x2="134.213" y1="-18.204" y2="281.796" gradientTransform="translate(134.257492 32.058277)" gradientUnits="userSpaceOnUse">
      <stop offset="0" stop-color="#fff"/>
      <stop offset="1" stop-color="#eee"/>
    </linearGradient>
  </defs>
  <path fill="url(#a)" d="M118.47 13.854h300v300h-300z" transform="translate(-80.023384 137.024109)"/>
  <path fill="#333" d="M108.092616 278.178109c-2.205 0-3.767-.429-4.686-1.286-.898-.858-1.349-1.922-1.349-3.186 0-.245.022-.573.062-.981.061-.429.162-1.082.306-1.96.245-1.572.911-2.778 1.992-3.615 1.062-.818 2.696-1.226 4.901-1.226 2.206 0 3.769.429 4.687 1.287.898.857 1.348 1.921 1.348 3.186 0 .246-.021.574-.061.98-.061.429-.162 1.082-.306 1.961-.246 1.571-.911 2.779-1.991 3.615-1.064.817-2.696 1.225-4.903 1.225zm-3.032 43.838c-3.042 0-5.321-.796-6.831-2.39-1.511-1.592-2.268-3.736-2.268-6.434 0-.835.04-1.644.123-2.419.101-.796.306-1.951.613-3.462l2.941-15.745h-11.488l1.41-8.365h22.331l-5.636 30.145 1.226.367 10.292-10.537 5.882 5.238-4.472 5.146c-2.49 2.797-4.832 4.903-7.016 6.311-2.184 1.431-4.554 2.145-7.107 2.145zm31.707-.888h-10.723l6.311-37.927h10.753l-1.471 9.038h.368c1.41-3.085 3.063-5.514 4.962-7.291 1.879-1.756 4.342-2.634 7.384-2.634 1.859 0 3.44.297 4.747.887 1.288.574 2.351 1.37 3.187 2.391.836 1.001 1.449 2.166 1.839 3.491.389 1.309.582 2.697.582 4.167 0 1.082-.061 2.184-.184 3.309-.123 1.143-.328 2.594-.613 4.35l-3.37 20.219h-10.752l3.614-21.537c.101-.695.214-1.4.337-2.113.122-.696.184-1.511.184-2.45 0-.491-.083-1.003-.245-1.533-.145-.552-.39-1.042-.736-1.469-.326-.451-.774-.807-1.347-1.073-.573-.267-1.266-.399-2.083-.399-1.287 0-2.391.285-3.308.859-.941.591-1.83 1.448-2.665 2.573-.531.735-1.174 1.754-1.931 3.063-.774 1.307-1.286 2.736-1.531 4.288l-3.309 19.791zm27.54 14.704l8.823-52.631h10.721l-1.469 9.038h.368c.734-1.47 1.509-2.81 2.327-4.013.797-1.204 1.703-2.245 2.727-3.124.999-.88 2.122-1.563 3.37-2.052 1.243-.491 2.674-.736 4.288-.736 2.022 0 3.725.337 5.117 1.01 1.408.696 2.551 1.695 3.431 3.002.875 1.287 1.519 2.84 1.929 4.657.429 1.816.644 3.83.644 6.035 0 3.778-.42 7.199-1.257 10.262-.84 3.063-2.012 5.678-3.523 7.843-1.531 2.184-3.361 3.882-5.483 5.085-2.126 1.205-4.515 1.808-7.169 1.808-2.984 0-5.251-.704-6.8-2.114-1.554-1.387-2.594-3.33-3.125-5.821h-.521l-3.676 21.751h-10.722zm21.383-22.119c2.653 0 4.687-.773 6.097-2.327 1.426-1.553 2.389-3.769 2.879-6.648l.734-4.411c.101-.45.172-.95.215-1.502.061-.573.092-1.172.092-1.807-.061-1.817-.451-3.339-1.163-4.565-.696-1.224-1.983-1.837-3.861-1.837-1.308 0-2.481.315-3.523.95-1.024.633-1.972 1.522-2.849 2.665-.594.674-1.256 1.632-1.991 2.879-.735 1.265-1.226 2.675-1.471 4.227l-1.04 6.127c-.35 2.001-.043 3.545.918 4.627.959 1.081 2.613 1.622 4.963 1.622zm45.767 7.415l1.471-9.037h-.368c-1.43 3.084-3.085 5.504-4.962 7.259-1.9 1.778-4.363 2.666-7.383 2.666-1.881 0-3.462-.297-4.748-.888-1.309-.592-2.38-1.389-3.217-2.39-.818-1.002-1.431-2.166-1.839-3.492-.388-1.327-.581-2.726-.581-4.198 0-1.08.062-2.183.184-3.308.123-1.124.336-2.564.642-4.319l3.37-20.22h10.723l-3.584 21.445c-.105.695-.215 1.41-.337 2.145-.123.734-.184 1.571-.184 2.512 0 .49.07 1.001.214 1.531.141.53.386 1.021.736 1.471.346.451.804.806 1.377 1.071.552.267 1.245.399 2.085.399 1.264 0 2.367-.298 3.307-.888.938-.591 1.817-1.449 2.636-2.574.55-.734 1.203-1.746 1.96-3.033.754-1.307 1.256-2.748 1.5-4.319l3.309-19.76h10.753l-6.341 37.927h-10.723zm36.332.888c-3.229 0-5.587-.858-7.075-2.574-1.514-1.715-2.268-3.991-2.268-6.83 0-.696.04-1.401.122-2.115.08-.713.215-1.632.399-2.757l2.726-16.174h-9.71l1.409-8.365h6.096c1.572 0 2.757-.326 3.554-.979.815-.634 1.347-1.778 1.592-3.431l1.471-8.976h9.987l-2.206 13.386h14.857l-1.378 8.365h-14.857l-3.523 21.168 1.469.52 11.459-9.037 5.299 6.035-4.412 3.829c-1.574 1.309-2.993 2.472-4.257 3.493-1.287 1.002-2.503 1.828-3.646 2.481-1.165.674-2.309 1.165-3.431 1.471-1.123.328-2.349.49-3.677.49zM58.389 37.175c-2.205 0-3.767-.429-4.686-1.286-.898-.858-1.349-1.922-1.349-3.186 0-.245.022-.573.062-.981.061-.429.162-1.082.306-1.96.245-1.572.911-2.778 1.992-3.615 1.062-.818 2.696-1.226 4.901-1.226 2.206 0 3.769.429 4.687 1.287.898.857 1.348 1.921 1.348 3.186 0 .246-.021.574-.061.98-.061.429-.162 1.082-.306 1.961-.246 1.571-.911 2.779-1.991 3.615-1.064.817-2.696 1.225-4.903 1.225zm-3.032 43.838c-3.042 0-5.321-.796-6.831-2.39-1.511-1.592-2.268-3.736-2.268-6.434 0-.835.04-1.644.123-2.419.101-.796.306-1.951.613-3.462l2.941-15.745H38.447l1.41-8.365h22.331l-5.636 30.145 1.226.367L68.07 62.173l5.882 5.238-4.472 5.146c-2.49 2.797-4.832 4.903-7.016 6.311-2.184 1.431-4.554 2.145-7.107 2.145zm31.707-.888H76.341l6.311-37.927h10.753l-1.471 9.038h.368c1.41-3.085 3.063-5.514 4.962-7.291 1.879-1.756 4.342-2.634 7.384-2.634 1.859 0 3.44.297 4.747.887 1.288.574 2.351 1.37 3.187 2.391.836 1.001 1.449 2.166 1.839 3.491.389 1.309.582 2.697.582 4.167 0 1.082-.061 2.184-.184 3.309-.123 1.143-.328 2.594-.613 4.35l-3.37 20.219h-10.752l3.614-21.537c.101-.695.214-1.4.337-2.113.122-.696.184-1.511.184-2.45 0-.491-.083-1.003-.245-1.533-.145-.552-.39-1.042-.736-1.469-.326-.451-.774-.807-1.347-1.073-.573-.267-1.266-.399-2.083-.399-1.287 0-2.391.285-3.308.859-.941.591-1.83 1.448-2.665 2.573-.531.735-1.174 1.754-1.931 3.063-.774 1.307-1.286 2.736-1.531 4.288l-3.309 19.791zm27.54 14.704l8.823-52.631h10.721l-1.469 9.038h.368c.734-1.47 1.509-2.81 2.327-4.013.797-1.204 1.703-2.245 2.727-3.124.999-.88 2.122-1.563 3.37-2.052 1.243-.491 2.674-.736 4.288-.736 2.022 0 3.725.337 5.117 1.01 1.408.696 2.551 1.695 3.431 3.002.875 1.287 1.519 2.84 1.929 4.657.429 1.816.644 3.83.644 6.035 0 3.778-.42 7.199-1.257 10.262-.84 3.063-2.012 5.678-3.523 7.843-1.531 2.184-3.361 3.882-5.483 5.085-2.126 1.205-4.515 1.808-7.169 1.808-2.984 0-5.251-.704-6.8-2.114-1.554-1.387-2.594-3.33-3.125-5.821h-.521l-3.676 21.751h-10.722zm21.383-22.119c2.653 0 4.687-.773 6.097-2.327 1.426-1.553 2.389-3.769 2.879-6.648l.734-4.411c.101-.45.172-.95.215-1.502.061-.573.092-1.172.092-1.807-.061-1.817-.451-3.339-1.163-4.565-.696-1.224-1.983-1.837-3.861-1.837-1.308 0-2.481.315-3.523.95-1.024.633-1.972 1.522-2.849 2.665-.594.674-1.256 1.632-1.991 2.879-.735 1.265-1.226 2.675-1.471 4.227l-1.04 6.127c-.35 2.001-.043 3.545.918 4.627.959 1.081 2.613 1.622 4.963 1.622zm45.767 7.415l1.471-9.037h-.368c-1.43 3.084-3.085 5.504-4.962 7.259-1.9 1.778-4.363 2.666-7.383 2.666-1.881 0-3.462-.297-4.748-.888-1.309-.592-2.38-1.389-3.217-2.39-.818-1.002-1.431-2.166-1.839-3.492-.388-1.327-.581-2.726-.581-4.198 0-1.08.062-2.183.184-3.308.123-1.124.336-2.564.642-4.319l3.37-20.22h10.723l-3.584 21.445c-.105.695-.215 1.41-.337 2.145-.123.734-.184 1.571-.184 2.512 0 .49.07 1.001.214 1.531.141.53.386 1.021.736 1.471.346.451.804.806 1.377 1.071.552.267 1.245.399 2.085.399 1.264 0 2.367-.298 3.307-.888.938-.591 1.817-1.449 2.636-2.574.55-.734 1.203-1.746 1.96-3.033.754-1.307 1.256-2.748 1.5-4.319l3.309-19.76h10.753l-6.341 37.927h-10.723zm36.332.888c-3.229 0-5.587-.858-7.075-2.574-1.514-1.715-2.268-3.991-2.268-6.83 0-.696.04-1.401.122-2.115.08-.713.215-1.632.399-2.757l2.726-16.174h-9.71l1.409-8.365h6.096c1.572 0 2.757-.326 3.554-.979.815-.634 1.347-1.778 1.592-3.431l1.471-8.976h9.987l-2.206 13.386h14.857l-1.378 8.365h-14.857l-3.523 21.168 1.469.52 11.459-9.037 5.299 6.035-4.412 3.829c-1.574 1.309-2.993 2.472-4.257 3.493-1.287 1.002-2.503 1.828-3.646 2.481-1.165.674-2.309 1.165-3.431 1.471-1.123.328-2.349.49-3.677.49z" white-space="pre"/>
</svg>