<svg xmlns="http://www.w3.org/2000/svg" viewBox="0 0 126 120">
  <path d="M8.06 36.93c-.4 0-.7.3-.7.7v12.63c0 .4.3.7.7.7.4 0 .7-.3.7-.7V37.63c0-.4-.3-.7-.7-.7zM8.06 53.75c-.4 0-.7.3-.7.7v4.07c0 .4.3.7.7.7.4 0 .7-.3.7-.7v-4.08c0-.4-.3-.7-.7-.7zM120.05 76.13c-.4 0-.7.3-.7.7v12.63c0 .4.3.7.7.7.4 0 .7-.3.7-.7V76.82c.1-.4-.2-.7-.7-.7zM120.05 92.84c-.4 0-.7.3-.7.7v4.08c0 .4.3.7.7.7.4 0 .7-.3.7-.7v-4.08c.1-.3-.2-.7-.7-.7zM111.22 2.91c.1.1.3.2.5.2s.4-.1.5-.2c.29-.3.29-.8 0-1l-1.7-1.69c-.3-.3-.79-.3-.99 0s-.3.8 0 1l1.69 1.69zM116.08 5.7c-.3-.3-.8-.3-1 0-.29.3-.29.8 0 .99l1.7 1.7c.1.1.3.19.5.19.19 0 .39-.1.49-.2.3-.3.3-.8 0-1l-1.69-1.68zM110.03 8.68c.2 0 .4-.1.5-.2l1.68-1.69c.3-.3.3-.8 0-1-.3-.3-.8-.3-.99 0l-1.69 1.7c-.3.3-.3.8 0 1 .1.09.3.19.5.19zM116.78.22l-1.7 1.7c-.29.3-.29.8 0 .99.1.1.3.2.5.2s.4-.1.5-.2l1.69-1.7c.3-.29.3-.79 0-.99-.3-.3-.8-.3-1 0zM56.96 111.54c-.3-.3-.8-.3-.99 0-.3.3-.3.8 0 1l1.69 1.69c.1.1.3.2.5.2.19 0 .39-.1.49-.2.3-.3.3-.8 0-1l-1.69-1.69zM62.52 117.12c-.3-.3-.8-.3-1 0-.3.3-.3.8 0 .99l1.7 1.7c.09.1.29.19.49.19s.4-.1.5-.2c.29-.3.29-.8 0-1l-1.7-1.68zM57.66 117.12l-1.69 1.69c-.3.3-.3.8 0 1 .1.1.3.19.5.19s.4-.1.5-.2l1.68-1.69c.3-.3.3-.8 0-1-.2-.3-.7-.3-1 0zM63.21 111.54l-1.69 1.7c-.3.3-.3.8 0 .99.1.1.3.2.5.2s.4-.1.5-.2l1.68-1.7c.3-.29.3-.79 0-.99-.3-.3-.7-.3-.99 0zM1.31 78.52c-.3-.3-.79-.3-.99 0-.3.3-.3.8 0 1l1.69 1.68c.1.1.3.2.5.2s.4-.1.5-.2c.29-.3.29-.8 0-1l-1.7-1.68zM6.77 84.09c-.3-.3-.8-.3-1 0-.29.3-.29.8 0 1l1.7 1.68c.1.1.3.2.49.2.2 0 .4-.1.5-.2.3-.3.3-.8 0-1L6.77 84.1zM1.9 84.09L.23 85.78c-.3.3-.3.8 0 1 .1.1.3.2.5.2s.4-.1.5-.2l1.68-1.7c.3-.3.3-.8 0-1-.2-.3-.7-.3-1 0zM7.46 78.52L5.78 80.2c-.3.3-.3.8 0 1 .1.1.3.2.5.2s.4-.1.49-.2l1.69-1.7c.3-.3.3-.8 0-1s-.7-.3-1 0zM122.03 32.65a3.99 3.99 0 0 0 0 7.96 3.99 3.99 0 0 0 0-7.96zm0 6.47a2.46 2.46 0 0 1-2.48-2.49c0-1.39 1.1-2.48 2.48-2.48 1.4 0 2.48 1.1 2.48 2.48 0 1.4-1.09 2.5-2.48 2.5zM14.2 108.06a3.99 3.99 0 0 0 0 7.96 3.99 3.99 0 0 0 0-7.96zm0 6.47c-1.38 0-2.47-1.1-2.47-2.49s1.1-2.49 2.48-2.49 2.48 1.1 2.48 2.5-1.1 2.48-2.48 2.48zM14.2 1.42H29.3c.4 0 .7-.3.7-.7 0-.4-.3-.7-.7-.7H14.2c-.4 0-.7.3-.7.7 0 .4.3.7.7.7zM4.49 1.42h4.86c.4 0 .7-.3.7-.7 0-.4-.3-.7-.7-.7H4.49c-.4-.1-.8.3-.8.7 0 .4.4.7.8.7zM15.7 5.9c0-.4-.3-.7-.7-.7H4.5c-.4 0-.7.3-.7.7 0 .4.3.7.7.7H15c.3 0 .7-.3.7-.7zM19.47 5.1c-.4 0-.7.3-.7.7 0 .4.3.7.7.7h3.37c.4 0 .7-.3.7-.7 0-.4-.3-.7-.7-.7h-3.37zM103.58 114.13H88.6c-.4 0-.69.3-.69.7 0 .4.3.7.7.7h15.07c.4 0 .7-.3.7-.7-.1-.4-.4-.7-.8-.7zM113.4 114.13h-4.86c-.4 0-.7.3-.7.7 0 .4.3.7.7.7h4.86c.4 0 .7-.3.7-.7 0-.4-.3-.7-.7-.7zM113.4 108.96H102.9c-.4 0-.7.3-.7.7s.3.69.7.69h10.51c.4 0 .7-.3.7-.7s-.3-.7-.7-.7zM95.05 108.96c-.4 0-.7.3-.7.7s.3.69.7.69h3.37c.4 0 .7-.3.7-.7s-.3-.7-.7-.7h-3.37zM79.48 97.32v-19.9c1.39-.2 2.68-1 3.57-2.09l17.16 9.95a5.51 5.51 0 0 0 5.06 7.56 5.51 5.51 0 0 0 5.45-5.47 5.56 5.56 0 0 0-4.76-5.47V62a5.56 5.56 0 0 0 4.76-5.47 5.39 5.39 0 0 0-4.76-5.37v-19.9a5.54 5.54 0 0 0 4.76-5.37 5.51 5.51 0 0 0-5.45-5.47 5.51 5.51 0 0 0-5.06 7.56l-17.16 9.95a5.77 5.77 0 0 0-3.57-2.1V15.95a5.16 5.16 0 0 0 3.97-2.68c.5-.8.7-1.8.7-2.79A5.51 5.51 0 0 0 78.67 5a5.38 5.38 0 0 0-5.35 4.77H53.49A5.53 5.53 0 0 0 48.13 5a5.51 5.51 0 0 0-5.45 5.47 5.39 5.39 0 0 0 4.76 5.37v19.9c-1.49.2-2.68.9-3.57 2.09L26.7 27.88a5.51 5.51 0 0 0-5.06-7.56 5.51 5.51 0 0 0-5.46 5.47 5.39 5.39 0 0 0 4.76 5.37v19.9a5.54 5.54 0 0 0-4.76 5.37 5.56 5.56 0 0 0 4.76 5.47v19.9a5.56 5.56 0 0 0-4.76 5.47 5.51 5.51 0 0 0 5.46 5.47 5.51 5.51 0 0 0 5.06-7.56l17.16-9.95a5.77 5.77 0 0 0 3.57 2.1v19.89a5.56 5.56 0 0 0-4.76 5.47 5.51 5.51 0 0 0 5.45 5.47 5.54 5.54 0 0 0 5.46-4.77h19.84a5.53 5.53 0 0 0 5.35 4.77c1.99 0 3.77-1.1 4.77-2.68.5-.8.69-1.8.69-2.79a5.63 5.63 0 0 0-4.76-5.37zm3.17-24.67c0 .1 0 .3-.1.4v.1c0 .1-.1.3-.1.4-.1.2-.1.29-.2.49a3.8 3.8 0 0 1-3.47 1.99 4 4 0 0 1-3.96-4.08 4 4 0 0 1 4.06-3.98c1.4 0 2.68.8 3.48 2 .4.59.5 1.28.5 1.98-.1.3-.1.5-.2.7zm-8.33-3.88l-.1.1c-.1.2-.3.4-.4.7 0 0 0 .1-.1.1-.1.2-.2.49-.3.69-.1.3-.1.5-.2.8v.1H53.5v-.1c0-.3-.1-.5-.2-.8-.1-.3-.2-.5-.3-.7 0 0 0-.1-.1-.1-.1-.2-.3-.5-.4-.7l-.1-.1c-.29-.4-.69-.79-1.18-1.09 0 0-.1 0-.1-.1-.2-.2-.5-.3-.7-.4h-.1c-.49-.2-.99-.4-1.58-.5h-.1V46.79h.1c.3 0 .5-.1.8-.2.29-.1.49-.2.69-.3 0 0 .1 0 .1-.1.2-.1.5-.3.69-.4l.1-.1c.2-.2.4-.3.6-.49.2-.2.4-.4.49-.6l.1-.1c.1-.2.3-.4.4-.7 0 0 0-.1.1-.1.1-.2.2-.49.3-.79.1-.3.1-.5.2-.8V42h19.73v.1c0 .3.1.5.2.8.1.3.2.5.3.7 0 0 0 .1.1.1.1.2.2.4.4.7l.1.1c.19.2.29.4.49.59.2.2.4.3.6.5l.1.1c.2.1.39.3.59.4.1 0 .1.1.2.1.2.1.5.2.69.3h.1c.2.1.5.1.7.2h.1v19.89h-.1c-.3 0-.5.1-.8.2-.3.1-.5.2-.7.3 0 0-.1 0-.1.1-.2.1-.49.2-.69.4l-.1.1c-.2.2-.4.3-.6.49.1.2-.1.4-.29.6zm9.42 5.37l.3-.9v-.2c.1-.3.1-.6.1-.99 0-.3 0-.6-.1-1v-.2c-.1-.3-.1-.6-.3-.89l17.16-9.95c.2.3.4.5.7.7l.1.1c.2.2.5.4.8.6.29.2.49.3.78.4.1 0 .2.1.3.1.2.1.5.1.8.2h.1V81.9c-.3 0-.6.1-.8.2-.1 0-.2.1-.3.1l-.6.3c-.09.1-.29.2-.39.2-.2.1-.4.2-.5.4-.1.1-.2.1-.2.2-.2.19-.39.39-.59.69l-17.36-9.85zm25.5 13.33a3.99 3.99 0 0 1-3.97 3.98 3.99 3.99 0 0 1-3.97-3.98c0-.7.2-1.4.5-1.99a3.8 3.8 0 0 1 3.47-1.99 3.86 3.86 0 0 1 3.97 3.98zm0-30.74a3.99 3.99 0 0 1-5.96 3.48c-.59-.3-1.09-.9-1.48-1.5-.4-.59-.5-1.28-.5-1.98s.2-1.4.5-1.99c.2-.3.3-.5.6-.7.79-.8 1.78-1.29 2.87-1.29a3.86 3.86 0 0 1 3.97 3.98zm-3.97-34.72a3.99 3.99 0 1 1-3.47 5.97c-.4-.6-.5-1.3-.5-1.99-.1-2.19 1.79-3.98 3.97-3.98zm-21.13 18.4v-.2c-.1-.3-.1-.6-.3-.89L101 29.37c.2.3.4.5.7.7l.1.1c.5.4.99.7 1.58 1 .1 0 .2.1.3.1.2.1.5.1.7.2h.2v19.89c-.3 0-.6.1-.9.2-.1 0-.1 0-.2.1-.6.2-1.19.5-1.68 1l-.1.09-.7.7-17.16-9.95.3-.9v-.2c.1-.3.1-.6.1-1-.1-.39-.1-.69-.1-.99zm16.07 14.23c-.3.7-.4 1.4-.4 2.09 0 .7.1 1.4.4 2.09l-17.16 9.95a5.77 5.77 0 0 0-3.57-2.1V46.79c1.39-.2 2.68-1 3.57-2.09l17.16 9.95zM82.16 39.32c.4.6.5 1.3.5 1.99 0 .2 0 .4-.1.6 0 .1 0 .3-.1.4v.1c0 .1-.1.2-.1.4-.1.2-.1.3-.2.49a3.99 3.99 0 0 1-7.44-1.99 4 4 0 0 1 4.06-3.98c1.4 0 2.68.8 3.38 1.99zM78.68 6.59a4 4 0 0 1 3.97 4.08c0 .7-.2 1.4-.5 1.99a4 4 0 0 1-3.47 1.99c-.3 0-.5 0-.79-.1a4.06 4.06 0 0 1-3.17-3.98 3.99 3.99 0 0 1 3.96-3.98zM52.5 13.95c.1-.2.3-.4.4-.6.2-.3.3-.6.4-.89 0-.1.1-.2.1-.2.09-.3.19-.6.19-.9h19.74v.1c0 .3.1.5.2.8.1.3.2.5.3.7 0 0 0 .1.1.1.1.2.3.5.39.7l.1.1c.2.2.3.4.5.59.2.2.4.4.6.5l.09.1c.2.1.4.3.6.4.1 0 .1 0 .2.1.2.1.49.2.69.3h.1c.2.1.5.1.8.2h.09v19.89h-.1c-.3 0-.5.1-.8.2-.3.1-.49.2-.69.3 0 0-.1 0-.1.1-.2.1-.5.3-.7.4l-.09.1c-.2.2-.4.3-.6.49-.2.2-.4.4-.5.6l-.09.1c-.1.2-.3.4-.4.7 0 0 0 .1-.1.1-.1.2-.2.49-.3.69-.1.3-.1.5-.2.8v.1H53.5v-.1c0-.3-.1-.5-.2-.8-.1-.3-.2-.5-.3-.7 0 0 0-.1-.1-.1-.1-.2-.3-.5-.4-.7l-.1-.1c-.29-.4-.69-.79-1.18-1.09 0 0-.1 0-.1-.1-.2-.2-.5-.3-.7-.4h-.1c-.49-.2-.99-.4-1.58-.5h-.1V16.15c.2 0 .4-.1.6-.1.1 0 .1 0 .2-.1.1 0 .3-.1.39-.1.1 0 .2-.1.2-.1.1-.1.3-.1.4-.2.1 0 .2-.1.2-.1.1-.1.2-.1.3-.2l.19-.2.3-.3.2-.2.3-.29c.49-.2.49-.3.59-.3zm-8.43-3.28a4.07 4.07 0 0 1 3.96-4.08A4 4 0 0 1 52 10.67c0 .7-.2 1.4-.5 1.99-.1.2-.2.3-.3.4-.79 1-1.88 1.59-3.17 1.59a4.05 4.05 0 0 1-3.96-3.98zm.1 30.04c0-.1 0-.3.1-.4.1-.3.2-.7.4-.99a3.8 3.8 0 0 1 3.46-1.99 3.99 3.99 0 0 1 0 7.96c-1.39 0-2.77-.8-3.47-2-.4-.59-.5-1.28-.5-1.98-.1-.2 0-.4 0-.6zM25.9 29.37l17.16 9.95-.3.9v.2c-.1.3-.1.6-.1.89 0 .3 0 .6.1 1v.2c.1.3.1.6.3.89l-17.16 9.95c-.2-.3-.4-.5-.69-.7-.1 0-.1-.1-.2-.1-.5-.4-1.09-.7-1.68-1-.1 0-.1 0-.2-.1-.3-.1-.6-.2-.9-.2V31.37h.1c.3 0 .5-.1.8-.2.1 0 .2-.1.3-.1.3-.1.59-.2.79-.4.3-.2.5-.4.8-.6.1 0 .1-.1.19-.1.3-.1.5-.39.7-.59zM17.58 26a3.99 3.99 0 0 1 3.97-3.98c2.18 0 3.97 1.8 3.97 3.98 0 .7-.2 1.4-.5 1.99-.1.2-.3.4-.4.6l-.59.6c-.7.49-1.49.79-2.38.79a4 4 0 0 1-4.07-3.98zm0 30.74a3.99 3.99 0 0 1 7.44-1.99c.4.6.5 1.3.5 1.99s-.2 1.4-.5 1.99c-.2.3-.3.5-.5.7l-.1.1c-.1.1-.3.2-.39.3-.1.1-.3.2-.4.3-.6.29-1.29.49-1.98.49a3.87 3.87 0 0 1-4.07-3.88zm3.97 34.72a3.99 3.99 0 0 1 0-7.96 4 4 0 0 1 3.47 1.99c.4.6.5 1.3.5 1.99a3.86 3.86 0 0 1-3.97 3.98zm4.36-7.36c-.2-.3-.4-.5-.6-.7-.09-.1-.19-.2-.29-.2-.2-.1-.3-.2-.5-.3-.2-.1-.3-.2-.49-.3l-.6-.3c-.1 0-.2-.1-.3-.1-.3-.1-.59-.2-.89-.2V62.1h.2c.2 0 .4-.1.6-.2.1 0 .3-.1.4-.1.2-.1.3-.1.4-.2l.59-.3c.2-.1.3-.2.4-.3l.3-.3c.19-.19.39-.39.49-.59l.1-.1 17.16 9.95v.1c-.1.3-.2.5-.2.8v.2c-.1.3-.1.6-.1.89 0 .3 0 .6.1 1v.2c.1.3.1.6.3.89L25.9 84.09zm17.86-15.42L26.6 58.72c.3-.7.4-1.4.4-2.09 0-.7-.1-1.4-.4-2.09l17.16-9.95a5.77 5.77 0 0 0 3.57 2.1v19.89c-1.39.2-2.68 1-3.57 2.09zm.9 5.37c-.4-.6-.5-1.3-.5-1.99v-.6c.1-.5.2-1 .5-1.39a3.8 3.8 0 0 1 3.46-1.99 4.06 4.06 0 0 1 3.97 4.08 3.99 3.99 0 0 1-3.97 3.98 3.9 3.9 0 0 1-3.47-2.1zm6.94 30.74a4 4 0 0 1-7.44-1.99 4.14 4.14 0 0 1 3.96-4.08 4.06 4.06 0 0 1 3.97 4.08c0 .7-.2 1.4-.5 1.99zm22.61-5.17c-.1.2-.3.4-.4.6 0 .1-.1.1-.1.2l-.3.59c0 .1 0 .1-.1.2-.1.2-.1.5-.19.7v.1H53.49v-.1c0-.3-.1-.5-.2-.8-.1-.3-.2-.5-.3-.8 0 0 0-.1-.1-.1-.1-.2-.3-.5-.4-.7 0 0 0-.1-.1-.1-.29-.4-.69-.79-1.18-1.19 0 0-.1 0-.1-.1-.2-.2-.4-.3-.7-.4h-.1c-.49-.2-.99-.4-1.58-.5h-.1V77.53h.1c.3 0 .5-.1.8-.2.29-.1.49-.2.69-.3 0 0 .1 0 .1-.1.2-.1.4-.2.69-.4l.1-.1c.2-.2.4-.3.6-.49.2-.2.3-.4.49-.6l.1-.1c.1-.2.3-.4.4-.6 0-.1.1-.1.1-.2.1-.2.2-.49.3-.69v-.1c.1-.2.1-.5.2-.7v-.1h19.73v.1c0 .3.1.5.2.8.1.3.2.5.3.7 0 0 0 .1.1.1.1.2.3.4.4.7l.1.1c.19.2.29.4.49.59.2.2.4.3.6.5l.1.1c.2.1.39.3.59.4.1 0 .1 0 .2.1.2.1.5.2.69.3.3.1.5.1.8.2h.1v19.79h-.1c-.3 0-.5.1-.8.2-.3.1-.5.2-.7.3 0 0-.1 0-.1.1-.2.1-.39.2-.59.4l-.1.1c-.2.1-.4.3-.5.49l-.1.1c-.2.2-.29.4-.49.6.1-.1.1 0 0 0zm7.94 5.17a4 4 0 0 1-7.44-1.99 4 4 0 0 1 4.06-3.98 4 4 0 0 1 3.97 4.08c0 .6-.2 1.3-.6 1.89z"/>
</svg>
