<svg xmlns="http://www.w3.org/2000/svg" viewBox="0 0 67.006 77">
  <path d="M35.505 33c-2.694 0-4.378 2.917-3.031 5.25s4.715 2.333 6.062 0A3.5 3.5 0 0 0 35.505 33zm0 6c-1.925 0-3.127-2.083-2.165-3.75.962-1.667 3.368-1.667 4.33 0A2.5 2.5 0 0 1 35.505 39zM23.505 28c2.694 0 4.378-2.917 3.031-5.25s-4.715-2.333-6.062 0A3.5 3.5 0 0 0 23.505 28zm0-6c1.924 0 3.127 2.083 2.165 3.75-.962 1.667-3.368 1.667-4.33 0A2.5 2.5 0 0 1 23.505 22zM57.505 73c2.694 0 4.378-2.917 3.031-5.25s-4.715-2.333-6.062 0A3.5 3.5 0 0 0 57.505 73zm0-6c1.924 0 3.127 2.083 2.165 3.75-.962 1.667-3.368 1.667-4.33 0A2.5 2.5 0 0 1 57.505 67zM60.405 14.134c1.257 2.383 4.622 2.512 6.058.232 1.435-2.281-.136-5.259-2.829-5.362a3.498 3.498 0 0 0-3.229 5.13zm.707-2.372c.568-1.839 2.913-2.373 4.222-.962 1.308 1.411.599 3.709-1.278 4.137a2.498 2.498 0 0 1-2.766-1.27 2.505 2.505 0 0 1-.174-1.905zM61.505 37c-2.694 0-4.378 2.917-3.031 5.25A3.5 3.5 0 0 0 61.505 44a.5.5 0 0 0 0-1c-1.925 0-3.127-2.083-2.165-3.75.962-1.667 3.368-1.667 4.33 0a2.5 2.5 0 0 1-.302 2.917.5.5 0 0 0 .746.666c1.796-2.008.744-5.208-1.893-5.759a3.516 3.516 0 0 0-.716-.074zM22.132 76.071a.5.5 0 0 0 .706.04c2.01-1.794 1.324-5.092-1.235-5.935-2.559-.844-5.071 1.399-4.522 4.037A3.499 3.499 0 0 0 20.505 77a.5.5 0 0 0 0-1c-1.925-.002-3.126-2.086-2.162-3.752s3.369-1.664 4.33.004a2.5 2.5 0 0 1-.501 3.113.5.5 0 0 0-.04.706zM3.505 56c2.694.002 4.38-2.914 3.034-5.248a3.494 3.494 0 0 0-.701-.863.5.5 0 0 0-.666.746c1.436 1.282.946 3.637-.882 4.239-1.828.603-3.623-.999-3.23-2.883A2.5 2.5 0 0 1 3.505 50a.5.5 0 0 0 0-1C.811 49-.873 51.917.474 54.25A3.5 3.5 0 0 0 3.505 56zM6.505 12c2.694 0 4.378-2.917 3.031-5.25s-4.715-2.333-6.062 0A3.5 3.5 0 0 0 6.505 12zm0-6C8.429 6 9.632 8.083 8.67 9.75c-.962 1.667-3.368 1.667-4.33 0A2.5 2.5 0 0 1 6.505 6zM39.505 1a.5.5 0 0 0 0-1c-2.694.002-4.377 2.919-3.028 5.252 1.348 2.332 4.716 2.33 6.062-.004a3.5 3.5 0 0 0-.423-4.081.5.5 0 0 0-.746.666c1.283 1.434.533 3.72-1.351 4.114-1.884.394-3.488-1.399-2.887-3.227A2.499 2.499 0 0 1 39.505 1zM5.176 28a.5.5 0 0 0-.533.465l-1.3 19.02a.5.5 0 0 0 .465.533h.035a.5.5 0 0 0 .5-.466l1.3-19.02A.5.5 0 0 0 5.176 28zM6.664 13.514a.501.501 0 0 0-1-.068l-.888 13.02a.5.5 0 0 0 .465.533h.035a.5.5 0 0 0 .5-.466zM59.005 10.272l-14.641-5.48a.5.5 0 1 0-.349.936l14.641 5.48a.5.5 0 0 0 .349-.936zM25.474 73.46a.486.486 0 0 0 .054 0l11.031-1.19a.5.5 0 0 0-.108-.995l-11.03 1.191a.5.5 0 0 0 .053 1zM53.032 69.986a.5.5 0 0 0-.55-.443l-13.031 1.406a.5.5 0 0 0 .053 1 .505.505 0 0 0 .055 0l13.03-1.406a.5.5 0 0 0 .443-.557zM59.493 51.432l-1.8 13.049a.5.5 0 0 0 .426.564.817.817 0 0 0 .07 0 .5.5 0 0 0 .494-.432l1.8-13.05a.5.5 0 1 0-.991-.136zM60.894 44.955a.5.5 0 0 0-.564.427l-.56 4.05a.5.5 0 0 0 .99.136l.56-4.049a.5.5 0 0 0-.426-.564zM6.341 56a.5.5 0 0 0-.074.7l10.7 13.219a.5.5 0 1 0 .777-.629l-10.7-13.219A.5.5 0 0 0 6.341 56zM60.095 15.424a.5.5 0 0 0-.7-.053l-20.41 17.5a.5.5 0 1 0 .65.758l20.41-17.5a.5.5 0 0 0 .05-.705zM26.233 20.918a.5.5 0 0 0 .7-.1l9.939-13.04a.5.5 0 0 0-.795-.606l-9.939 13.04a.5.5 0 0 0 .095.706zM6.415 48.93a.502.502 0 0 0 .407-.209L21.005 28.86a.5.5 0 1 0-.814-.581L6.005 48.14a.5.5 0 0 0 .407.79zM35.059 4.175a.5.5 0 0 0-.57-.419l-23.119 3.5a.5.5 0 1 0 .151.988l23.119-3.5a.5.5 0 0 0 .419-.569zM37.361 19.818l-9.21 2.763a.5.5 0 1 0 .288.958l9.21-2.763a.5.5 0 1 0-.288-.958zM58.581 13.451l-19.22 5.767a.5.5 0 0 0 .144.982.502.502 0 0 0 .144-.021l19.219-5.767a.5.5 0 1 0-.287-.958zM11.521 8.351a.49.49 0 0 0-.535.464.5.5 0 0 0 .464.534l7.02.49h.035a.5.5 0 1 0 .034-1zM31.836 10.77a.5.5 0 1 0 .034-1l-11.33-.791a.5.5 0 0 0-.07.999l11.33.79zM36.105 10.575a.5.5 0 0 0 .463.533l21.911 1.54h.036a.5.5 0 1 0 .034-1l-21.91-1.54a.518.518 0 0 0-.534.467zM33.813 40.677a.5.5 0 0 0-.651.275l-11.24 27.72a.5.5 0 1 0 .926.376l11.24-27.72a.5.5 0 0 0-.275-.651zM33.216 46.352a.5.5 0 0 0 .588.39L45.605 44.3a.5.5 0 0 0-.204-.979L33.605 45.76a.5.5 0 0 0-.389.592zM57.094 41.408a.5.5 0 0 0-.589-.388l-8.1 1.68a.5.5 0 1 0 .2.979l8.1-1.679a.5.5 0 0 0 .389-.592zM7.916 51.591a.5.5 0 0 0 .588.39l20.6-4.26a.5.5 0 0 0-.204-.98L8.305 51a.5.5 0 0 0-.389.591zM56.488 40.234a.5.5 0 0 0 .153-.988l-16.119-2.48a.5.5 0 1 0-.153.988zM61.866 36.02a.5.5 0 0 0 .5-.465l1.28-18.03a.5.5 0 0 0-.464-.533.516.516 0 0 0-.534.463l-1.28 18.03a.5.5 0 0 0 .464.534z"/>
</svg>
