<svg xmlns="http://www.w3.org/2000/svg" viewBox="0 0 127 107">
  <path d="M121 25.98c.4 0 .7-.3.7-.7v-13.1c0-.4-.3-.7-.7-.7-.4 0-.7.3-.7.7v13.1c0 .4.3.7.7.7zM121 34.47c.4 0 .7-.3.7-.7v-4.2c0-.4-.3-.7-.7-.7-.4 0-.7.3-.7.7v4.2c0 .4.3.7.7.7zM4.9 74.93c.4 0 .7-.3.7-.7V61.14c0-.4-.3-.7-.7-.7-.4 0-.7.3-.7.7v13.1c0 .39.3.69.7.69zM5.7 82.72v-4.2c0-.4-.3-.7-.7-.7-.4 0-.7.3-.7.7v4.2c0 .4.3.7.7.7.4.1.7-.3.7-.7zM115.8 77.73c-.3-.3-.8-.3-1 0-.3.3-.3.8 0 1l1.7 1.8c.1.1.3.2.5.2s.4-.1.5-.2c.3-.3.3-.8 0-1l-1.7-1.8zM121.5 83.42c-.3-.3-.8-.3-1 0-.3.3-.3.8 0 1l1.8 1.8c.1.1.3.2.5.2s.4-.1.5-.2c.3-.3.3-.8 0-1l-1.8-1.8zM116.5 83.42l-1.8 1.8c-.31.3-.31.8 0 1 .1.1.3.2.5.2s.4-.1.5-.2l1.8-1.7c.3-.3.3-.8 0-1-.2-.4-.7-.4-1-.1zM122.2 77.73l-1.8 1.8c-.3.3-.3.8 0 1 .1.1.3.2.5.2s.4-.1.5-.2l1.8-1.8c.3-.3.3-.8 0-1s-.7-.3-1 0zM57.35 13.59c.1.1.3.2.5.2s.4-.1.5-.2c.3-.3.3-.8 0-1l-1.8-1.8c-.3-.3-.8-.3-1 0-.3.3-.3.8 0 1l1.8 1.8zM63.15 19.28c.1.1.3.2.5.2s.4-.1.5-.2c.3-.3.3-.8 0-1l-1.8-1.8c-.3-.3-.8-.3-1 0-.3.3-.3.8 0 1l1.8 1.8zM56.15 19.48c.2 0 .4-.1.5-.2l1.8-1.8c.3-.3.3-.8 0-1-.3-.3-.8-.3-1 0l-1.8 1.8c-.3.3-.3.8 0 1 .1.2.3.2.5.2zM61.85 13.79c.2 0 .4-.1.5-.2l1.8-1.8c.3-.3.3-.8 0-1-.3-.3-.8-.3-1 0l-1.8 1.8c-.3.3-.3.8 0 1 .1.1.3.2.5.2zM36.43 96.51c-.3-.3-.8-.3-1 0-.3.3-.3.8 0 1l1.8 1.8c.1.1.3.2.5.2s.4-.1.5-.2c.3-.3.3-.8 0-1l-1.8-1.8zM42.14 102.3c-.3-.3-.8-.3-1 0-.3.3-.3.8 0 1l1.8 1.8c.1.1.3.2.5.2s.4-.1.5-.2c.3-.3.3-.8 0-1l-1.8-1.8zM37.13 102.3l-1.8 1.8c-.3.3-.3.8 0 1 .1.1.3.2.5.2s.4-.1.5-.2l1.8-1.8c.3-.3.3-.8 0-1-.2-.3-.7-.3-1 0zM42.84 96.51l-1.8 1.8c-.3.3-.3.8 0 1 .1.1.3.2.5.2s.4-.1.5-.2l1.8-1.8c.3-.3.3-.8 0-1s-.7-.3-1 0zM107.89 8.2c2.3 0 4.1-1.8 4.1-4.1s-1.8-4.1-4.1-4.1-4.1 1.8-4.1 4.1 1.8 4.1 4.1 4.1zm0-6.7c1.4 0 2.6 1.2 2.6 2.6 0 1.4-1.2 2.6-2.6 2.6-1.4 0-2.6-1.2-2.6-2.6 0-1.4 1.1-2.6 2.6-2.6zM9.01 97.8c-2.2-.2-4.2 1.5-4.4 3.7-.2 2.2 1.5 4.2 3.7 4.4h.3c1 0 1.9-.3 2.6-1 .8-.7 1.3-1.7 1.4-2.8.4-2.1-1.3-4.1-3.6-4.3zm1.4 6.1c-.5.5-1.2.7-1.9.6-1.4-.1-2.5-1.4-2.4-2.8.1-.7.4-1.3.9-1.8.5-.4 1.1-.6 1.7-.6h.2c.7.1 1.3.4 1.8.9s.7 1.2.6 1.9c0 .7-.4 1.3-.9 1.8zM14.31 5.4h15.52c.4 0 .7-.3.7-.7 0-.4-.3-.7-.7-.7H14.3c-.4 0-.7.3-.7.7 0 .4.3.7.7.7zM4.2 5.4h5.01c.4 0 .7-.3.7-.7 0-.4-.3-.7-.7-.7h-5c-.4 0-.7.3-.7.7 0 .4.3.7.7.7zM4.2 10.69h10.82c.4 0 .7-.3.7-.7 0-.4-.3-.7-.7-.7H4.2c-.4 0-.7.3-.7.7 0 .4.3.7.7.7zM23.92 10c0-.4-.3-.7-.7-.7h-3.5c-.4 0-.7.3-.7.7 0 .39.3.69.7.69h3.5c.4 0 .7-.3.7-.7zM99.08 105.6H83.57c-.4 0-.7.3-.7.7 0 .4.3.7.7.7h15.5c.4 0 .7-.3.7-.7.11-.4-.2-.7-.7-.7zM109.29 105.6h-5c-.4 0-.7.3-.7.7 0 .4.3.7.7.7h5c.4 0 .7-.3.7-.7 0-.4-.3-.7-.7-.7zM109.29 100.3H98.38c-.4 0-.7.3-.7.7 0 .4.3.7.7.7h10.8c.4 0 .7-.3.7-.7.1-.4-.2-.7-.6-.7zM93.77 101.7c.4 0 .7-.3.7-.7 0-.4-.3-.7-.7-.7h-3.5c-.4 0-.7.3-.7.7 0 .4.3.7.7.7h3.5zM126.9 46.16c-.2-.3-.7-.4-1-.2-4.9 3.3-9.7 6.9-14.51 10.49-.9.7-2 1-2.8.9-.4-.1-1-.3-1.4-.8L90.57 32.37a2 2 0 0 1-.3-1.6c.2-.9.9-1.8 1.8-2.3 3.5-2.2 7-4.4 10.41-6.59.3-.2.4-.7.2-1-.2-.3-.7-.4-1-.2-3.4 2.2-6.9 4.4-10.4 6.6-1.2.7-2.1 1.8-2.4 3H38.02c-.3-1.2-1.2-2.3-2.4-3-3.5-2.1-7-4.4-10.4-6.6-.3-.2-.8-.1-1 .2-.2.3-.1.8.2 1 3.4 2.2 6.9 4.5 10.4 6.6.9.6 1.6 1.4 1.8 2.3v.2c0 .1 0 .3.1.4 0 .29-.1.69-.3.99L19.82 56.55c-.4.6-1 .8-1.4.8-.9.1-2-.2-2.8-.9-4.8-3.7-9.61-7.2-14.52-10.5-.3-.2-.8-.1-1 .2-.2.3-.1.8.2 1 4.8 3.3 9.71 6.8 14.42 10.5 1 .8 2.2 1.2 3.3 1.2.2 0 .4 0 .7-.1 1-.2 1.8-.7 2.3-1.4l1.7-2.4c1 .8 3.1 2.6 4 4.5.3.5.4.9.6 1.3.1.3.3.6.4.9-.5.3-1 .8-1.4 1.3l-.9 1.09a5.01 5.01 0 0 0 1.1 7l1.5 1.1c.9.6 1.9 1 3 1 .2 0 .5 0 .7-.1.3 0 .5-.1.7-.2a5.01 5.01 0 0 0 2 4.8l1.31.99c.9.7 2 1 3 1 .7 0 1.3-.1 2-.4v1.2c.2 1.3.9 2.5 2 3.3l1.3 1c.9.69 2 .99 3.01.99.8 0 1.5-.2 2.2-.5-.1 1.5.6 3 1.9 3.9l1 .7a4.69 4.69 0 0 0 6.5-1l.7-.9c.1.1.1.3.3.4 1.01.7 2.21 1.1 3.51 1.1.4 0 .8 0 1.1-.1 1.6-.3 3-1.2 3.9-2.6.9-1.4 1.3-3 1-4.6 0-.2-.1-.4-.1-.6l3.1 2.2c1.1.7 2.31 1.1 3.51 1.1 2 0 3.9-.9 5.1-2.7.9-1.4 1.3-3 1-4.6 0-.2-.1-.3-.1-.5l1.8 1.2c1.1.7 2.3 1.1 3.51 1.1 2 0 3.9-.9 5.1-2.7.9-1.39 1.3-2.99 1-4.59 0-.2-.1-.3-.1-.5l2.3 1.5c1 .7 2.2 1.1 3.5 1.1.4 0 .8 0 1.11-.1 1.6-.3 3-1.2 3.9-2.6.9-1.4 1.3-3 1-4.6-.3-1.6-1.2-2.99-2.6-3.89L80.26 47.96c-.2-.1-.4-.1-.6-.1h-3.8c-8 0-9-6.5-9.1-6.8 0-.4-.4-.6-.7-.6H52.83c-.4 0-.7.3-.7.6-.7 3.8-2 6.4-4.1 7.7-1.6 1-3.2.9-4 .8v-11l12.2-6.79h32.53c.1.5.2 1.1.5 1.5l16.61 24.18c.5.8 1.4 1.3 2.3 1.4.2 0 .4.1.7.1 1.1 0 2.3-.4 3.3-1.2 4.71-3.6 9.62-7.2 14.42-10.5.4-.3.5-.8.3-1.1zM31.43 71.63c-.9.1-1.9-.1-2.6-.7l-1.5-1.1c-.8-.6-1.2-1.4-1.4-2.3-.1-.9.1-1.9.6-2.6l.9-1.19c.6-.8 1.4-1.2 2.3-1.4h.5c.7 0 1.5.2 2.1.7l1.5 1.1c1.3 1 1.8 2.7 1.1 4.2l-1.7 2.3-.1.1c-.4.5-1 .8-1.7.9zm5.1 5.9l-1.3-1c-.8-.6-1.3-1.4-1.4-2.4-.1-.9.1-1.7.5-2.5.2-.2.4-.4.5-.6l.9-1.2c.2-.3.4-.6.5-.9l1.4-1.9c1.2-1.6 3.5-1.9 5.1-.8l1.3 1c.8.6 1.3 1.4 1.4 2.4.1 1-.1 1.9-.7 2.7l-3.2 4.4c-1.1 1.6-3.4 2-5 .8zm8.3 6.1l-1.3-1c-.8-.6-1.3-1.4-1.4-2.4-.1-1 .1-1.9.7-2.7l5.21-7.1c1.2-1.6 3.5-1.9 5.1-.8l1.3 1c.8.6 1.3 1.4 1.4 2.4.1 1-.1 1.9-.7 2.7l-5.2 7.1c-1.2 1.7-3.5 2-5.1.8zm12.52 4.49c-.5.7-1.2 1.1-2.1 1.2-.8.1-1.7-.1-2.4-.6l-1-.7c-1.4-1-1.7-3-.7-4.4l1.3-1.8c1-1.4 3-1.7 4.4-.7l1 .7c.7.5 1.1 1.2 1.2 2.1.1.8-.1 1.7-.6 2.4l-1.1 1.8zM42.94 37.46c-.2.1-.4.4-.4.6v12.3c0 .3.2.6.5.7.1 0 .8.3 1.9.3 1 0 2.4-.2 3.8-1 2.3-1.4 3.9-4.1 4.7-8.1h11.51c.5 1.9 2.6 7.4 10.41 7.4h3.9l21.62 14.78a4.77 4.77 0 0 1 1.2 6.5 4.79 4.79 0 0 1-6.5 1.2l-5.5-3.7-15.52-10.7c-.3-.2-.8-.1-1 .2-.2.3-.1.8.2 1l15.51 10.6a4.77 4.77 0 0 1 1.2 6.5 4.68 4.68 0 0 1-6.5 1.19l-15.51-10.6c-.3-.2-.7-.1-1 .1-.1.1-.2.1-.2.2-.2.3-.1.8.2 1l10.6 7a4.77 4.77 0 0 1 1.2 6.5 4.68 4.68 0 0 1-6.5 1.2l-10-7.1c-.3-.2-.8-.2-1 .2-.2.3-.2.8.2 1l3.3 2.4c.1.1.1.3.3.3a4.77 4.77 0 0 1 1.2 6.5 4.79 4.79 0 0 1-6.5 1.2c-.11-.11-.31-.11-.41-.11.7-1 1-2.1.8-3.3a4.5 4.5 0 0 0-1.8-3l-1-.7c-1-.8-2.3-1-3.4-.9l1.8-2.5c.8-1.1 1.1-2.39.9-3.79-.2-1.3-.9-2.5-2-3.3l-1.3-1a5.16 5.16 0 0 0-7.01.9v-.1c-.2-1.3-.9-2.5-2-3.3l-1.3-1c-2.1-1.49-5.1-.99-6.8 1-.2-1.2-.9-2.39-1.91-3.19l-1.5-1.1c-1.1-.8-2.4-1.1-3.7-.9-.2 0-.4.1-.5.1-.2-.3-.3-.6-.4-.9-.2-.4-.4-.8-.6-1.4-1.1-2.2-3.5-4.2-4.5-5.09l14.1-20.48c.3-.5.5-1 .5-1.5h15.11l-10.4 5.9z"/>
  <path d="M107.08 46.16c0 1.7 1.4 3.2 3.2 3.2 1.7 0 3.21-1.4 3.21-3.2 0-1.7-1.4-3.2-3.2-3.2-1.7.1-3.2 1.5-3.2 3.2zm4.9 0c0 .9-.8 1.7-1.7 1.7-.9 0-1.7-.8-1.7-1.7 0-.9.8-1.7 1.7-1.7.9.1 1.7.8 1.7 1.7zM16.62 43.06c-1.7 0-3.2 1.4-3.2 3.2 0 1.7 1.4 3.2 3.2 3.2 1.7 0 3.2-1.4 3.2-3.2 0-1.8-1.5-3.2-3.2-3.2zm0 4.8c-.9 0-1.7-.8-1.7-1.7 0-.9.8-1.7 1.7-1.7.9 0 1.7.8 1.7 1.7 0 1-.8 1.7-1.7 1.7zM96.18 30.37c-.3.2-.4.7-.2 1l3.9 5.8c.1.2.4.3.6.3.1 0 .3 0 .4-.1.3-.2.4-.7.2-1l-3.9-5.8c-.2-.3-.7-.4-1-.2zM27.42 37.17l3.9-5.8c.2-.3.1-.8-.2-1-.3-.2-.8-.1-1 .2l-3.9 5.8c-.2.3-.1.8.2 1 .1.1.3.1.4.1.2 0 .5-.1.6-.3z"/>
</svg>
