<?xml version="1.0" encoding="utf-8"?>
<svg viewBox="0 0 127.025 107" width="127.025" height="107" xmlns="http://www.w3.org/2000/svg">
  <g transform="matrix(1, 0, 0, 0.987996, -0.475, -9.682369)">
    <path d="M85.8,47.2c0.1,0.1,0.3,0.1,0.4,0.1c0.1,0,0.3,0,0.4-0.1c2.2-1.5,4.2-3.4,5.7-5.6c1.5-2.1,2.7-4.5,3.6-7.1   c0.5-1.5,0.9-3,1.2-4.6c0-0.2,0-0.4-0.1-0.6c-0.1-0.2-0.3-0.3-0.5-0.3c-3.7-0.6-7-1.8-10-3.5c-0.2-0.1-0.5-0.1-0.7,0   c-3,1.8-6.3,2.9-10,3.5c-0.2,0-0.4,0.1-0.5,0.3c-0.1,0.2-0.2,0.4-0.1,0.6C76.2,35.1,78.8,42.3,85.8,47.2z M86.3,27   c2.8,1.6,6,2.7,9.4,3.4c-0.3,1.3-0.6,2.5-1,3.7c-0.8,2.5-2,4.7-3.4,6.7c-1.4,1.9-3,3.6-5,4.9c-6-4.3-8.4-10.5-9.4-15.3   C80.3,29.7,83.4,28.6,86.3,27z"/>
    <path d="M106.9,74.9c0,0,0-0.1,0-0.1c0,0,0-0.1,0-0.1c0,0,0-0.1,0-0.1c0,0,0-0.1-0.1-0.1c0,0,0,0,0,0c0,0,0,0-0.1-0.1   c0,0,0-0.1-0.1-0.1l-2.8-2.1c0,0-0.1,0-0.1,0c0,0-0.1,0-0.1-0.1c0,0-0.1,0-0.1,0c0,0-0.1,0-0.1,0H80.1v-0.4c0-3-2.4-5.4-5.4-5.4   H62.5c-3,0-5.4,2.4-5.4,5.4v9.3c0,3,2.4,5.4,5.4,5.4h12.2c3,0,5.4-2.4,5.4-5.4v-1.1l3.6-1.3l1.6,1.2c0.2,0.1,0.4,0.2,0.6,0.1   l4.6-1.3l1.5,1.8c0.1,0.2,0.4,0.3,0.6,0.3c0.2,0,0.3-0.1,0.5-0.2l2-1.6l1.1,1.5c0.1,0.2,0.3,0.3,0.5,0.3c0.2,0,0.4,0,0.6-0.1   l2.8-2.1l1,1c0.3,0.3,0.7,0.3,1,0.1l4.7-3.8c0,0,0-0.1,0.1-0.1c0,0,0,0,0.1,0c0,0,0,0,0,0c0,0,0-0.1,0.1-0.1   C106.9,74.9,106.9,74.9,106.9,74.9z M78.7,80.8c0,2.2-1.8,3.9-3.9,3.9H62.5c-2.2,0-3.9-1.8-3.9-3.9v-9.3c0-2.2,1.8-3.9,3.9-3.9   h12.2c2.2,0,3.9,1.8,3.9,3.9V80.8z M101.6,77.5l-0.9-1c-0.3-0.3-0.7-0.3-1-0.1l-2.7,2.1l-1.1-1.5c-0.1-0.2-0.3-0.3-0.5-0.3   c-0.2,0-0.4,0-0.6,0.2l-2.1,1.6L91.4,77c-0.2-0.2-0.5-0.3-0.8-0.2l-4.7,1.4L84.2,77c-0.2-0.1-0.4-0.2-0.7-0.1l-3.4,1.2v-4.7h23   l1.9,1.4L101.6,77.5z"/>
    <path d="M63,69.7c-1.3,0-2.4,1.1-2.4,2.4v8.2c0,1.3,1.1,2.4,2.4,2.4c1.3,0,2.4-1.1,2.4-2.4v-8.2C65.4,70.7,64.3,69.7,63,69.7z    M63.9,80.2c0,0.5-0.4,0.9-0.9,0.9c-0.5,0-0.9-0.4-0.9-0.9v-8.2c0-0.5,0.4-0.9,0.9-0.9c0.5,0,0.9,0.4,0.9,0.9V80.2z"/>
    <path d="M75.4,71.5c-0.4,0-0.7,0.3-0.7,0.7v7.9c0,0.4,0.3,0.7,0.7,0.7c0.4,0,0.7-0.3,0.7-0.7v-7.9C76.1,71.8,75.8,71.5,75.4,71.5z"/>
    <path d="M42.7,55c-0.6-0.1-1.3,0.1-1.7,0.5c-0.6,0.5-1.8,0.8-2.8,0.8c-1.1,0-2.3-0.4-2.8-0.8c-0.5-0.4-1.1-0.6-1.7-0.5   c-0.6,0.1-1.2,0.4-1.6,0.9c-0.8,1.1-1.2,2.6-1,4.5l0.3,4.9c0,0.4,0.3,0.7,0.7,0.7h12.3c0.4,0,0.7-0.3,0.7-0.7l0.3-4.9   c0.1-1.9-0.2-3.4-1-4.5C43.9,55.4,43.3,55.1,42.7,55z M43.9,60.3l-0.3,4.2H32.7l-0.3-4.2c-0.1-1.5,0.1-2.7,0.7-3.5   c0.1-0.2,0.4-0.3,0.6-0.3c0.2,0,0.5,0,0.6,0.2c1,0.8,2.6,1.2,3.8,1.2c1.2,0,2.8-0.4,3.8-1.2c0.2-0.1,0.4-0.2,0.6-0.2   c0.2,0,0.5,0.1,0.6,0.3C43.7,57.6,44,58.8,43.9,60.3z"/>
    <path d="M38.1,54.8c2.4,0,4.3-2,4.3-4.6c0-2.5-1.9-4.6-4.3-4.6c-2.4,0-4.3,2-4.3,4.6C33.8,52.8,35.8,54.8,38.1,54.8z M38.1,47.2   c1.6,0,2.8,1.4,2.8,3.1c0,1.7-1.3,3.1-2.8,3.1s-2.8-1.4-2.8-3.1C35.3,48.6,36.6,47.2,38.1,47.2z"/>
    <path d="M38.1,41.9c-8.1,0-14.7,6.6-14.7,14.7c0,8.1,6.6,14.7,14.7,14.7s14.7-6.6,14.7-14.7C52.8,48.5,46.2,41.9,38.1,41.9z    M38.1,69.9c-7.3,0-13.2-5.9-13.2-13.2c0-7.3,5.9-13.2,13.2-13.2s13.2,5.9,13.2,13.2C51.4,63.9,45.4,69.9,38.1,69.9z"/>
    <path d="M108.5,13.8c0.1,0.1,0.3,0.2,0.5,0.2c0.2,0,0.4-0.1,0.5-0.2c0.3-0.3,0.3-0.8,0-1l-1.6-1.6c-0.3-0.3-0.8-0.3-1,0   c-0.3,0.3-0.3,0.8,0,1L108.5,13.8z"/>
    <path d="M113.7,19c0.1,0.1,0.3,0.2,0.5,0.2c0.2,0,0.4-0.1,0.5-0.2c0.3-0.3,0.3-0.8,0-1l-1.6-1.6c-0.3-0.3-0.8-0.3-1,0   c-0.3,0.3-0.3,0.8,0,1L113.7,19z"/>
    <path d="M107.4,19.2c0.2,0,0.4-0.1,0.5-0.2l1.6-1.6c0.3-0.3,0.3-0.8,0-1c-0.3-0.3-0.8-0.3-1,0l-1.6,1.6c-0.3,0.3-0.3,0.8,0,1   C107.1,19.1,107.3,19.2,107.4,19.2z"/>
    <path d="M112.6,14c0.2,0,0.4-0.1,0.5-0.2l1.6-1.6c0.3-0.3,0.3-0.8,0-1c-0.3-0.3-0.8-0.3-1,0l-1.6,1.6c-0.3,0.3-0.3,0.8,0,1   C112.3,13.9,112.5,14,112.6,14z"/>
    <path d="M1.8,109.5c-0.3-0.3-0.8-0.3-1,0s-0.3,0.8,0,1l1.6,1.6c0.1,0.1,0.3,0.2,0.5,0.2s0.4-0.1,0.5-0.2c0.3-0.3,0.3-0.8,0-1   L1.8,109.5z"/>
    <path d="M7,114.7c-0.3-0.3-0.8-0.3-1,0s-0.3,0.8,0,1l1.6,1.6c0.1,0.1,0.3,0.2,0.5,0.2s0.4-0.1,0.5-0.2c0.3-0.3,0.3-0.8,0-1L7,114.7   z"/>
    <path d="M2.3,114.7l-1.6,1.6c-0.3,0.3-0.3,0.8,0,1c0.1,0.1,0.3,0.2,0.5,0.2c0.2,0,0.4-0.1,0.5-0.2l1.6-1.6c0.3-0.3,0.3-0.8,0-1   C3.1,114.4,2.6,114.4,2.3,114.7z"/>
    <path d="M7.5,109.5l-1.6,1.6c-0.3,0.3-0.3,0.8,0,1c0.1,0.1,0.3,0.2,0.5,0.2s0.4-0.1,0.5-0.2l1.6-1.6c0.3-0.3,0.3-0.8,0-1   C8.3,109.2,7.8,109.2,7.5,109.5z"/>
    <path d="M4.6,37.9c0.4,0,0.7-0.3,0.7-0.7V25.3c0-0.4-0.3-0.7-0.7-0.7c-0.4,0-0.7,0.3-0.7,0.7v11.8C3.9,37.5,4.2,37.9,4.6,37.9z"/>
    <path d="M4.6,47.6c0.4,0,0.7-0.3,0.7-0.7v-4.2c0-0.4-0.3-0.7-0.7-0.7c-0.4,0-0.7,0.3-0.7,0.7v4.2C3.9,47.3,4.2,47.6,4.6,47.6z"/>
    <path d="M119.3,71.8c0.4,0,0.7-0.3,0.7-0.7V59.3c0-0.4-0.3-0.7-0.7-0.7c-0.4,0-0.7,0.3-0.7,0.7v11.8   C118.6,71.5,118.9,71.8,119.3,71.8z"/>
    <path d="M119.3,81.6c0.4,0,0.7-0.3,0.7-0.7v-4.2c0-0.4-0.3-0.7-0.7-0.7c-0.4,0-0.7,0.3-0.7,0.7v4.2   C118.6,81.2,118.9,81.6,119.3,81.6z"/>
    <path d="M48.7,108.7c-1.9,0-3.5,1.6-3.5,3.5c0,1.9,1.6,3.5,3.5,3.5c1.9,0,3.5-1.6,3.5-3.5C52.2,110.3,50.6,108.7,48.7,108.7z    M48.7,114.2c-1.1,0-2-0.9-2-2s0.9-2,2-2c1.1,0,2,0.9,2,2S49.8,114.2,48.7,114.2z"/>
    <path d="M71.4,16.8c1.9,0,3.5-1.6,3.5-3.5s-1.6-3.5-3.5-3.5c-1.9,0-3.5,1.6-3.5,3.5S69.4,16.8,71.4,16.8z M71.4,11.3   c1.1,0,2,0.9,2,2s-0.9,2-2,2c-1.1,0-2-0.9-2-2S70.2,11.3,71.4,11.3z"/>
    <path d="M8.1,78.3c0-1.9-1.6-3.5-3.5-3.5s-3.5,1.6-3.5,3.5c0,1.9,1.6,3.5,3.5,3.5S8.1,80.3,8.1,78.3z M4.6,80.4c-1.1,0-2-0.9-2-2   s0.9-2,2-2c1.1,0,2,0.9,2,2S5.8,80.4,4.6,80.4z"/>
    <path d="M26.9,16.2c0,0.4,0.3,0.7,0.7,0.7H43c0.4,0,0.7-0.3,0.7-0.7c0-0.4-0.3-0.7-0.7-0.7H27.6C27.2,15.4,26.9,15.8,26.9,16.2z"/>
    <path d="M17.5,16.9h5c0.4,0,0.7-0.3,0.7-0.7c0-0.4-0.3-0.7-0.7-0.7h-5c-0.4,0-0.7,0.3-0.7,0.7C16.8,16.6,17.1,16.9,17.5,16.9z"/>
    <path d="M17.5,11.6h10.8c0.4,0,0.7-0.3,0.7-0.7s-0.3-0.7-0.7-0.7H17.5c-0.4,0-0.7,0.3-0.7,0.7S17.1,11.6,17.5,11.6z"/>
    <path d="M32.9,11.6h3.5c0.4,0,0.7-0.3,0.7-0.7s-0.3-0.7-0.7-0.7h-3.5c-0.4,0-0.7,0.3-0.7,0.7S32.5,11.6,32.9,11.6z"/>
    <path d="M117.4,112.2c0-0.4-0.3-0.7-0.7-0.7h-15.4c-0.4,0-0.7,0.3-0.7,0.7c0,0.4,0.3,0.7,0.7,0.7h15.4   C117.1,112.9,117.4,112.6,117.4,112.2z"/>
    <path d="M121,112.2c0,0.4,0.3,0.7,0.7,0.7h5c0.4,0,0.7-0.3,0.7-0.7c0-0.4-0.3-0.7-0.7-0.7h-5C121.4,111.4,121,111.8,121,112.2z"/>
    <path d="M126.8,116.7H116c-0.4,0-0.7,0.3-0.7,0.7c0,0.4,0.3,0.7,0.7,0.7h10.8c0.4,0,0.7-0.3,0.7-0.7   C127.5,117.1,127.2,116.7,126.8,116.7z"/>
    <path d="M111.4,116.7h-3.5c-0.4,0-0.7,0.3-0.7,0.7c0,0.4,0.3,0.7,0.7,0.7h3.5c0.4,0,0.7-0.3,0.7-0.7   C112.1,117.1,111.8,116.7,111.4,116.7z"/>
    <path d="M16.9,92.7h95.3c0.4,0,0.7-0.3,0.7-0.7V40.7c0-2.9-2.4-5.3-5.3-5.3h-5.8c1.9-6,1.7-10.8,1.7-11c0-0.4-0.4-0.7-0.8-0.7   c-6.4,0.1-10.8-1.7-13.4-3.3c-1.7-1-2.5-1.9-2.5-1.9c-0.1-0.1-0.3-0.2-0.5-0.2c0,0,0,0,0,0c-0.2,0-0.4,0.1-0.5,0.2   c-0.1,0.1-5.2,5.4-15.9,5.2c-0.4,0-0.7,0.3-0.8,0.7c0,0.1-0.2,5,1.7,11H21.5c-2.9,0-5.3,2.4-5.3,5.3v51.2   C16.2,92.3,16.5,92.7,16.9,92.7z M86.3,20c0.5,0.4,1.2,1,2.3,1.7c2.6,1.6,7.1,3.5,13.4,3.5c0,1.6-0.2,5.9-1.9,10.7   c-1,3-2.5,5.8-4.2,8.2c-2.5,3.5-5.7,6.2-9.6,8.3c-14.6-7.7-15.7-23.7-15.7-27.2C79.6,25.2,84.7,21.4,86.3,20z M17.6,40.7   c0-2.1,1.7-3.8,3.8-3.8h49.8c2.1,6,6.4,12.8,14.7,17c0.1,0.1,0.2,0.1,0.3,0.1s0.2,0,0.3-0.1c4.2-2.2,7.7-5.2,10.5-8.9   c1.8-2.4,3.2-5.1,4.2-8.1h6.3c2.1,0,3.8,1.7,3.8,3.8v50.5H17.6V40.7z"/>
    <path d="M121.8,99.6l1.1-1.9c0.2-0.4,0.2-0.9,0-1.3c-0.2-0.4-0.7-0.7-1.1-0.7H7.3c-0.5,0-0.9,0.3-1.1,0.7c-0.2,0.4-0.2,0.9,0,1.3   l1.1,1.9c1.9,3.2,5.5,5.2,9.2,5.2h96C116.3,104.8,119.8,102.8,121.8,99.6z M8.6,98.8l-1-1.6h113.8l-1,1.6c-1.7,2.8-4.7,4.5-8,4.5   h-96C13.3,103.3,10.3,101.6,8.6,98.8z"/>
  </g>
</svg>