<svg xmlns="http://www.w3.org/2000/svg" width="1081.4" height="821.1" data-name="Layer 1">
  <defs>
    <linearGradient id="a" x1="853" x2="853" y1="854.5" y2="216.1" gradientUnits="userSpaceOnUse">
      <stop offset="0" stop-color="gray" stop-opacity=".3"/>
      <stop offset=".5" stop-color="gray" stop-opacity=".1"/>
      <stop offset="1" stop-color="gray" stop-opacity=".1"/>
    </linearGradient>
  </defs>
  <path fill="#6c63ff" d="M1002.8 583.4q-5 4.4-10.4 8.6l-1.8 1.5a363.6 363.6 0 0 1-39.5 26.7 640.5 640.5 0 0 1-48.9 25.8 810.8 810.8 0 0 1-77 32.4l-1.1.4q-17.3 6.2-35 11.4h-.2q-12.3 3.7-24.8 6.7l-1.1.3q-18.4 4.4-37.2 7.5l-2.9.5q-13.7 2.2-27.6 3.5c-52.1 5-104.9 1-156.7-6-104.6-14.2-207.8-40.8-302-82.5a836.8 836.8 0 0 1-104-54.9l-14-9-2.2-1.4C70.4 524.2 29 486.8 9.7 439.6-11.8 386.9 1.9 320 55.3 288.9a214 214 0 0 1 61.1-21.3l2.2-.5 11-2.4c12.6-2.6 25.4-5.3 38-8.3a374 374 0 0 0 68.1-21.8l4.8-2.2c16.8-8 35.1-19.7 49-33.6 11.9-12.1 20.5-26 22-40.8a45 45 0 0 0-.7-12.6 570 570 0 0 1-4-23.2c-2-14.2-2.6-27.7.1-40.8 2.8-13.3 9.1-26 21.1-38.5q2.8-2.8 5.9-5.6a123.7 123.7 0 0 1 32.5-20.6l4.5-1.9C403.9 1.5 443.5-1.3 480.6.5a598.9 598.9 0 0 1 102.8 14.3l8 1.9a713.3 713.3 0 0 1 84.8 26.2c81.3 30.6 157.5 74.7 228 122.5l3.3 2.3 5 3.4 10 7 7.4 5.2 5.3 3.8 3.3 2.4a690 690 0 0 1 52.1 41l1.8 1.5c20 17.8 38.1 37 52.6 58.6 61.5 91.2 43.3 217.6-42.2 292.8z" opacity=".1"/>
  <path fill="#fefefe" d="M990.7 16.7v576.8a363.6 363.6 0 0 1-39.5 26.7H236.7a836.8 836.8 0 0 1-104-54.9l-14-9V16.8z"/>
  <g fill="#ff6584" opacity=".7">
    <path d="M781.1 234a21 21 0 1 0 21 21 21 21 0 0 0-21-21zm0 38a17 17 0 0 1-17-17 16.6 16.6 0 0 1 1-5.7 17 17 0 1 1 16 22.6z"/>
    <path d="M787.5 264l2.7-2.6a1.2 1.2 0 0 0 0-1.7l-4.8-4.7 4.8-4.8a1.2 1.2 0 0 0 0-1.7l-2.7-2.6a1.2 1.2 0 0 0-1.6 0l-4.8 4.7-4.8-4.7a1.2 1.2 0 0 0-1.6 0l-2.7 2.7a1.2 1.2 0 0 0 0 1.6l4.8 4.8-4.8 4.8a1.2 1.2 0 0 0 0 1.6l2.7 2.7a1.2 1.2 0 0 0 1.6 0l4.8-4.8 4.8 4.8a1.2 1.2 0 0 0 1.6 0z"/>
  </g>
  <path fill="#6c63ff" d="M739.1 403a21 21 0 0 0-8.9-13.6 21 21 0 0 0-16-3.1l-.6.1a19.7 19.7 0 0 0-3.3 1.1 21 21 0 0 0 0 38.7l.6.3a21 21 0 0 0 28.6-19.6 20.4 20.4 0 0 0-.4-4zm-3.8 6.4v.2a17 17 0 0 1-24 12.6 6.5 6.5 0 0 1-.5-.3 16.4 16.4 0 0 1-3.2-2 17 17 0 0 1 2.3-27.7 16.2 16.2 0 0 1 3.4-1.5l.6-.2a17 17 0 0 1 21.6 16.3 16.3 16.3 0 0 1-.3 2.6z" opacity=".1"/>
  <path fill="#6c63ff" d="M725 416l2.6-2.7a1.2 1.2 0 0 0 0-1.7l-4.8-4.7 4.8-4.8a1.2 1.2 0 0 0 0-1.7l-2.7-2.6a1.2 1.2 0 0 0-1.6 0l-4.8 4.8-4.8-4.8a1.2 1.2 0 0 0-1.7 0l-2.6 2.6a1.2 1.2 0 0 0 0 1.7l4.8 4.8-4.8 4.7a1.2 1.2 0 0 0 0 1.7l2.6 2.6a1.2 1.2 0 0 0 1.7 0l4.8-4.7 4.7 4.7a1.2 1.2 0 0 0 1.7 0z" opacity=".1"/>
  <path fill="#3acc6c" d="M677 95.9l-1.9-2a1 1 0 0 0-1.4 0l-12 12-5.1-5.2a1 1 0 0 0-1.4 0l-2 2a1 1 0 0 0 0 1.4l7.7 7.8a1 1 0 0 0 1.5 0L677 97.3a1 1 0 0 0 0-1.4zm0 0l-1.9-2a1 1 0 0 0-1.4 0l-12 12-5.1-5.2a1 1 0 0 0-1.4 0l-2 2a1 1 0 0 0 0 1.4l7.7 7.8a1 1 0 0 0 1.5 0L677 97.3a1 1 0 0 0 0-1.4zm0 0l-1.9-2a1 1 0 0 0-1.4 0l-12 12-5.1-5.2a1 1 0 0 0-1.4 0l-2 2a1 1 0 0 0 0 1.4l7.7 7.8a1 1 0 0 0 1.5 0L677 97.3a1 1 0 0 0 0-1.4zm0 0l-1.9-2a1 1 0 0 0-1.4 0l-12 12-5.1-5.2a1 1 0 0 0-1.4 0l-2 2a1 1 0 0 0 0 1.4l7.7 7.8a1 1 0 0 0 1.5 0L677 97.3a1 1 0 0 0 0-1.4zm-11.9-15.1a21 21 0 1 0 21 21 21 21 0 0 0-21-21zm0 38a17 17 0 1 1 17-17 17 17 0 0 1-17 17zm12-22.9l-2-2a1 1 0 0 0-1.4 0l-12 12-5.1-5.1a1 1 0 0 0-1.4 0l-2 1.9a1 1 0 0 0 0 1.4l7.7 7.8a1 1 0 0 0 1.5 0L677 97.4a1 1 0 0 0 0-1.5zm0 0l-2-2a1 1 0 0 0-1.4 0l-12 12-5.1-5.1a1 1 0 0 0-1.4 0l-2 1.9a1 1 0 0 0 0 1.4l7.7 7.8a1 1 0 0 0 1.5 0L677 97.4a1 1 0 0 0 0-1.5zm0 0l-2-2a1 1 0 0 0-1.4 0l-12 12-5.1-5.1a1 1 0 0 0-1.4 0l-2 1.9a1 1 0 0 0 0 1.4l7.7 7.8a1 1 0 0 0 1.5 0L677 97.4a1 1 0 0 0 0-1.5zm0 0l-2-2a1 1 0 0 0-1.4 0l-12 12-5.1-5.1a1 1 0 0 0-1.4 0l-2 1.9a1 1 0 0 0 0 1.4l7.7 7.8a1 1 0 0 0 1.5 0L677 97.4a1 1 0 0 0 0-1.5zm0 0l-2-2a1 1 0 0 0-1.4 0l-12 12-5.1-5.1a1 1 0 0 0-1.4 0l-2 1.9a1 1 0 0 0 0 1.4l7.7 7.8a1 1 0 0 0 1.5 0L677 97.4a1 1 0 0 0 0-1.5z" opacity=".7"/>
  <path fill="#6c63ff" d="M714.2 249l-1.9-1.9a1 1 0 0 0-1.4 0l-12 11.9-5-5.1a1 1 0 0 0-1.5 0l-2 1.9a1 1 0 0 0 0 1.4l7.7 7.8a1 1 0 0 0 1.5 0l14.6-14.5a1 1 0 0 0 0-1.5zm0 0l-1.9-1.9a1 1 0 0 0-1.4 0l-12 11.9-5-5.1a1 1 0 0 0-1.5 0l-2 1.9a1 1 0 0 0 0 1.4l7.7 7.8a1 1 0 0 0 1.5 0l14.6-14.5a1 1 0 0 0 0-1.5zm0 0l-1.9-1.9a1 1 0 0 0-1.4 0l-12 11.9-5-5.1a1 1 0 0 0-1.5 0l-2 1.9a1 1 0 0 0 0 1.4l7.7 7.8a1 1 0 0 0 1.5 0l14.6-14.5a1 1 0 0 0 0-1.5zm0 0l-1.9-1.9a1 1 0 0 0-1.4 0l-12 11.9-5-5.1a1 1 0 0 0-1.5 0l-2 1.9a1 1 0 0 0 0 1.4l7.7 7.8a1 1 0 0 0 1.5 0l14.6-14.5a1 1 0 0 0 0-1.5zm-11.9-15a21 21 0 1 0 21 21 21 21 0 0 0-21-21zm0 38a17 17 0 1 1 17-17 17 17 0 0 1-17 17zm12-23l-2-1.9a1 1 0 0 0-1.4 0l-12 12-5-5.2a1 1 0 0 0-1.5 0l-2 2a1 1 0 0 0 0 1.3l7.7 7.8a1 1 0 0 0 1.5 0l14.6-14.5a1 1 0 0 0 0-1.5zm0 0l-2-1.9a1 1 0 0 0-1.4 0l-12 12-5-5.2a1 1 0 0 0-1.5 0l-2 2a1 1 0 0 0 0 1.3l7.7 7.8a1 1 0 0 0 1.5 0l14.6-14.5a1 1 0 0 0 0-1.5zm0 0l-2-1.9a1 1 0 0 0-1.4 0l-12 12-5-5.2a1 1 0 0 0-1.5 0l-2 2a1 1 0 0 0 0 1.3l7.7 7.8a1 1 0 0 0 1.5 0l14.6-14.5a1 1 0 0 0 0-1.5zm0 0l-2-1.9a1 1 0 0 0-1.4 0l-12 12-5-5.2a1 1 0 0 0-1.5 0l-2 2a1 1 0 0 0 0 1.3l7.7 7.8a1 1 0 0 0 1.5 0l14.6-14.5a1 1 0 0 0 0-1.5zm0 0l-2-1.9a1 1 0 0 0-1.4 0l-12 12-5-5.2a1 1 0 0 0-1.5 0l-2 2a1 1 0 0 0 0 1.3l7.7 7.8a1 1 0 0 0 1.5 0l14.6-14.5a1 1 0 0 0 0-1.5z" opacity=".1"/>
  <path fill="#3acc6c" d="M651.4 402.2l-2-2a1 1 0 0 0-1.4 0l-12 12-5-5.2a1 1 0 0 0-1.5 0l-2 2a1 1 0 0 0 0 1.4l7.8 7.7a1 1 0 0 0 1.4 0l14.6-14.5a1 1 0 0 0 0-1.4zm0 0l-2-2a1 1 0 0 0-1.4 0l-12 12-5-5.2a1 1 0 0 0-1.5 0l-2 2a1 1 0 0 0 0 1.4l7.8 7.7a1 1 0 0 0 1.4 0l14.6-14.5a1 1 0 0 0 0-1.4zm0 0l-2-2a1 1 0 0 0-1.4 0l-12 12-5-5.2a1 1 0 0 0-1.5 0l-2 2a1 1 0 0 0 0 1.4l7.8 7.7a1 1 0 0 0 1.4 0l14.6-14.5a1 1 0 0 0 0-1.4zm0 0l-2-2a1 1 0 0 0-1.4 0l-12 12-5-5.2a1 1 0 0 0-1.5 0l-2 2a1 1 0 0 0 0 1.4l7.8 7.7a1 1 0 0 0 1.4 0l14.6-14.5a1 1 0 0 0 0-1.4zm-12-15.1a21 21 0 1 0 21 21 21 21 0 0 0-21-21zm0 38a17 17 0 1 1 17-17 17 17 0 0 1-17 17zm12-23l-2-1.8a1 1 0 0 0-1.4 0L636 412l-5-5a1 1 0 0 0-1.5 0l-2 1.8a1 1 0 0 0 0 1.5l7.8 7.8a1 1 0 0 0 1.4 0l14.6-14.6a1 1 0 0 0 0-1.4zm0 0l-2-1.8a1 1 0 0 0-1.4 0L636 412l-5-5a1 1 0 0 0-1.5 0l-2 1.8a1 1 0 0 0 0 1.5l7.8 7.8a1 1 0 0 0 1.4 0l14.6-14.6a1 1 0 0 0 0-1.4zm0 0l-2-1.8a1 1 0 0 0-1.4 0L636 412l-5-5a1 1 0 0 0-1.5 0l-2 1.8a1 1 0 0 0 0 1.5l7.8 7.8a1 1 0 0 0 1.4 0l14.6-14.6a1 1 0 0 0 0-1.4zm0 0l-2-1.8a1 1 0 0 0-1.4 0L636 412l-5-5a1 1 0 0 0-1.5 0l-2 1.8a1 1 0 0 0 0 1.5l7.8 7.8a1 1 0 0 0 1.4 0l14.6-14.6a1 1 0 0 0 0-1.4zm0 0l-2-1.8a1 1 0 0 0-1.4 0L636 412l-5-5a1 1 0 0 0-1.5 0l-2 1.8a1 1 0 0 0 0 1.5l7.8 7.8a1 1 0 0 0 1.4 0l14.6-14.6a1 1 0 0 0 0-1.4z" opacity=".7"/>
  <path fill="#6c63ff" d="M611 555.3l-1.9-1.9a1 1 0 0 0-1.4 0l-12 11.9-5-5.1a1 1 0 0 0-1.5 0l-2 1.9a1 1 0 0 0 0 1.4l7.8 7.8a1 1 0 0 0 1.4 0l14.6-14.5a1 1 0 0 0 0-1.5zm0 0l-1.9-1.9a1 1 0 0 0-1.4 0l-12 11.9-5-5.1a1 1 0 0 0-1.5 0l-2 1.9a1 1 0 0 0 0 1.4l7.8 7.8a1 1 0 0 0 1.4 0l14.6-14.5a1 1 0 0 0 0-1.5zm0 0l-1.9-1.9a1 1 0 0 0-1.4 0l-12 11.9-5-5.1a1 1 0 0 0-1.5 0l-2 1.9a1 1 0 0 0 0 1.4l7.8 7.8a1 1 0 0 0 1.4 0l14.6-14.5a1 1 0 0 0 0-1.5zm0 0l-1.9-1.9a1 1 0 0 0-1.4 0l-12 11.9-5-5.1a1 1 0 0 0-1.5 0l-2 1.9a1 1 0 0 0 0 1.4l7.8 7.8a1 1 0 0 0 1.4 0l14.6-14.5a1 1 0 0 0 0-1.5zm-11.9-15a21 21 0 1 0 21 21 21 21 0 0 0-21-21zm0 38a17 17 0 1 1 17-17 17 17 0 0 1-17 16.9zm12-23l-2-1.9a1 1 0 0 0-1.4 0l-12 11.9-5-5.1a1 1 0 0 0-1.5 0l-2 2a1 1 0 0 0 0 1.3l7.8 7.8a1 1 0 0 0 1.4 0l14.6-14.5a1 1 0 0 0 0-1.5zm0 0l-2-1.9a1 1 0 0 0-1.4 0l-12 11.9-5-5.1a1 1 0 0 0-1.5 0l-2 2a1 1 0 0 0 0 1.3l7.8 7.8a1 1 0 0 0 1.4 0l14.6-14.5a1 1 0 0 0 0-1.5zm0 0l-2-1.9a1 1 0 0 0-1.4 0l-12 11.9-5-5.1a1 1 0 0 0-1.5 0l-2 2a1 1 0 0 0 0 1.3l7.8 7.8a1 1 0 0 0 1.4 0l14.6-14.5a1 1 0 0 0 0-1.5zm0 0l-2-1.9a1 1 0 0 0-1.4 0l-12 11.9-5-5.1a1 1 0 0 0-1.5 0l-2 2a1 1 0 0 0 0 1.3l7.8 7.8a1 1 0 0 0 1.4 0l14.6-14.5a1 1 0 0 0 0-1.5zm0 0l-2-1.9a1 1 0 0 0-1.4 0l-12 11.9-5-5.1a1 1 0 0 0-1.5 0l-2 2a1 1 0 0 0 0 1.3l7.8 7.8a1 1 0 0 0 1.4 0l14.6-14.5a1 1 0 0 0 0-1.5z" opacity=".1"/>
  <path fill="#3acc6c" d="M853.8 172.5l-1.9-2a1 1 0 0 0-1.4 0l-6.2 6.3-2.3 2.2-.2.2-1.2 1.1-2 2.1-5.1-5a1 1 0 0 0-1.5 0l-1.9 1.8a1 1 0 0 0 0 1.5l7.3 7.3.4.4a1 1 0 0 0 .6.3 1 1 0 0 0 .8-.3l6.1-6 2-2 6.6-6.5a1 1 0 0 0 0-1.4zm0 0l-1.9-2a1 1 0 0 0-1.4 0l-6.2 6.3-2.3 2.2-.2.2-1.2 1.1-2 2.1-5.1-5a1 1 0 0 0-1.5 0l-1.9 1.8a1 1 0 0 0 0 1.5l7.3 7.3.4.4a1 1 0 0 0 .6.3 1 1 0 0 0 .8-.3l6.1-6 2-2 6.6-6.5a1 1 0 0 0 0-1.4zm0 0l-1.9-2a1 1 0 0 0-1.4 0l-6.2 6.3-2.3 2.2-.2.2-1.2 1.1-2 2.1-5.1-5a1 1 0 0 0-1.5 0l-1.9 1.8a1 1 0 0 0 0 1.5l7.3 7.3.4.4a1 1 0 0 0 .6.3 1 1 0 0 0 .8-.3l6.1-6 2-2 6.6-6.5a1 1 0 0 0 0-1.4zm0 0l-1.9-2a1 1 0 0 0-1.4 0l-6.2 6.3-2.3 2.2-.2.2-1.2 1.1-2 2.1-5.1-5a1 1 0 0 0-1.5 0l-1.9 1.8a1 1 0 0 0 0 1.5l7.3 7.3.4.4a1 1 0 0 0 .6.3 1 1 0 0 0 .8-.3l6.1-6 2-2 6.6-6.5a1 1 0 0 0 0-1.4zM842 157.3a21 21 0 0 0-7 41l.7.2a21 21 0 0 0 14-.6 19.5 19.5 0 0 0 3-1.5 21 21 0 0 0-10.7-39zm7.4 36.3a16.6 16.6 0 0 1-2.2 1 17.1 17.1 0 0 1-9.8.1l-1.3-.4a17 17 0 1 1 13.3-.7zm4.4-21.1l-1.9-2a1 1 0 0 0-1.4 0l-6.2 6.3-2.3 2.2-.2.2-1.2 1.1-2 2.1-5.1-5a1 1 0 0 0-1.5 0l-1.9 1.8a1 1 0 0 0 0 1.5l7.3 7.3.4.4a1 1 0 0 0 .6.3 1 1 0 0 0 .8-.3l6.1-6 2-2 6.6-6.5a1 1 0 0 0 0-1.4zm0 0l-1.9-2a1 1 0 0 0-1.4 0l-6.2 6.3-2.3 2.2-.2.2-1.2 1.1-2 2.1-5.1-5a1 1 0 0 0-1.5 0l-1.9 1.8a1 1 0 0 0 0 1.5l7.3 7.3.4.4a1 1 0 0 0 .6.3 1 1 0 0 0 .8-.3l6.1-6 2-2 6.6-6.5a1 1 0 0 0 0-1.4zm0 0l-1.9-2a1 1 0 0 0-1.4 0l-6.2 6.3-2.3 2.2-.2.2-1.2 1.1-2 2.1-5.1-5a1 1 0 0 0-1.5 0l-1.9 1.8a1 1 0 0 0 0 1.5l7.3 7.3.4.4a1 1 0 0 0 .6.3 1 1 0 0 0 .8-.3l6.1-6 2-2 6.6-6.5a1 1 0 0 0 0-1.4zm0 0l-1.9-2a1 1 0 0 0-1.4 0l-6.2 6.3-2.3 2.2-.2.2-1.2 1.1-2 2.1-5.1-5a1 1 0 0 0-1.5 0l-1.9 1.8a1 1 0 0 0 0 1.5l7.3 7.3.4.4a1 1 0 0 0 .6.3 1 1 0 0 0 .8-.3l6.1-6 2-2 6.6-6.5a1 1 0 0 0 0-1.4zm0 0l-1.9-2a1 1 0 0 0-1.4 0l-6.2 6.3-2.3 2.2-.2.2-1.2 1.1-2 2.1-5.1-5a1 1 0 0 0-1.5 0l-1.9 1.8a1 1 0 0 0 0 1.5l7.3 7.3.4.4a1 1 0 0 0 .6.3 1 1 0 0 0 .8-.3l6.1-6 2-2 6.6-6.5a1 1 0 0 0 0-1.4z" opacity=".7"/>
  <rect width="439.1" height="40.8" x="167.6" y="81.4" fill="#6c63ff" opacity=".2" rx="20.4" ry="20.4"/>
  <rect width="616.7" height="40.8" x="167.6" y="158" fill="#6c63ff" opacity=".2" rx="20.4" ry="20.4"/>
  <rect width="476.5" height="40.8" x="167.6" y="234.6" fill="#6c63ff" opacity=".1" rx="20.4" ry="20.4"/>
  <rect width="616.7" height="40.8" x="167.6" y="311.1" fill="#6c63ff" opacity=".1" rx="20.4" ry="20.4"/>
  <rect width="415.4" height="40.8" x="167.6" y="387.7" fill="#6c63ff" opacity=".2" rx="20.4" ry="20.4"/>
  <rect width="616.7" height="40.8" x="167.6" y="464.3" fill="#6c63ff" opacity=".1" rx="20.4" ry="20.4"/>
  <rect width="373.1" height="40.8" x="167.6" y="540.9" fill="#6c63ff" opacity=".1" rx="20.4" ry="20.4"/>
  <path fill="#6c63ff" d="M744.4 80.8a21 21 0 1 0 21 21 21 21 0 0 0-21-21zm0 38a17 17 0 1 1 17-17 17 17 0 0 1-17 17z" opacity=".1"/>
  <path fill="#6c63ff" d="M750.8 110.9l2.7-2.7a1.2 1.2 0 0 0 0-1.6l-4.8-4.8 4.8-4.8a1.2 1.2 0 0 0 0-1.6l-2.7-2.7a1.2 1.2 0 0 0-1.7 0l-4.7 4.8-4.8-4.8a1.2 1.2 0 0 0-1.7 0l-2.6 2.7a1.2 1.2 0 0 0 0 1.6l4.8 4.8-4.8 4.8a1.2 1.2 0 0 0 0 1.6l2.6 2.7a1.2 1.2 0 0 0 1.7 0l4.8-4.8 4.8 4.8a1.2 1.2 0 0 0 1.6 0zM920.7 157.3a21 21 0 1 0 21 21 21 21 0 0 0-21-21zm0 38a17 17 0 1 1 14.5-8.2 17 17 0 0 1-14.5 8.2z" opacity=".1"/>
  <path fill="#6c63ff" d="M927.1 187.5l2.7-2.7a1.2 1.2 0 0 0 0-1.7l-4.8-4.7 4.8-4.8a1.2 1.2 0 0 0 0-1.7l-2.7-2.6a1.2 1.2 0 0 0-1.7 0l-4.7 4.8-4.8-4.8a1.2 1.2 0 0 0-1.6 0l-2.7 2.6a1.2 1.2 0 0 0 0 1.7l4.8 4.8-4.8 4.7a1.2 1.2 0 0 0 0 1.7l2.7 2.7a1.1 1.1 0 0 0 1.6 0l4.8-4.8 4.8 4.8a1.2 1.2 0 0 0 1.6 0z" opacity=".1"/>
  <g fill="#ff6584" opacity=".7">
    <path d="M677.3 540.2a21 21 0 1 0 21 21 21 21 0 0 0-21-21zm0 38a17 17 0 1 1 17-17 17 17 0 0 1-17 17z"/>
    <path d="M683.8 570.3l2.6-2.6a1.2 1.2 0 0 0 0-1.7l-4.8-4.8 4.8-4.7a1.2 1.2 0 0 0 0-1.7l-2.6-2.6a1.2 1.2 0 0 0-1.7 0l-4.8 4.7-4.7-4.7a1.2 1.2 0 0 0-1.7 0l-2.7 2.6a1.2 1.2 0 0 0 0 1.7l4.8 4.7-4.8 4.8a1.2 1.2 0 0 0 0 1.7l2.7 2.6a1.1 1.1 0 0 0 1.7 0l4.7-4.7 4.8 4.7a1.2 1.2 0 0 0 1.7 0z"/>
  </g>
  <ellipse cx="766.5" cy="809.3" fill="#6c63ff" opacity=".1" rx="118.9" ry="5.8"/>
  <path fill="url(#a)" d="M928.7 438s-28.1-51.4-23.4-59.7 8.3-20.5 8.3-20.5 10.3-7.1 10.3-10 8.3-9.6 12.6-12.5 2.2-16.7 0-18.4-5.6-7.5-5.6-7.5 3-8.4 0-10.9.4-5 0-7.5 0-11.7 0-11.7a18.8 18.8 0 0 0-11-8l-.4-1.3-1.8-7.8s9-17.3-5.6-26.3a24.4 24.4 0 0 0-3.3-1.7v-1.1a70 70 0 0 0-2.2-13.2c-.7-2.4-1.7-4-3-3.7a2 2 0 0 0-.8.5 9.1 9.1 0 0 0-1.5 1.8.4.4 0 0 1-.1.1 31.4 31.4 0 0 0-3.4 9.6 55.2 55.2 0 0 0-1 6 33 33 0 0 0-1.7 3.7c-1.8 4.6-3.9 12.5 0 18.4l10.6 16.9v.1l.2.3-.3.2v.8l.4 4.2 2.4 36.4a15.4 15.4 0 0 0-2.2-.5 20.2 20.2 0 0 0-3.2-.2c-2.1-8.3-8-16-9-24.7a22.9 22.9 0 0 1-.1-2.6c0-5.4 1.4-10.9 1.3-16.3l-.1-3v-.9a24.6 24.6 0 0 0-13.5-18.6c-2.5-1.2-5.2-2-7.6-3.4-5.7-3.2-9.3-8.9-14.4-12.8-3.8-3-9.5-4.5-13.7-3a63.5 63.5 0 0 0-6.7 1.4 60.4 60.4 0 0 0-15.3 6.3l-2 1.3a8.5 8.5 0 0 0-3 3.6 9.5 9.5 0 0 0-.5 3.9v2.9c-.3 16-17.5 28.3-19 44v4c.3 6.9 3.8 13.3 4.5 20v1.9a30.2 30.2 0 0 1-1.7 9.2 26.9 26.9 0 0 0-6.2 2.5c-5.3 3.4-14.7 9.2-18.2 20.3a29.8 29.8 0 0 0-1.3 9 186.3 186.3 0 0 1-2.9 31.8 59.5 59.5 0 0 1-1.8 7.8 1.8 1.8 0 0 0 0 .8l-2.2 27-.3 4.7-.6 6.8.4 1a31.8 31.8 0 0 1 .8 3.2 16.8 16.8 0 0 1 .3 7 4.8 4.8 0 0 1-1.5 2.6 1 1 0 0 0-.1.2c-.6.8-1.2 3.3-1.6 6.9l-.5 4.6c-1 10.7-1.7 26.6-2 39.8-.4 13-.5 23.3-.5 23.3a26.5 26.5 0 0 0 5.3 2.6c0 .4-.2.7-.4 1.1a52.5 52.5 0 0 0-3.2 13.7c-.9 9.9 1.9 20.8 15.6 26.4a22 22 0 0 0 2.7 1c3 .7 5.2.5 6.8-.5l.1 1.7.3 6.6c.5 11.7 3.4 32.1 3.4 32.1s1 8.4 0 10.9 0 12.5 0 12.5 3 5 0 7.5-3.8 15-3 16.8a.6.6 0 0 1 0 .2c.7 4.1-3 65.8-3 65.8s-3.5 9.4-6.3 19.2c-2.8 9.5-4.8 19.4-2.3 21.3 1.3.9 4.2 1.6 8 2.1l-.2 1.3c-.3 4.4-.9 9.1-1.7 10.3-1.2 1.7-2.5 14.9-3 22v.8a73.7 73.7 0 0 0-3.3 9.3s-9.6 24-6.3 30.3a5.1 5.1 0 0 0 1.2 1.4 2.7 2.7 0 0 0 .3.3c4.6 3.7 16.1 4.5 20.3 4.7l-.1 5.9v.2h5.4v-.1l.3-8.8.1-2.6.1-2.1a37 37 0 0 0 2.4-13.3 58.6 58.6 0 0 1 2-15.5 43 43 0 0 1 2.8-7.6s1.7-9-.6-15.3a11.1 11.1 0 0 0-2-3.5v-.6-.8-.6a57.7 57.7 0 0 1 1.3-12.8 1.4 1.4 0 0 1 0-.2l.2-1v-.2h1.8l9.5.2s4.3-22.2 3.9-31.8v-1.3c-.2-9.5 2.6-22.5 2.6-22.5l3.4-33.8s-1.7-5.9 0-10l4.9-10.7 1.5-3.2.1-.3a6.5 6.5 0 0 1-1.5-.8c-1.4-1-2.7-2.8 1.5-5.5 6.5-4.1 4.4-14.6 4.4-14.6s-2-3.7.3-7 0-16 0-16a52.5 52.5 0 0 0 4.4-10.5 624.2 624.2 0 0 0 8.6-47.6v.6l.1.7.6 5.6v.7l1 10.5s2 27.7.8 38.6v.2a12.8 12.8 0 0 1-.8 3.3c-2.3 5.2-1.8 25.8-1.7 30.4v1c0 .2-1.6 4-1.2 7a4.5 4.5 0 0 0 .8 2 5.3 5.3 0 0 1 .7 3.3v.1a11.8 11.8 0 0 1 0 1.5 27.5 27.5 0 0 1-1.6 5.6s-2.3 6.1-1.5 9.3a3 3 0 0 0 .6 1.1 2.7 2.7 0 0 1 .3 1.2.4.4 0 0 0 0 .2 572 572 0 0 1-2.5 52.7l-.8 10.7-3.4 35.5.3.3 2.1 1.3v.1l-.1 1c-.5 3.5-1.2 7.5-1.9 10.5l-.1.7a9.6 9.6 0 0 0-3.7 1.4c-7.3 13-4 23.2 0 26.2 1.1.8 2 3.2 2.4 6.1l1 12.9v1.5a3.8 3.8 0 0 0 .2 1.2l.3 3.9.5 5.4h3.3v-6.6h.2c5.2.2 13.6.4 17.3.1h1.1a2.5 2.5 0 0 0 .6-.2c2-1 6.8-14.7 2.4-17.9s-5.3-12-5.3-12l-1.2-3.3v-.7c0-4.3 0-9 .6-11.4.6-2.8 1-8.6 1-13.7v-1.2a17 17 0 0 0 2.3-.8h.2a15.7 15.7 0 0 0 3.7-2.3l12.1-54.3 1.3-6.3L892 682s-2.6-12.5 0-14.6c1-.8 1.2-4 1.2-7.8-.1-6.5-1.2-14.8-1.2-14.8s3.5-5.4 5.2-8.7 0-12.1 0-12.1l3.5-20s3.9-24 13.4-44c7-14.8 2.5-54.6-2-75.8l-.4-1.6 7.6-3.7 1-.5 10.7-4.9h.3a74.6 74.6 0 0 1 7.4-2.8 12.5 12.5 0 0 1 2.3-.5c6-.4-12.2-32.2-12.2-32.2zm-135.3 68h1.8l-.6 1.2-.4.7a46 46 0 0 0-1.7 4.1l.7-4.8.2-1.2zm-4.9 26a.7.7 0 0 0 0-.1l-.1-.5-.3-1 1.9-.6v1.7a1 1 0 0 1 0 .2l-.2 1-.3 2.2a81.6 81.6 0 0 0-1-2.9z" transform="translate(-59.3 -39.4)"/>
  <path fill="#a1616a" d="M859 238.3l-10.8 3.8-3.9-6.5-10.2-16.8c-5.4-8.7 1.7-22 1.7-22s1.2-13.4 5.8-17.5 5.8 17.5 5.8 17.5c18.3 8.3 8.5 27.9 8.5 27.9l1.8 7.7z"/>
  <path d="M859 238.3l-10.8 3.8-3.9-6.5v-.5s6.2-4.3 13.4-2.7z" opacity=".1"/>
  <path fill="#5a5773" d="M841.6 282.1l5.4-4.5-2.7-41.3s14-9.5 24.3 5.5c0 0-.4 9.1 0 11.6s-2.9 5 0 7.5 0 10.8 0 10.8 3.3 5.9 5.4 7.5 4.2 15.4 0 18.4-12 9.5-12 12.4-10 10-10 10l-8.8-11.6z"/>
  <path fill="#a1616a" d="M724.6 532.3c-20.2-8.5-15.7-29.4-12-40a55.5 55.5 0 0 1 2.7-6.2l11.4-6.9s2.3 6 4.8 13.9c5.7 18.3 12.3 47.4-7 39.2zM752.3 723.1a33.7 33.7 0 0 0-3 8.4 60.9 60.9 0 0 0-1.2 14.4c0 3.3.3 5.5.3 5.5L726 766.9l.4-4.5c.6-7.1 1.8-20.2 3-22 .7-1.1 1.3-5.9 1.6-10.3l.5-8.2s27-10.2 21 1.2zM805.4 734.2l-.1 9.3c-.1 5-.5 11-1.1 13.7-.6 2.5-.7 7.1-.5 11.4.1 5 .5 9.5.5 9.5s-23-21.7-20.6-23.4c.6-.5 1.2-2.3 1.8-4.8a125.4 125.4 0 0 0 2.7-17.7z"/>
  <path d="M752.3 723.1a33.7 33.7 0 0 0-3 8.4 180.9 180.9 0 0 1-18.4-1.4c.4-4.3.5-8.2.5-8.2s27-10.2 21 1.2zM805.4 734.2l-.1 9.3c-7.2 1.8-14.6-1.8-18.1-4l.9-7.3z" opacity=".1"/>
  <path fill="#605d82" d="M852.4 521.6c-9.2 20-13 43.7-13 43.7l-3.2 20s1.6 8.7 0 12-5 8.8-5 8.8 2.5 20.4 0 22.5 0 14.6 0 14.6l-8.4 42-11.6 54.1c-11.3 9.2-26.2-2.5-26.2-2.5l3.3-35.4s5-62 2.9-64.5.8-10.4.8-10.4 3-7.5.9-10.4.4-9.2.4-9.2-.8-25.4 1.7-31.2 0-41.9 0-41.9l-1-11.2-.6-6.2v-.7l-1 6.4a640.5 640.5 0 0 1-7.4 41.1 53.5 53.5 0 0 1-4.3 10.4s2.2 12.5 0 15.8-.3 7-.3 7 2 10.5-4.2 14.6 0 6.3 0 6.3-4.6 10-6.2 14.1 0 10 0 10l-3.3 33.8s-3 14.1-2.5 23.7-3.8 31.7-3.8 31.7-32 0-37-3.8 8.3-40.4 8.3-40.4 3.7-64.1 2.9-65.8 0-14.1 3-16.6 0-7.5 0-7.5-1-10 0-12.5-.2-10.9-.2-10.9-2.8-20.4-3.2-32-2.5-38-2.5-38 2.2-16.1 2.5-23.8a28 28 0 0 1 3-9.8 87.4 87.4 0 0 1 6.1-10.9s98.7-29.1 102.9-26.2c1 .8 2.7 6 4.3 13.6 4.3 21.1 8.6 60.8 1.9 75.6z"/>
  <circle cx="791.6" cy="238.3" r="28.7" fill="#a1616a"/>
  <path d="M850.4 446l-5.5 2.9s-46.6 22-60 20.8c-10.2-1-36.4-.5-47.8-.2a87.4 87.4 0 0 1 6.2-10.9s98.7-29.1 102.9-26.2c1 .8 2.7 6 4.2 13.6z" opacity=".1"/>
  <path fill="#5a5773" d="M771.6 284.2s-26.6 4.2-32.9 8.3-18.7 12-18.7 29.2-3 34.5-4.6 39.5 26.3 45.4 26.3 45.4l-10 61.2s40-1.3 53.3 0 60-20.8 60-20.8 27.4-14.6 33.3-15-11.7-32.1-11.7-32.1-27-51.2-22.5-59.5 8-20.4 8-20.4l-5-42.5s-7.6-2.5-13.8 2-27.5 2.2-27.5 2.2z"/>
  <path d="M726.5 358.3l-10.4 3-3 39s3.8 10.5 0 13.8-4.5 74.5-4.5 74.5 12 8.8 26.2 2.1c0 0-2.1-8 4.2-36.6s6.2-43.3 6.2-43.3 0-35.8 3-41.7 0-20.4 0-20.4-6-7.9-5.5-10.8-16.2 20.4-16.2 20.4z" opacity=".1"/>
  <path d="M731.5 493a26.5 26.5 0 0 1-18.8-.6 55.5 55.5 0 0 1 2.7-6.3l11.3-6.9s2.3 6 4.8 13.9z" opacity=".1"/>
  <path fill="#5a5773" d="M725.8 358.3l-10.4 3-2.9 39s3.8 10.5 0 13.8-4.6 74.5-4.6 74.5 12.1 8.8 26.3 2.1c0 0-2.1-8 4.1-36.6s6.3-43.3 6.3-43.3 0-35.8 2.9-41.7 0-20.4 0-20.4-5.9-7.9-5.4-10.8-16.3 20.4-16.3 20.4z"/>
  <path d="M832.4 364.6s-5.4 46.6-21.2 55.3c0 0 35.4-10 21.2-55.3zM752.9 368.7s19.6 9.6 15 16.2-15-16.2-15-16.2zM752.9 387.9s12.5 12.9 10 17.5-10-17.5-10-17.5zM853.7 280.9s4.9 8.3 5.4 13.7-5.4-13.7-5.4-13.7zM853.7 269.6s2.5-2 8.7 0-8.7 0-8.7 0zM829.6 513a57.9 57.9 0 0 1-30.4-4l-5.3 13.5-.6-6.2c.9-5.2 2.6-10.8 5.9-12.2 0 0 11.5 9.2 30.4 8.9zM744.2 530.5s25.6 5.3 32.8 4.3zM746.9 537.2s10.9-.5 16.3 1.7zM748.1 541.7a99.4 99.4 0 0 0 15.1 2zM747.5 599c.5-.3 21.8-5.3 24.5-1.7zM747.5 605.6s18.6-2.2 19 0-19 0-19 0zM747.5 611.5s19.8-4 22.2-3.1-22.2 3.1-22.2 3.1zM748.4 751.4L726 766.9l.4-4.5a60.6 60.6 0 0 1 11.5-18.8c5-1.3 8.3-.1 10.3 2.3 0 3.3.3 5.5.3 5.5z" opacity=".1"/>
  <path fill="#5a5773" d="M750.6 765.3a55.7 55.7 0 0 0-4.7 23 35.7 35.7 0 0 1-4.7 18.5 17.5 17.5 0 0 1-1.6 2.2s-15.6-.1-21.1-4.7a5.5 5.5 0 0 1-1.5-1.7c-3-6.2 6.1-30.1 6.1-30.1a66.3 66.3 0 0 1 14.7-28.3c17.5-4.5 12.8 21 12.8 21z"/>
  <path d="M741.2 806.8a17.5 17.5 0 0 1-1.6 2.2s-15.6-.1-21.1-4.7c2.7-8.9 11.3-35.8 15.3-31.2 3.8 4.3 6.4 25 7.4 33.6z" opacity=".1"/>
  <path fill="#5a5773" d="M739 774.8l-1 40.3h5.1s.9-35.4 3.2-40.3-7.3 0-7.3 0z"/>
  <path d="M804.2 778s-23-21.6-20.6-23.3c.6-.5 1.2-2.3 1.8-4.8 4.4-.8 12 1 18.3 18.7.1 5 .5 9.5.5 9.5z" opacity=".1"/>
  <path fill="#5a5773" d="M807.6 802.3a3 3 0 0 1-.6.1c-2.7.5-12.6.2-18.2 0a4 4 0 0 1-3.8-3.9l-.1-5.3c-.3-6.1-1-13.5-3.2-15.1-4-3-7-13.2 0-26 0 0 13.4-10.3 23 20.5 0 0 1 8.8 5.2 11.9s-.4 16.9-2.3 17.8z"/>
  <path d="M807 802.4c-2.7.5-12.6.2-18.2 0a4 4 0 0 1-3.8-3.9l-.1-5.3c1.7-7.4 4.1-15.1 7.2-16.9 0 0 9.5-1 15 26.1z" opacity=".1"/>
  <path fill="#5a5773" d="M783.4 775.4l2.5 33.6h3.2v-36.4l-5.7 2.8z"/>
  <path d="M791.2 192.6a57.4 57.4 0 0 0-25.6 8.2c-2 1.2-4 2.7-4.8 4.8-.8 2-.5 4-.4 6 .2 17.3-19 30.3-18.4 47.5.3 6.8 3.7 13.2 4.3 20 1 11.4-5.6 21.8-12 31.2a25.9 25.9 0 0 0 18.2-6A138.4 138.4 0 0 1 755 374h9.3a7.2 7.2 0 0 1 2.7.3 6.6 6.6 0 0 1 2 1.6c8.7 8.6 14.5 21.2 11.2 33l19.6-7.4c4.7-1.8 9.4-3.6 13.5-6.5s7.5-7 8.4-12c.5-3 .3-6.6 2.8-8.3a15 15 0 0 1 3.9-1.4c5.3-2 7.7-8.1 8.8-13.7a79 79 0 0 0 1.3-21c-1-11.6-4.4-23.5-1.5-35 1.6-6.3 5.2-12.3 5.5-19 .4-10.8-8.1-20.2-9.4-31-.9-7.6 1.9-15.3 1-22.8a24.5 24.5 0 0 0-12.9-18.6c-2.4-1.3-5-2.1-7.4-3.5-5.4-3.1-8.9-8.8-13.8-12.7s-13.1-5.4-16.8-.3z" opacity=".1"/>
  <path fill="#4a4347" d="M791.2 191.3a57.4 57.4 0 0 0-25.6 8.3c-2 1.2-4 2.6-4.8 4.8-.8 1.9-.5 4-.4 6 .2 17.2-19 30.3-18.4 47.5.3 6.8 3.7 13.2 4.3 20 1 11.3-5.6 21.8-12 31.2a25.9 25.9 0 0 0 18.2-6 138.4 138.4 0 0 1 2.5 69.7h9.3a7.2 7.2 0 0 1 2.7.4 6.6 6.6 0 0 1 2 1.6c8.7 8.5 14.5 21.2 11.2 32.9l19.6-7.3c4.7-1.8 9.4-3.6 13.5-6.5s7.5-7.1 8.4-12c.5-3 .3-6.6 2.8-8.3a14.7 14.7 0 0 1 3.9-1.5c5.3-1.9 7.7-8 8.8-13.7a79 79 0 0 0 1.3-20.9c-1-11.7-4.4-23.5-1.5-35 1.6-6.4 5.2-12.3 5.5-19 .4-10.9-8.1-20.3-9.4-31.1-.9-7.6 1.9-15.2 1-22.8a24.5 24.5 0 0 0-12.9-18.6c-2.4-1.2-5-2-7.4-3.4-5.4-3.1-8.9-8.8-13.8-12.7s-13.1-5.4-16.8-.3z"/>
  <g opacity=".1">
    <path d="M760.3 206.2a11.5 11.5 0 0 0 0 1.2v-1.2zM833 246.2c.4-5.3 1.6-10.6 1.2-15.9-.4 5.3-1.6 10.6-1.1 16zM746.3 272.6c-.6-6.2-3.4-12-4.1-18.2a22.9 22.9 0 0 0-.2 3.4c.3 6.8 3.6 13 4.3 19.8a27 27 0 0 0 0-5zM837 297.2a42.9 42.9 0 0 0-1 12.4 38.5 38.5 0 0 1 1-7.2c1.6-6.4 5.2-12.4 5.5-19a20.6 20.6 0 0 0-.2-3.5c-.7 6-3.8 11.4-5.3 17.3zM752.5 297.8a25.9 25.9 0 0 1-14.8 6l-3.5 5.2a25.9 25.9 0 0 0 18.3-6 138 138 0 0 1 5.8 37.3 138.2 138.2 0 0 0-5.8-42.5zM837.2 353c-1 5.6-3.5 11.9-8.9 13.8a15.4 15.4 0 0 0-3.8 1.4c-2.5 1.7-2.3 5.3-2.8 8.3-.9 5-4.3 9.2-8.4 12s-8.8 4.8-13.5 6.5l-18.7 7a25.3 25.3 0 0 1-1 5.6l19.7-7.4c4.7-1.7 9.4-3.5 13.5-6.4s7.5-7.1 8.4-12c.5-3 .3-6.6 2.8-8.3a14.7 14.7 0 0 1 3.9-1.5c5.3-1.9 7.7-8.1 8.8-13.7a78.4 78.4 0 0 0 1.4-17.7 78 78 0 0 1-1.4 12.4zM769 369.4a6.6 6.6 0 0 0-2-1.6 7.2 7.2 0 0 0-2.7-.3H756l-1 5.2h9.2a7.2 7.2 0 0 1 2.7.4 6.6 6.6 0 0 1 2.1 1.6c6.3 6.2 11.1 14.7 12 23.4a37 37 0 0 0-12-28.7z"/>
  </g>
  <path d="M723.4 403.5s7.4-3.1 9 0-9 0-9 0zM726 408.8s7.4-3.1 9 0-9 0-9 0z" opacity=".1"/>
  <path fill="#6c63ff" d="M1002.9 747.5s5.5 7.2-2.6 18-14.6 20-12 26.8c0 0 12.1-20.2 22-20.5s3.4-12.2-7.4-24.3z"/>
  <path d="M1002.9 747.5a8.8 8.8 0 0 1 1 2.2c9.7 11.3 14.8 21.9 5.6 22.1-8.6.3-19 15.7-21.4 19.6a9.2 9.2 0 0 0 .2.9s12.2-20.2 22-20.4 3.4-12.3-7.4-24.4z" opacity=".1"/>
  <path fill="#ffd037" d="M1013 756.6c0 2.6-.2 4.6-.6 4.6s-.6-2-.6-4.6.3-1.3.7-1.3.6-1.2.6 1.3z"/>
  <path fill="#ffd037" d="M1016.6 759.7c-2.2 1.2-4.2 1.9-4.3 1.6s1.4-1.5 3.7-2.8 1.3-.3 1.5 0 1.3 0-1 1.2z"/>
  <path fill="#6c63ff" d="M973.8 747.5s-5.5 7.2 2.6 18 14.6 20 12 26.8c0 0-12.1-20.2-22-20.5s-3.4-12.2 7.4-24.3z"/>
  <path d="M973.8 747.5a9.3 9.3 0 0 0-1 2.2c-9.7 11.3-14.8 21.9-5.6 22.1 8.6.3 19 15.7 21.4 19.6a7.2 7.2 0 0 1-.3.9s-12-20.2-22-20.4-3.3-12.3 7.5-24.4z" opacity=".1"/>
  <path fill="#ffd037" d="M963.6 756.6c0 2.6.3 4.6.7 4.6s.6-2 .6-4.6-.4-1.3-.7-1.3-.6-1.2-.6 1.3z"/>
  <path fill="#ffd037" d="M960.1 759.7c2.2 1.2 4.2 1.9 4.3 1.6s-1.5-1.5-3.7-2.8-1.3-.3-1.5 0-1.3 0 1 1.2z"/>
  <path fill="#a8a8a8" d="M965.4 791.3s15.3-.4 20-3.7 23.6-7.3 24.7-2 23.1 26.3 5.8 26.4-40.3-2.7-45-5.5-5.5-15.2-5.5-15.2z"/>
  <path d="M1016.2 810.2c-17.3.1-40.3-2.7-45-5.5-3.4-2.1-4.8-9.8-5.3-13.4h-.5s1 12.4 5.6 15.2 27.5 5.7 44.9 5.5c5 0 6.7-1.8 6.6-4.4-.7 1.6-2.6 2.6-6.3 2.6z" opacity=".2"/>
  <path fill="#6c63ff" d="M118.6 16.7h872v26.2h-872z" opacity=".1"/>
  <circle cx="136.1" cy="29.8" r="5.5" fill="#fefefe"/>
  <circle cx="153.1" cy="29.8" r="5.5" fill="#fefefe"/>
  <circle cx="170.1" cy="29.8" r="5.5" fill="#fefefe"/>
  <path fill="#6c63ff" d="M459.1 778.8s-42.2-2.5-37.3 27c0 0-1 5.3 3.8 7.7 0 0 0-2.2 4.3-1.4a19.9 19.9 0 0 0 4.6.2 9.6 9.6 0 0 0 5.6-2.3s12-5 16.5-24.4c0 0 3.5-4.2 3.3-5.3l-7.1 3s2.4 5.1.5 9.4c0 0-.2-9.2-1.6-9-.3 0-3.7 1.8-3.7 1.8s4.2 9 1 15.5c0 0 1.2-11-2.3-14.9l-5 3s4.9 9.2 1.5 16.8c0 0 .9-11.6-2.6-16.1l-4.6 3.5s4.7 9.2 1.8 15.4c0 0-.3-13.5-2.7-14.5 0 0-4 3.5-4.6 5 0 0 3.1 6.6 1.2 10.1 0 0-1.2-9-2.2-9 0 0-4 6-4.4 10 0 0 .2-6 3.4-10.6a11.8 11.8 0 0 0-6 3.2s.6-4.2 7-4.6c0 0 3.3-4.5 4.2-4.8 0 0-6.4-.5-10.3 1.2 0 0 3.4-4 11.4-2.2l4.5-3.6s-8.4-1.2-12 0c0 0 4.1-3.4 13.2-.9l5-2.9s-7.2-1.5-11.5-1c0 0 4.5-2.4 12.9.2l3.5-1.6-6.8-1.2c-1.5-.2-1.7-.6-1.7-.6a18.2 18.2 0 0 1 10 1.1s7.4-2.7 7.2-3.2z"/>
  <ellipse cx="430" cy="816.1" fill="#6c63ff" opacity=".1" rx="29.9" ry="5.1"/>
  <path fill="#6c63ff" d="M385 780.4s-23.8-1.4-21 15.3a4 4 0 0 0 2.2 4.2s0-1.2 2.4-.8a11.2 11.2 0 0 0 2.6.2 5.3 5.3 0 0 0 3.2-1.4s6.7-2.7 9.3-13.7c0 0 2-2.4 1.8-3l-4 1.8s1.4 2.9.3 5.3c0 0-.1-5.2-.9-5.1l-2 1s2.3 5 .5 8.7c0 0 .7-6.2-1.3-8.3l-2.8 1.6s2.7 5.2.9 9.5c0 0 .4-6.5-1.5-9l-2.6 2s2.6 5 1 8.6c0 0-.2-7.6-1.6-8.2a15.4 15.4 0 0 0-2.5 2.8s1.7 3.7.6 5.7c0 0-.6-5-1.2-5 0 0-2.2 3.3-2.5 5.6a12.2 12.2 0 0 1 2-6 6.7 6.7 0 0 0-3.5 1.7s.4-2.3 4-2.5c0 0 1.9-2.6 2.4-2.7 0 0-3.6-.3-5.8.6 0 0 1.9-2.2 6.4-1.2l2.6-2s-4.8-.7-6.8 0c0 0 2.3-2 7.5-.5l2.7-1.7a25.2 25.2 0 0 0-6.5-.5s2.6-1.4 7.3 0l2-.8-3.8-.7c-.8 0-1-.3-1-.3a10.3 10.3 0 0 1 5.6.6s4.1-1.5 4-1.8z"/>
  <ellipse cx="368.6" cy="801.4" fill="#6c63ff" opacity=".1" rx="16.9" ry="2.9"/>
  <path fill="#6c63ff" d="M430.4 745s-28.7-1.8-25.3 18.4a5 5 0 0 0 2.5 5.2s0-1.5 3-1a13.1 13.1 0 0 0 3 .1 6.5 6.5 0 0 0 3.9-1.5s8-3.4 11.2-16.6c0 0 2.4-2.9 2.3-3.6l-4.9 2s1.7 3.5.4 6.5c0 0-.2-6.3-1.1-6.2l-2.5 1.2s2.8 6.1.7 10.6c0 0 .8-7.5-1.6-10.1l-3.4 2s3.3 6.3 1 11.4c0 0 .6-7.9-1.8-11l-3 2.4s3 6.3 1.2 10.5c0 0-.3-9.2-2-9.9 0 0-2.6 2.4-3 3.4 0 0 2 4.5.8 7 0 0-.9-6.2-1.5-6.2 0 0-2.7 4-3 6.8a14.8 14.8 0 0 1 2.3-7.2 8.1 8.1 0 0 0-4.1 2.1s.4-2.9 4.8-3.1c0 0 2.2-3 2.8-3.3 0 0-4.4-.3-7 .8 0 0 2.3-2.7 7.8-1.4l3-2.5s-5.7-.8-8.1 0c0 0 2.8-2.3 9-.6l3.3-2s-4.9-1-7.8-.7c0 0 3-1.6 8.8.2l2.3-1-4.6-.9c-1-.1-1-.4-1-.4a12.4 12.4 0 0 1 6.6.7s5.1-1.8 5-2.1z"/>
  <ellipse cx="410.6" cy="770.3" fill="#6c63ff" opacity=".1" rx="20.4" ry="3.4"/>
  <ellipse cx="620.5" cy="771.8" fill="#6c63ff" opacity=".1" rx="29.9" ry="5.1"/>
  <path fill="#a8a8a8" d="M600.5 748.3s17-.6 22.2-4.2 26.2-8 27.5-2.2 25.6 29.2 6.4 29.4-44.8-3-50-6.1-6.1-17-6.1-17z"/>
  <path d="M657 769.2c-19.3.2-44.8-3-50-6.1-3.9-2.4-5.4-11-6-14.9h-.6s1.1 13.8 6.3 17 30.6 6.2 49.9 6c5.5 0 7.5-2 7.4-5-.8 1.9-3 3-7 3z" opacity=".2"/>
</svg>
