<svg xmlns="http://www.w3.org/2000/svg" viewBox="0 0 128 110">
  <path d="M26.6 23.47c0-.4-.3-.7-.7-.7-.4 0-.7.3-.7.7v12.27c0 .4.3.7.7.7.4 0 .7-.3.7-.7V23.47zM25.9 39.1c-.4 0-.7.3-.7.7v3.96c0 .4.3.7.7.7.4 0 .7-.3.7-.7V39.8c0-.4-.3-.7-.7-.7zM12.4 56.93l-1.62-1.58c-.3-.3-.8-.3-1 0s-.3.79 0 .99l1.6 1.58c.1.1.3.2.51.2.2 0 .4-.1.5-.2.3-.2.3-.7 0-.99zM15.92 60.5c-.3-.3-.8-.3-1 0-.3.3-.3.79 0 .99l1.6 1.58c.1.1.3.2.51.2s.4-.1.5-.2c.3-.3.3-.8 0-1l-1.6-1.57zM11.29 60.5l-1.62 1.58c-.3.3-.3.8 0 .99.1.1.3.2.5.2s.41-.1.51-.2l1.61-1.58c.3-.3.3-.8 0-1-.2-.3-.7-.3-1 0zM17.53 55.35c-.3-.3-.8-.3-1 0l-1.62 1.58c-.3.3-.3.8 0 1 .1.09.3.19.5.19s.41-.1.51-.2l1.61-1.58c.3-.2.3-.7 0-1zM121.53 8.42c.1.1.3.2.5.2s.4-.1.5-.2c.3-.3.3-.8 0-1l-1.6-1.58c-.31-.3-.82-.3-1.02 0s-.3.8 0 1l1.62 1.58zM126.16 10.9c-.3-.3-.8-.3-1 0s-.3.78 0 .98l1.6 1.59c.1.1.3.2.5.2s.41-.1.51-.2c.3-.3.3-.8 0-1l-1.6-1.58zM120.42 13.66c.2 0 .4-.1.5-.2l1.61-1.58c.3-.3.3-.8 0-.99s-.8-.3-1 0l-1.62 1.59c-.3.3-.3.79 0 .99.1.2.3.2.5.2zM125.66 8.61c.2 0 .4-.1.5-.2l1.61-1.58c.3-.3.3-.79 0-.99-.3-.3-.8-.3-1 0l-1.62 1.59c-.3.3-.3.79 0 .99.1.1.3.2.5.2zM57.24 102.08c-.3-.3-.81-.3-1.01 0-.3.3-.3.8 0 .99l1.61 1.58c.1.1.3.2.5.2s.4-.1.5-.2c.31-.3.31-.79 0-.99l-1.6-1.58zM62.38 107.23c-.3-.3-.81-.3-1.01 0-.3.3-.3.79 0 .99l1.61 1.58c.1.1.3.2.5.2s.4-.1.5-.2c.31-.3.31-.79 0-.99l-1.6-1.58zM57.74 107.23l-1.61 1.58c-.3.3-.3.8 0 1 .1.1.3.19.5.19s.4-.1.5-.2l1.62-1.58c.3-.3.3-.8 0-1-.2-.29-.7-.29-1.01 0zM62.98 102.08l-1.61 1.58c-.3.3-.3.8 0 1 .1.1.3.2.5.2s.4-.1.5-.2l1.62-1.6c.3-.29.3-.78 0-.98-.3-.3-.8-.3-1.01 0zM57.14 11.58a3.58 3.58 0 0 0 3.62-3.56 3.58 3.58 0 0 0-3.62-3.56 3.58 3.58 0 0 0-3.63 3.56 3.58 3.58 0 0 0 3.63 3.56zm0-5.74c1.2 0 2.21 1 2.21 2.18a2.22 2.22 0 0 1-4.43 0c0-1.19 1-2.18 2.22-2.18zM84.34 91.19a3.58 3.58 0 0 0-3.63 3.56c0 1.98 1.62 3.57 3.63 3.57s3.63-1.59 3.63-3.57c.1-1.98-1.61-3.56-3.63-3.56zm0 5.74c-1.2 0-2.21-.99-2.21-2.18a2.22 2.22 0 0 1 4.43 0c0 1.2-1 2.18-2.22 2.18zM17.33 10.9c0 .39.3.68.7.68h13.61c.4 0 .7-.3.7-.69 0-.4-.3-.7-.7-.7h-13.5c-.4-.1-.8.3-.8.7zM9.27 11.58h4.33c.4 0 .7-.3.7-.69 0-.4-.3-.7-.7-.7H9.27c-.4 0-.7.3-.7.7-.1.4.3.7.7.7zM9.27 7.03h9.47c.4 0 .7-.3.7-.7s-.3-.69-.7-.69H9.27c-.4 0-.7.3-.7.7s.3.69.7.69zM22.77 7.03h3.03c.4 0 .7-.3.7-.7s-.3-.69-.7-.69h-3.03c-.4 0-.7.3-.7.7s.3.69.7.69zM113.97 99.6c0-.4-.3-.69-.7-.69H99.65c-.4 0-.7.3-.7.7 0 .39.3.69.7.69h13.6c.3 0 .7-.3.7-.7zM122.03 98.81h-4.43c-.4 0-.71.3-.71.7 0 .4.3.69.7.69h4.44c.4 0 .7-.3.7-.7.1-.3-.3-.69-.7-.69zM122.03 103.37h-9.47c-.4 0-.7.3-.7.69 0 .4.3.7.7.7h9.47c.4 0 .7-.3.7-.7.1-.3-.3-.7-.7-.7zM108.53 103.37h-3.03c-.4 0-.7.3-.7.69 0 .4.3.7.7.7h3.03c.4 0 .7-.3.7-.7 0-.3-.3-.7-.7-.7zM9.98 96.53v-3.36c0-.4-.3-.7-.7-.7-.41 0-.71.3-.71.7v3.36c0 .4.3.7.7.7.4 0 .7-.3.7-.7zM69.63 30c.1.1.3.2.5.2s.4-.1.5-.2L90.2 10.8l2.01 1.97c.2.2.5.3.8.2.31-.1.51-.4.51-.7V.7c0-.2-.1-.4-.2-.5-.1-.1-.3-.19-.5-.19H81.1c-.3 0-.6.2-.7.5-.1.3-.1.59.2.79l2.02 1.98-19.65 19.1c-.3.3-.3.8 0 1L69.63 30zM84.14 3.66c.3-.3.3-.79 0-.99l-1.3-1.28h9.26v9.1l-1.3-1.28c-.1-.1-.31-.2-.51-.2s-.4.1-.5.2L70.23 28.4l-5.65-5.54 19.55-19.2z"/>
  <path d="M126.16 32.97H94.62l15.22-14.95c.3-.3.3-.8 0-.99l-6.65-6.53c-.3-.3-.81-.3-1.01 0L82.53 29.6l-2.02-1.98a.8.8 0 0 0-.8-.2c-.3.1-.5.4-.5.7v4.85H36.67c-.4 0-.7.3-.7.7v37.62H28.01a9.41 9.41 0 0 0-7.16 3.96 5.86 5.86 0 0 1-4.74 2.37h-1.81c-.1-.1-.2-.3-.4-.4-.6-.59-1.52-.88-2.52-.78-2.42.2-4.84.3-7.36.3-.4 0-.7.29-.7.69 0 .4.4.69.7.69 2.42 0 4.94-.1 7.46-.3.5 0 1 .1 1.4.4.21.2.41.5.41.89v19.4c0 .4-.2.7-.4.9-.3.3-.8.5-1.41.4-3.63-.2-7.26-.3-10.78-.3-.4 0-.71.3-.71.69 0 .4.3.7.7.7 3.53 0 7.16.09 10.69.29h.2c.8 0 1.61-.3 2.22-.8h.2s2.42.1 3.73.8c.3.2.6.3.9.5 1.41.79 3.03 1.78 6.25 2.47 1.51.3 4.94.4 8.56.4 5.04 0 10.38-.2 10.79-.2a4 4 0 0 0 4.03-3.96c0-.9-.3-1.79-.9-2.48h.1a4 4 0 0 0 4.02-3.96c0-1.19-.6-2.28-1.5-3.07a3.94 3.94 0 0 0 1.9-3.37c0-.89-.3-1.78-.9-2.47h75.17c.4 0 .7-.3.7-.7V33.67c.1-.4-.3-.69-.7-.69zM80.71 29.9l1.31 1.29c.1.1.3.2.5.2.21 0 .41-.1.51-.2l19.55-19.21 5.64 5.54-19.54 19.11c-.3.3-.3.8 0 1l1.3 1.28h-9.27v-9zM25.3 103.07a18.9 18.9 0 0 1-5.84-2.28c-.3-.2-.6-.4-.9-.5-1.22-.69-2.93-.88-3.84-.98 0-.2.1-.4.1-.6v-19.5-.1h1.31a7.27 7.27 0 0 0 5.95-3.07 8.11 8.11 0 0 1 6.55-3.37h7.76c.1 0 .2.1.3.1s.2 0 .3-.1h9.07v.1a4.9 4.9 0 0 1-4.94 4.85h-8.86c-.4 0-.71.3-.71.7 0 .1-.2 9.1-8.56 10.69-.4.1-.71.5-.61.9.1.39.4.59.7.59h.1c8.07-1.49 9.48-9.01 9.78-11.4h2.92v5.65c0 .3.1.5.3.6-.6.69-1 1.58-1 2.57 0 1.29.7 2.48 1.71 3.17-1 .7-1.71 1.88-1.71 3.17 0 1.28.7 2.47 1.71 3.17-1 .69-1.71 1.88-1.71 3.16 0 1 .4 1.98 1 2.68-4.33.2-9.16.1-10.88-.2zm21.57-2.28c0 1.39-1.11 2.48-2.52 2.48h-.1l-4.94.2h-.1c-1.31 0-2.42-1.2-2.42-2.58 0-1.39 1.1-2.47 2.52-2.47H44.24c1.4-.1 2.62.99 2.62 2.37zm.6-3.96H39.2a2.47 2.47 0 1 1 0-4.95h8.26a2.47 2.47 0 1 1 0 4.95zm2.92-8.81c0 1.39-1.1 2.48-2.52 2.48H39.2a2.47 2.47 0 1 1 0-4.96h8.77c1.4.1 2.41 1.1 2.41 2.48zm75.08-3.96h-77.4H41.12 37.38V79.1h3.73a6.36 6.36 0 0 0 6.45-6.24v-.8c0-.39-.3-.68-.7-.68h-9.48V34.36H79.2v5.34c0 .4.3.7.7.7h11.8c.3 0 .6-.2.7-.5.1-.3.1-.6-.2-.8l-2.01-1.97L93 34.36h32.45v49.7z"/>
  <path d="M82.02 58.22v-5.05c1.21.2 1.92.89 2.02 2.18h2.02c-.2-2.28-1.62-3.47-4.04-3.67V50h-1.1v1.58c-1.31.1-2.32.5-3.03 1.3-.7.68-1.1 1.67-1.1 2.86 0 2.08 1.4 3.47 4.13 3.96v5.65c-1.52-.3-2.32-1.2-2.52-2.87h-2.02c.2 2.67 1.71 4.15 4.54 4.45v1.58h1.1v-1.58c1.42-.1 2.42-.6 3.23-1.39.8-.89 1.2-1.88 1.2-3.06 0-1.1-.3-1.98-.9-2.68-.7-.79-1.81-1.29-3.53-1.58zm-1.1-.2c-.6-.2-1.21-.4-1.62-.8-.4-.29-.6-.88-.6-1.68 0-1.38.7-2.27 2.22-2.47v4.95zm1.1 7.33V59.9c.91.3 1.62.6 1.92 1 .3.39.5.88.5 1.58 0 1.78-.8 2.67-2.42 2.87zM58.24 54.55a4.69 4.69 0 0 0-4.73 4.66 4.69 4.69 0 0 0 4.73 4.65 4.69 4.69 0 0 0 4.74-4.65 4.69 4.69 0 0 0-4.74-4.66zm0 7.93a3.22 3.22 0 0 1-3.22-3.17 3.22 3.22 0 0 1 6.45 0 3.22 3.22 0 0 1-3.23 3.17zM104.7 54.55a4.69 4.69 0 0 0-4.74 4.66 4.69 4.69 0 0 0 4.74 4.65 4.69 4.69 0 0 0 4.73-4.65 4.76 4.76 0 0 0-4.73-4.66zm0 7.93a3.22 3.22 0 0 1-3.23-3.17 3.22 3.22 0 0 1 6.45 0 3.29 3.29 0 0 1-3.22 3.17z"/>
  <path d="M51.6 43.66c-.41 0-.71.3-.71.7a4 4 0 0 1-4.03 3.96c-.4 0-.7.3-.7.69v20.4c0 .4.3.69.7.69a4 4 0 0 1 4.03 3.96c0 .4.3.7.7.7h59.66c.4 0 .7-.3.7-.7a4 4 0 0 1 4.03-3.96c.4 0 .7-.3.7-.7V49.1c0-.39-.3-.68-.7-.68a3.94 3.94 0 0 1-4.03-3.57v-.4c0-.4-.3-.69-.7-.69H51.59zm63.68 6.04v19.01a5.51 5.51 0 0 0-4.74 4.66H52.3a5.51 5.51 0 0 0-4.74-4.66v-19a5.51 5.51 0 0 0 4.74-4.66h58.24a5.4 5.4 0 0 0 4.74 4.65z"/>
</svg>
